<mxfile host="app.diagrams.net" modified="2023-06-21T16:19:05.403Z" agent="Mozilla/5.0 (Windows NT 10.0; Win64; x64; rv:109.0) Gecko/20100101 Firefox/114.0" etag="Y8P4lBX6nwbQjdpl0ZMZ" version="21.5.0" type="github">
  <diagram name="Page-1" id="b6D36DGiAuHBEfDX4GBt">
    <mxGraphModel dx="435" dy="240" grid="1" gridSize="10" guides="1" tooltips="1" connect="1" arrows="1" fold="1" page="1" pageScale="1" pageWidth="850" pageHeight="1100" math="0" shadow="0">
      <root>
        <mxCell id="0" />
        <mxCell id="1" parent="0" />
        <mxCell id="HNUfWQM4cpFcuZbpRHGg-2" value="" style="shape=image;verticalLabelPosition=bottom;labelBackgroundColor=default;verticalAlign=top;aspect=fixed;imageAspect=0;image=https://i.imgur.com/RjVUPVD.jpeg;movable=1;resizable=1;rotatable=1;deletable=1;editable=1;locked=0;connectable=1;" vertex="1" parent="1">
          <mxGeometry x="40" y="40" width="357.44" height="280" as="geometry" />
        </mxCell>
        <mxCell id="HNUfWQM4cpFcuZbpRHGg-119" value="" style="shape=image;verticalLabelPosition=bottom;labelBackgroundColor=default;verticalAlign=top;aspect=fixed;imageAspect=0;image=https://i.imgur.com/RjVUPVD.jpeg;movable=1;resizable=1;rotatable=1;deletable=1;editable=1;locked=0;connectable=1;" vertex="1" parent="1">
          <mxGeometry x="440" y="40" width="357.44" height="280" as="geometry" />
        </mxCell>
        <object label="Party Spread AoEs" id="HNUfWQM4cpFcuZbpRHGg-44">
          <mxCell parent="0" />
        </object>
        <mxCell id="HNUfWQM4cpFcuZbpRHGg-45" value="" style="ellipse;whiteSpace=wrap;html=1;aspect=fixed;fillColor=none;fillStyle=zigzag-line;gradientColor=none;strokeColor=#FF9933;shadow=0;" vertex="1" parent="HNUfWQM4cpFcuZbpRHGg-44">
          <mxGeometry x="6.25" y="6.25" width="77.5" height="77.5" as="geometry" />
        </mxCell>
        <mxCell id="HNUfWQM4cpFcuZbpRHGg-46" value="" style="ellipse;whiteSpace=wrap;html=1;aspect=fixed;fillColor=none;fillStyle=zigzag-line;gradientColor=none;strokeColor=#FF8000;shadow=0;" vertex="1" parent="HNUfWQM4cpFcuZbpRHGg-44">
          <mxGeometry x="6.25" y="66.25" width="77.5" height="77.5" as="geometry" />
        </mxCell>
        <mxCell id="HNUfWQM4cpFcuZbpRHGg-47" value="" style="ellipse;whiteSpace=wrap;html=1;aspect=fixed;fillColor=none;fillStyle=zigzag-line;gradientColor=none;strokeColor=#FF8000;shadow=0;" vertex="1" parent="HNUfWQM4cpFcuZbpRHGg-44">
          <mxGeometry x="56.25" y="6.25" width="77.5" height="77.5" as="geometry" />
        </mxCell>
        <mxCell id="HNUfWQM4cpFcuZbpRHGg-48" value="" style="ellipse;whiteSpace=wrap;html=1;aspect=fixed;fillColor=none;fillStyle=zigzag-line;gradientColor=none;strokeColor=#FF8000;shadow=0;" vertex="1" parent="HNUfWQM4cpFcuZbpRHGg-44">
          <mxGeometry x="56.25" y="66.25" width="77.5" height="77.5" as="geometry" />
        </mxCell>
        <mxCell id="HNUfWQM4cpFcuZbpRHGg-49" value="" style="ellipse;whiteSpace=wrap;html=1;aspect=fixed;fillColor=none;fillStyle=zigzag-line;gradientColor=none;strokeColor=#FF8000;shadow=0;" vertex="1" parent="HNUfWQM4cpFcuZbpRHGg-44">
          <mxGeometry x="6.25" y="126.25" width="77.5" height="77.5" as="geometry" />
        </mxCell>
        <mxCell id="HNUfWQM4cpFcuZbpRHGg-50" value="" style="ellipse;whiteSpace=wrap;html=1;aspect=fixed;fillColor=none;fillStyle=zigzag-line;gradientColor=none;strokeColor=#FF8000;shadow=0;" vertex="1" parent="HNUfWQM4cpFcuZbpRHGg-44">
          <mxGeometry x="60" y="126.25" width="77.5" height="77.5" as="geometry" />
        </mxCell>
        <mxCell id="HNUfWQM4cpFcuZbpRHGg-51" value="" style="ellipse;whiteSpace=wrap;html=1;aspect=fixed;fillColor=none;fillStyle=zigzag-line;gradientColor=none;strokeColor=#FF8000;shadow=0;" vertex="1" parent="HNUfWQM4cpFcuZbpRHGg-44">
          <mxGeometry x="56.25" y="186.25" width="77.5" height="77.5" as="geometry" />
        </mxCell>
        <mxCell id="HNUfWQM4cpFcuZbpRHGg-52" value="" style="ellipse;whiteSpace=wrap;html=1;aspect=fixed;fillColor=none;fillStyle=zigzag-line;gradientColor=none;strokeColor=#FF8000;shadow=0;" vertex="1" parent="HNUfWQM4cpFcuZbpRHGg-44">
          <mxGeometry x="6.25" y="186.25" width="77.5" height="77.5" as="geometry" />
        </mxCell>
        <object label="Party Spread Players" id="HNUfWQM4cpFcuZbpRHGg-53">
          <mxCell parent="0" />
        </object>
        <mxCell id="HNUfWQM4cpFcuZbpRHGg-54" value="" style="shape=image;verticalLabelPosition=bottom;labelBackgroundColor=default;verticalAlign=top;aspect=fixed;imageAspect=0;image=data:image/png,iVBORw0KGgoAAAANSUhEUgAAAFQAAABUCAYAAAAcaxDBAAAYAklEQVR42u2de7Bd9XXfP2v9fnuf130JvUCAZGSMEE+BwbFTGPB4TOwx2FMISWaaaSdOpybTzjRpO23+SOv+0ZnWmWmddtoZmrROk3acuvFr4nRSbGPHyK7cxpYlMCAsYx5GoLfu8zz23r/f6h+/fc49EgjQlXSFi37M4d57dB6//d3r+V1r7S1mxunWnQ/tWA/cANwC7Kgfm4EGb481AF4E9tSPHwA/3PnwniOne4O8FqB3PrSjAfwa8AlgC5ABvv6pgLxNADUgAiVQ1T9fAP4j8Ic7H94zeENA73xox3XAPwY+AFxaA3lxLa8KOAg8Cnxq58N7nj4toHc+tON+4DeBm4DJWhovrlevCCwAe4F/u/PhPV98FaB3PrRjG/CfgNvfRjbyXNjYvwL+9s6H9zzDUALvfGhHDvxW7XQugvnmV6PG7DdrDEcqfT9wL9C+iNEZr3aN3f0Acscnbp4B/hz4uYsO6Kwc1XeBexXYVovtRTBXvnwdq2/T+hd3EZOzXg64RYGbLwJ6zgDdMQT0Yrx59kuBm4c2dNUAlfq//08B3aZ1RiSrBeZr/f6mMmp7ywMqwKRfTcl8refsVKQMxtNhs+H/hm8SREBElg/jLebuLwiYrwWiDX8GIwYjVhGL6XnRBKKooF5RFUSXAWYc5DexHztPIu8vKJi1KkezBFxMQJb9isFiSdGtsBBrwRQQUK/kLU/eyXC5oi6BLCqoLr/uQoHqLxSYZoZFsGiEkCQxFIGyH+jNFQwWSwieyclLaLcm6S4u0O0u0Kv69JsFrekGzYmMrOVRr4gYOEVcLc28NrCn2vFzDaq/0GDGYMQy0p0d0D0xIJSRmam13PX+9/LgfQ9yyw23Mj01QywrXjzwUx777jf56s6v8cyPn2L2wBwikdaaBp1LmkntERQFsVeBuhrRhdzxiZuLmolfNTU3q4EMkaqILB3tM/tyl+n2Gj74wQ/y63/z42zfei159mriqwoVg6LPcwde5E+/9CW+9OXPc3T2FSY2NJlc38I3FfWK83qSXT3dns6xhJbnHNA3koKRrYxGKCJHnpunmIvcfdfd/P2/83e59cb3oKLLdvM1pHv4fBUqnnl+P3/0J5/hka8+wqLNs+byFr7pcF5HtvUN93TuQC3d5tsu/afnKvV8w43X4c9Q3YulioWDPT58z738y09+kndtuR6nLnnz03js8edVlXUza/m5d7+HNWs38th3duKahhtFAelz3mhf59AURF0tyTzpNXVoVA4CPlfef8dtrJtaj0g44wheVZloT3DrLdeS5VAVgVDGdNIMxOSc7f/NpkurAuZ4oG6QVL6KiEJ30MM7S56aeObfL0qo+sRQEYqQzAqG2Pk7jvMG6Io2YcvqGw1+9Mx+ROIYmHZGHyZEThw5QjUoR8nBSu3j2YK6+iyT2eiA1QnRhD1PPEmweSCMPU6V1EH9/KkrABVP7dvHoAyjtHTZvPwMpZ5nezbFKRi8cvAQB18+wOWXT9VAOiDw+Ev7ePSpXfz4yAvMh+N0pMEtG67lgbvuZ13z0vq1htFj9+49iBjOJ6dGbVpEVnZcK/X8q1/2GMaFklJFBBaWlnjqR/vYtOkqRBQwjp44yr/789/nxeoVaILLlAOF8cKzh4lN5Tfu+htADgRinGPvUz8CUUQVEUlwXACGSs+ZdI4Ijlql7TQE11joIyqoCFUVeHLf0xi9WrVLFnpznKjmYFqQpiP4iG8aNgGPH91PZKF+bcHhYwc4eOgQFmKt8vVXyRuRMXZa0FeqfWcnoVYbfau9d1y2jzKk2XRZIsfVSARUBZcpsYzsfnIfZl2QJuDIyDBRtAleLB1iMCgqjGpkZ80G/OTH+xkMBjTyPOXxKoyyzrE9jqIMM4jp+fF9ngtK0K9YOsfBrDOfWEZClTIh9ZICbK+IgMkYrynLEuubjlgK+/e/yOLiHFOTHhFoN9o438DpEk6StRRS9tN2Wa1aCdifPPciKjqi94ZmxQyIlv6u6cFYRUIZCSHiXL0/BXWKurHjk5XZUr9y4UxgxmjEKjFFvfmCsmd47zAJZE2Hbzh8rohLpGU6NlvGVtMJOT47z+GXX2Fq2zQgtPKMhjh6GKYg0UY2ctK3Ro7LKDnwykFMxzjVGIlBMYu11KVAvyoCVT9Q9ivKQcR7T9ZWGhMZMQRcpqjTOhSTFUmqX6l0jiSzSgTH4tEB3cMVf/3eB2hPZzz6rUc5fuQoRsQ3Hc3JDN9wIxNgZoQyMlgoKboRGpHDB49y9bYke3mmtJxnzlIIZDWJjHimdKr+I8WuRb+ECNUgfZ46QV2sJROqQWCwWFJ2K0IwOhNt/tqtP88tN97Gf/3sZ1nsH6c17Wu1N8QlyRzWv85ESv1KpdOMmlU3im7F4rGCD7//A/yzf/QPyPMJ7vvQx/jMH/8xjz32GIuHT1D0Shqd/CRpLbolg6UKInTyDnk2jeDAFKeeCZdj0RAMQUdqOJO1IERwgkrG5k3voJ036FtgsFhhGC5zCfLK6C8WFPOBdqvNdduv49d+9W/xC3ffQ7ORsfXKK/jtf/E79E7UJ0LTyRva4dVxSgY2JIXLSPdEn41rZ/h7H3+QyYlpMj/B+258H7d96nb27nucz33hc+zc9S0OHztI4YoknbWZUBW0qdxw3Q6u2X5bbQMAHJOujVpETZIjEcOsoqkeQgnaAGnzgbs/xGPf3ce3d3+fXn+RUFV4HxFVMp9x5caruP1Dt/MrD/wSt974brxmiUKk4M47buPWHdfylzu/h2tIzVK5FfulldvQWkJ78wXdE30+9pHb2XLlZjIndaOvkalw6/Yd3Pjb17PQW+I7u77Nl//nV9j7xB6OHz+Oo2Jqcoprt76LT/7OP2f6kvUQT9S8DXS0gQWrKeNa9dQIMVIsdMlzoJWzees2fvdTv8s3d+7ih088ycLCIq1Wk61XXcVN22/muu3baLdbqOpyuioljsBEw/ML77udxx7bTdkNxClDoyUplTOXUr8i7z7kM6tIf74glrBl/Ubyqk/sHUK1AeIgU1QnyX2TtZM5H73nPj56z30YRre3RKwGNLI2jVarPglLEAsISlVaUmlALfHwYJgKsYLFuS7trCIvS3Sqyfo1m3jwvvt58L77X4fyK4EeVs5SlBVlWVAszXLZ5DRiEKpAqCKapWhiJXbUr9R+UjukaKA+4/J161k89jKD4wcpehX9fkFzaorpTVfRmF5PUXlKhIbP8TSYaE/WLQHjjEnEBhmUgSpU0BBccCCCR4hmKJF+2aOoHMSIaxkaIvhYZ1mnEJRVn1LnEe1TLp5g/sAh5o8fI1RlHQt7GibkmlOFAaGIZI0U+iUxXQWVNxtKqCECnXaLtTPT9BYXWAyw1C3p9gdw/CiX9iN9/1P+9Ilv8Nz8K0y0W8x0pljX2cjlM5exaWYDazoTzLTbNHFQBhYWu8yXS/S1R64eE0MAZ4pqYM6O8NLxl9jQ2UjPC9J7iV75AseW5jjem+NY7yiHeyc4uHiIo0vHaNLnV66+iys6G1iYX6Db66NEvCqNvIGI0swzFhiMtE9rsybn3YYOQyZbjtMnG23azRZzcz26g5KigrKqaDhHGMD8whzPHnqWwWSg0h6zvcP8eH4/2UEHJagomQjecgYYkkGjZSzlJeKTwikpQDeF58pX+NyBrxL6Of3QJxYlJiUxlgQxLAdxRgQqgYXegONHukyXXRaXugyqCmIg844qpjK2VwfIqJqwqpmSDevodUPC9FQbxbGwOGBQVUSDGCO9osIsI1hJ0ajQtiJZRFVxLSVaxDDKWFJQOzMBy2CQRUwMX9cxl9NCpUeXXliCNlgQrJ2yIyWlZIakcMtSedm8MVtFymCUldHvDzAzqioQgxEimEVQW86wVp2+G+bEIdJqZIQYiCGMbI/FmAaaIsR6w04FUQM/llNbYtwT/Zm6QcyAIPjha4fUe0yAJjtu2JAeNUFMsJHzMVSWdVa9o6SgqgJVFQlVrJnUSKWRGE8mSszsAgBan8oIVBYJoQKxUY1jyNZUViLRcJohogix5okFNcWIycFZTKBggCbgAa0JDDMwNYiKARUFIaZMScxjokkiVbGYtkLUpM7UQT6RdBZikmIDsTi2X1smTmyVAD3piyTRb91+iVmSClUhBlARnDoGZZe84WjnDeaLJZrqCRZH5EgwRYLDohJjxGWCSf3vLgXamU8gRQNi8rxZJQyKQBGMgKTMSLX2zIEYQ9KOADrImO50UHEpkQCCRWJ0VNEQ53DeY1UtnXISdXseAbWTuc06Vabb7YMYWe6JVmEiiPd47ynjgExbbJvawuNzz6LBk/ucyUabNa01bMwnWJdP0xFPZjlBK6JGjhc9nhjsY97P4lwEZ8QYiZWwMW7hjkvfQwulWyzSLwtKK4jBKGzAkhbMVYscXZhjrt9lTXOKqU4rsUpeyTKHi+kAvFfEK41mji1cwBKIqKRGLWBpqUco+nQmJwBHDIJ6h/oM9YZScdema7hlwxZydUy3O3RaTTL1uKg4XM0oeUqrcJmjqhocf2GepTiXyhqAaUUYZFxabuRdl22hmQsxDqgokKqkCiWlDQgEsECxNtDt9+mXFV4VseTZtdXE6vJy7gVxbjnlNcYInNUIm4Y5U00gmEG33+f43Cxr10ykA88U0Qx1HnHgJdBseNZqhs+yJMFxgFpJUQSshBCMfjVIKp636bTXJuYnRDJ1iDqiCUaGU+hVcyx0Z1lYPIZZIJeMZiPDeUsW0iLehIlM6DhHJFLFiJeheQGzgFOjiiXdbq8G8+xaTv0Z4jiyLakmlFjugsC+lw5w47YtSDOdbVUHquAqRCJRwaIgmsKlot/HyopBUaIRBkVJMPDNHOcznPPgwQXFO4fiCBIZxAAZiA0Y9GYpuvMQSgZSUYUGueYAZLkjy3LEhAioRLwDVAg12RKjIOoYLC0yt7QEWVxu35ExMyfnUUJlxEsmCc3bjmoQ2b3/JX7xHnAOnAqZA1ydDYtQxMjBI4f59q4n+Nb3nuEnB+aogrB5fZtf/didvPfd2wllQJzSabdpNVuoKQ5Pwzm8Uyo8fSJtlzHRzJEyY6I1hcWSpf4CTz7zHE/sP8SxuT6tzLP96nVcf/VmNqxfh/dZiiiqiBMlWMBMEOc5+PwJFhe7tGaGDL6sjoRaii8SXSCCeiHvZFRF5Af7XuC5nx7i+msuT2dfjcwLRYjsffJZvvDV7/Gd7z3J0YUljMSMi3McefEEL/zRV/iNqse9772ZvNOmMz2Fz3JiUJwqrWaOFygMNEaaPqPZaUJsgnfMnTjCFx75Ln/y9T0cOzFHrBOBxjdgcqLNTVdv5sN33sj7brmWyXabqgopVjbDKNn1+JMgAZdnyS8MC3214Jx3ghllVIfJmo687Zk/0uUzf/Zt/vVvPUDWbNCtIk//6Hn+zX9+hO8/vZ+i6uO9J2/nuNyhziUudb7k8LFFPvvILm5655Vcv2EDrpEh6qgGAd/xtBoeVcNKcBQ0m4prOfLQJmjBcwcO89/+125OzC2i3pHnnqzhgMj8YMA3d+/j27v3s/XKy/jFj7yXD7zvWqY7TRzw0yMn+IvvPklzOqM5laNuDM3VIphlWNV0qV6etRzNtmfn7qf4/Ncu45abruZbu57mD7+yi9nZebKGp91u4xuKy+veTaAqjEHXqPqRgwePc/D4IjvyBprlaOapioCf9DTaHsGIojh1qBiu4fBumigFLx+dY7HXR70jayYz5BuJ+fdZxGdKKCL7X3qZf/UHX+YvvrOVj3/0NjZftoHf/8Iu5gZLdC5pkLd90hxdWQy6Qhs6LBGkor46weeO1kyOSMHv/fdv0v7SLo7Nz+MyZWpjB58rLlOcP7kq6RuKmdGfK7EYmOhMknfWoo0WASUOShq5I29mGEZmJbl3OOfwzuMbnmieQRRCGXENpT3doDGRVHdkqqJRlZGqHxksVex9+sf8w2eeZ6LZohtqMFs+FelW04YO7eiyY0oTGT4f1tmhWKroh4LJ9a0kjVmSSBmzTcMafghC3soIg0CuGe+4YhN5awJ1bQZBqGKJbynaqE9AzPBNQ3zENxvgFfBMzkyBgfOpgpm3fD0hspwCZ9EIrUjecZQ9n0gRLZlotWh0PFkjATry8iqrV0YeSilqieHJdNRg4BsuBcTCWJ2cUQNsnTITQ8RieoQycMn6GTZdsQXJWqjmhFhRVl1aLSH3SrBIVkt5iH3wHsQhBpsu28QwNk+mqA7pXN28YIZEQ52QNR2NTmLJRJLJWj7p9VTJWTQ8rIy+k1pKEVBQD6JpMzGkvHs8zBrFdVpTEHVsJ1VSxVBENm9cz9Ql63HaBDLMSgob4JsdvChOBLNAGQrmi4VUYsEjolx55WYaeY6pjTpSUp99OokWE6CjmHLU8iijsZzReI4sC8NKGsZWzjaNnGACVUQwNdRxcs+QyHL2MdbBMcy2QhHBhK3v3II22qPu9BBKnAyw0hNCA1VHr7vEyy8dYePaK+sPT6Tw2g0bWbd2hqO92VGM7LycZA+1njwZtuXZWIIyHG4Ybx26MPSdLHv8uso7aoE9KbkSGdnOYZFvCGgMhqjj5uu3I9IcXR6q3ehwzdrNPPvUT5h9ZYmiMo78dIFyrsENNw8vjSKAMjU1zdZ3XMHRp+eWtUPlJO0wE9CUaCyf7DGtluXsKJm01W5nlOUeIDNblsDXMj2j1xoWRzpHDAbR8OK4+Yab6vZEByi5m+CBe3+dg4cO8fKJl1jod5nevIZ3XraVNZOX1N+Smm1Vcm599w381b6nU399qEVQx8cWayL6TR7TBZHQUZl1PAi2V+f+oz9NRmI8nFUSgfZkhy2bN4+9IYmZdxNcsWmSKzZtG/uUatRoO/wSM8ett1xP/j++SKgiYQionVJGPnWP8joZ4Wr3h75+1P86mx22PQ5ZcRGuvHwT7YnpU4Aa31411ip+KhIpPrrm6quYnpykKmMaun09yl3O3xTzWQO60rM5KvSZsf2azcRoY4Pxp4q5nnKmxoJ2CxiRS2amuHrrFagum6GV1IbOdgjsnEjoSjaRpoeFGIxLZmbo9hcwGw4rhNeQVk4BPDVGpNmmSDPPuPLyDaiSIg3sjFvCz8VE3TnrsR/a0zcLpghoJrhM+OJXvspkS/nlBz7KZZddhUgTkewUKT0ZSAhJOm3AwaOH+frX/zdf/8b/RRvL4dKZeOpzNZ64urOedYNuyq0rYmH05gbMvrxE1Yusm5nhYx++m19+4D6u3X493k/WNXk35qyMGHssLh1l7569fP7PvsajO7/PXHeebFLpXNKkMZHh85SXpxZFXRUwz8vw7OuCWmcoIdaOozKqQaS/ULB0oqBYKohmzHQmuG7b1fzSfR/hjjt+nvXr1iMoc7PH2LP7cR751l/ygyd+yPMHD9IbFLjc05zM6vn5xDSlbmR5wwHat/w08uuCOhzttjTanUBNrdplP1B0K6pBpOiWlP2IVtBptZiemsY5ZW5xnsWFJcpYoLmSNTPydkZW03W+6Wpmy42B+foj3uca0PM2p/SaNlWGzw+rpom+83lqFXeZUvVTr7vLE7hLVZfF2e4ou9JcyLPEXeZtn0a5M01DEkOSQ8c5YlmRnb/gTunNgjqkxFSF5SxRRjUqdYmxak5maWJjdDGXOkfPFF8DqE4Rz4ge1DHq7Y0Y95/Zi7iMgzpekxpdSMANpSk1dqkK0Q9jVDe6YMEo66mBoya5xdXAjqn3iOh4jTTSzvN43aqMJp5O/YeWzWpeVVSI0ZCwfJUcc6cSLWOt2spJFxpAx1gjkQtyTSdfX0t4zfm+pNRJknGSbbMRYa2WJA5nJ3XnjcrjMv4BNka9nXL9Ji4ImAYseOAZ4D0X5AqNQ0kyRqSJmkDdkTLsTHsVl1GTvyLnjiU6BysC+7S+0nW8oFuRsYsMjne+1a46zb+P/50c2ZDpeguAOQR0r68BDecjFj1jluqU3+W0L3hLrgDs1fp2DIGL61wA+gOtbeiemnS8uFa2qlown9GdD++ZBf49cOiC29KfzRXrW1n8h50P75kb0jBfrC+93r2Izxmvbo3dF0cE886H9xTAp2vVH1zE6E2vQY3Z79UYLjP29b0sPg38H2Duovq/oZrP1Vh9engfEE5z+5/twD+5ePuf01N0tb9549v/jIF6uhtU+VG7xttj2aj4v3yDqufrG1T9lzd1g6pTgF13mluoNd8mgPZPcwu1o6d7w/8DtiO2paB9uTAAAAAASUVORK5CYII=;" vertex="1" parent="HNUfWQM4cpFcuZbpRHGg-53">
          <mxGeometry x="40" y="160" width="10" height="10" as="geometry" />
        </mxCell>
        <mxCell id="HNUfWQM4cpFcuZbpRHGg-55" value="" style="shape=image;verticalLabelPosition=bottom;labelBackgroundColor=default;verticalAlign=top;aspect=fixed;imageAspect=0;image=data:image/png,iVBORw0KGgoAAAANSUhEUgAAAFQAAABUCAYAAAAcaxDBAAAYa0lEQVR42uWdeZRkVZ3nP/e+Ldbcs1agWARaaGitErV7sEWwUVppVBzQFhdaQZg5UrSFjMs0djf2tB7LDbqVYWlKRAc32sFRGbEP4oCiTgrYHAWZBgssaq/MrMyIt91l/njvRUZm5RK5li1xTpyXEZGZ8eIT3/vb7u/eJ6y1zHS7atOmQeD3gRcCL8jvRwEBz41bDDwNPJzfHwIe3To0tHemPxDTAb1q06YAuBh4N7AB8AA3P0pAPEeAWsAAKaDy43bgvwO3bh0aiucEetWmTScBVwNnAWtykIf1JqZ8wsN8U8Au4F+Aj20dGvrljECv2rTpDcCVwKlAPVfjCkMTCyBqVxq2AcaAR4DPbB0auvMQoFdt2nQicDNw2krYyEMAiiUaoCsLOAZ+Crxr69DQ4y2gV23a5APXAW8BaisCUayQBVx+uOPA7cDmrUNDSQH0TcBWYO1yDHOxkhDngGuXZ/g/C7xv69DQHWLLxo09wP8CXrLUDmi+IMVSjPbDA1YBDwKvFVs2bnxJ7rGqK2M3D5NSl0+hxa0BnCm2bNx4GfApoLQy3vwwDn27rEgj4EqxZePGzwHvzIN2fqdVCmCXDWkK3CK2bNz4Q+DFgLPywfphALt8KtXAT8SWjRv3A72HI51cCahiOoe1PCq1wLDYsnFjslLDfVqgQvxWDH2xNLFq+twF2oIqslNoJQFiMcnA4QWa8RT5Z5lQjJ1if0T+eysaYokF2dvDrFAhsNZiipTD2tbjAp8UAoFAisMAdv72duWBWsBa21KmtTYDCShjiI0h0QYhwBUCT0pcKXGEQOb3AqxYqRPuXKcrCzRTn2idnrY2g6g1oVIcjBNUEOB4Lmq8icDiSUnZcaj7Hr7j4LaBdYRYNNiOnFHnUFcGqM0VaKzFWEitQeVKTI2mkSoOJgn7o5hzL7qQC956AXd9/X9y3z33sXvHTmrAQCmg2/coOS6uI3EQuFLgSDkvxU4K1WxmLDtC1Zk9XX6ghU001qItRDpT4niaEBqD1prAcQHJvjTlH//HTbz09DMQImJ87AD33n0vX9/2NZ5+4gnCZkggJQPlMr1BQODk5kDKbF5mDvs6Y1TRaZlvbnu6PEBtO0xr0TnMUCkOxBEHkoSuo9bzqgteRxwlPPS9+9n11DNU1w1yx7dvo1rtwdoQEBjtEjfGefQnD3PXN+/m+//yA0b27ueIaoV11Qolx8GTDq7MzMCiQrS5hvbcQ3/pgbY7GmPBYFHGMpok7G1GxEYjA58rP3oNrzv/vGzIWcHPH3qIDesq9K47Iq8zKLAyK8+KAHDQSrHvmR3c9Olb2Hb7nRxXr3JUvYYvHTxnwnEtKt6da2jP/vrsQOebPRS2UluLNpbUGFJjORBH7GqGKG0JPJcjTziaG792E119vXlNoZhxOQi2CQdGIAzBdcEvQakCTl4MC1zCvQf5z+/8ED/94U95weAAVd9rRQSFTV1U8tA2tOeZus4FVHQcMEyCaS2x1owmiv1JitvfTb1eh0gz0N/FO6++lNP++I8zgOk4NEJQClQCxkAagTZZMVw64LlQ6YKgBNKC43HvXffzgfd+lF4pObJexRNykkrFRLC7qFBpeqAzqnRmoMU3O1sjxMR7tzsem4dAKbvikBNO/0PefcXFrF3Vg0DTP1ilXB/MhnW0H/YMQ5Tmbyrb3twWZ54dpYRaDaplcD3iRsLbztvMY49v55SBXuq+h9sGdS5ldjKRmiWmM/zO9CqdDehEaGHnsJe2DeZIHLM/jImMoYlly0c/wOvPPwfpREgpcmYpqBh2DmfqFPk72CIdKkIa2zp5hADPgVodqlXwXD7xweu48ba7WV/yeF5PF56UWSIgBFLKWSHO5kzboRUa7VCl0wOd9O3ayW9lp3E+KreZY0nCzmZIqLO36l43wLZvfJY16wfBNiCOQGlIFYxHMJ7kZUQ7/bhqf1KQqbQUZECDgMeGfsnF77qW5ug4L1zVR8V1cYXM4tQ2WyrmGZ0c+oTtVKUdAD3kP+W5d16pUUaTWMveMGR3HOH6ZbpqPfT093DRe97E2ee9AuwYNMZgNARlMqCJzuxl62RtyxYXdkvkSm2dipSZo6qWoVQCK7js0mv58f0/57juGoPlEo4j8fNUdSFZ1GxQFwF0lqKvnVCnJvPk42nKTqP5k9f/CWed8QL6Vw0wuLaPyupVQAIHRmHPwUydWRUEjMGKiRO11rSAtn+zrSxI5IG7IyHwM6V6Pt/71g/58DWfJUBwXD7sfdfBz4HONwm1szipabQ19S8OBdpJmNGymcbQVIrRJCUuB/z9tZdxwqYTkV01hOchdJo5nL3jEMX5GdiWqQCLNRZL9lzLu7YzFYDMgUqB40iE5+ThVEBjPOHtb/sQv3ryWU7q76bb9ym5Dr6UC87zF6HSBQLNvXpqDGNpykickHgemy99PS9+6e9RqVfwgxLCdSDWECmMUpkDK4CaDK4xBVhaUAstZKrMQAoBwhFIR+B4LrJUgsADL+Cz19/BP9x6F+vLJY7pquFLSeA4rSIKSwZ1OpXOCXTuOR7T5owOJgmjiWIMy4XnvZzXnrGRcs0nKFXwPD8b2gasKdRpMMZicoDW5HebP247cYFFSIGU5McMqHQkfrWMqJTA93nqqZ1c9K6/IR0POaW/l8DJgLpSLhropGL+3MN+cUBTYziYpIwpxbDSvPBFJ3PlBWcRBD6u51Py/XzIylx9GcgMaJ7n60ySpqXOHKa1mQ0VAkdmIarrZFAd18ELAvx6GcoBVrhcvuUTPHD/zzipr5veUoDXptKFlvfsIUCnGfazAe00TbN5zJkYQ0MpxtIsI+o9Yj0fffe51GpVHMfDc51suCJyBbb8EboA2qbO4nSLsFTkpyNlVrF3ZeHoHTzfI6hXcCoBMihxz70/5YN/+znqQvC8ni4cISgtWKVi+kzJzmlHZwc6Uy5vAW0MaQ50PFXsjROSWhf/cOV/pL+nGyEcPM9rfRhjRaZsk0EtgBpjW1HDVAcg8gm0zBZmDt6V4LoCx5WUqmXK3TWkH9BMFO/4T3/L409s59SBPiqeS8lx8BepUqYBOosdnQp08nCfF9Ao5oB0ue69b2Ftfy8Iied6+bxRG0RTJASTw7Dp9CFa0x3tUAWem0H1A4+u7i7cehXh+dxwy9f5xK13cmy1zFH1KoHjEDjOjFWoBaT3c9nRhQM11pLqLGwaS1N2hxE7U8Mn//KtrO/pxghB4AdIKbGIFkDbdrRz2K32iTraoHquxHMtgedQrVcpddVwymW2P7Obt1xxLdHoGH8w0EfZzRTq5cNe/LYDVcYQKs3BNGF3M+LpMOaaS87n+FWDIASlUhnH8/MAW2CFmPQPW6UHW5Qh7LRhS/sUh5DgSoHnCjxXUqsE1LprOJUKrh+w5a8/w733D/F7PV30+D6eM5HfL2bGtEPHtDCgtGqehkhnc0K7woinmyFvfNUf8cqTT8RxHcqVKo7nI6WT22eZZ+hichVnilrtlMJEK/7I41JHClwng1ryXer1CuXuOm6pxP0PPsyH/v4GyhaO7qoRSJmr9LccaKZQS2I0kdLsiyKeDSMq/X28+5z/wDGr+5FeCS8oIV03/99FKUm0BvQhQG17Xt/2KQrPLwVS2BZU35dUAp/uvh7cWoU4NVz63r/jF7/ezkldXfT6PoHj4DtyUXZ0Vk8/HdDpQqZOgKZGZ/FomrIzjBlJNevXrOIdr3wRG9avxvMzhyFFFvOIKUN/EtDixNrqBYeko6JwUllc6jmCUuDS3V2nVK/ilkrcdPud3PDVb7PG8zm2XsWTkpLjHFLNXzKgE55+4UBtnimlOvP2TaV4thlyQFm01qwaqHPZ687k2CPWId0ywnEzqG0qbY+UWllSDrVIBGzb43bFSpFlUJ5T2NIS9Z46pUqZJ5/eyaXXfAIdRpzc3dXK7Zcic1o+oHnolORAI63Z0QhplAJGx0Ncrenq72bL+Wdy/IYNGDxwHKSQuS2TbY4pD6PaCidZOpoXUdpqAC2o1iIkeBIcRxB4mS31Sz7SWK6+/jb+9dHHOLpWZVW5lNVJ5URzxLIDna8NbQeaGE2oDc80Qs549RmYNOKb9zyI0Ybevirvu/Acjj3iSLRwEUIipDPFphZZlMUaM9HjZEwr97etdNVgrUagkdLiSpspD0spCAh8By8ocd/Pn+DGL/4zrjYcXatSzovPjhQLCqHmbUMXDNQYEq0ZSxVPjTf4wOaLOf1lL+W73/8x/7jt64TjTbr6unn/hWdz9JFHoI0E6WSeP1erLeLSXJnGGowxaGOw+dHorClC6QQdjzE6sp+xsXG0jkm1JokUnispeT5uUMPp6uG2u77Hnr37WFetsqZSbtlRR4iOGiNW1MsXNrRQ6N4w5ukw5K82v4NXnHU65WqdHz34Mz788ZtpHBynr7+X91/0Go5YvQpjJdLxkFIicrtqbXsWZTBao0x21NqQpilJEqF0kzhp8N0fDTH0xA72HgxJohQhHSquwBfgOg7dtTK1aoXf7D6A1Zo1lRJrqhUqrpspVIhWn9RvGVBNrA3PNps83Yz5q8vezKvOeQW13h68SpX/c9+Pufq/3UBzdJwNR63lPee9nA3rViOdUu6oRBaf5gothrXWOr8blFJEUYRKxlE25ZsP/F9+8NCvcPJ5EtdzEYGPG5To6anSNzjIhqPWMNjTzc9+8nN+9cijuMYQOA7rqhVqXlZcc6XA7bA3alkzpalAC4f0TByz5c//jHNe/XJ616ymVKtireSeex9ky8dugUaDI1f3cMUbzuT5zzse4XitYW/ahrw2BqU1WilSpVBpSrM5jjYx9z78KF/5wUM4qcEruVx2xV9w4VvOoaurglOq5GvXZL4Gw5CMjnPzDV/grtu+StJo0khS1lfLrKlU8gqW7AjqAoF2Vm2aGjaFWrGjEfJsknLFm/6Ul208mVWDA1QGe5GlCjgB13/hG9y47WuUMJx6wjH817eeT62nO3sXK7BiMlCtFGmqSNKEJImJ43Ee+MX/Y9s9D6DCmHK5xNaPvIezLzgXZJJBtE4G1LFZjmpNNqmK4Cf3D3HrZ7/ILx55lF3DIxxbzdp4PDnRcTKTXV1EtanzTotiHj7NndLOZsSOOOaNrzmD1246iUrgUqmUqQyuprZ6Lc/uOcDbrvwbRg6MUql3c8v7L2fNmkFUqnLPnjkicqBpmpImKVESEUdNHnni37jxOw/QHB7B+D4fv/YKzn3Dq2nu2cO+Z/cxvHuMME7xHQffd6lWy3T31uk7bhV01TLQieWRHz3MF754J9/5/oOsl4Jj6pVJdVPZAdCO66HMY6VbS6F5GW8kTng6jCj19fL2V76E045ejVcK8MtV+o45Fq+nh63X3843/vf36V27nts+vJmeegWVpKgkQiuNyb250ToDmqaE4Ti/2L6D6776XUZGDqKs4SNXX8IFbzqPaHiYXb/exejIGFGUoJRBCrBC5IsRBF2VChuOX0t5VR2CMhaX0T37+fyX7uJrX7mL48o+vb4/oVIxuc6wqIr9vIC2hU0qD+x3hxHbGxFdvT1cfvYm/uiUE5GuT7mvj/7jjuLJnSN8/ivf4fdPOZk3v+p0VByTjI2Thk2szhySVgqjNEmaoJKIZ3bt4SO3f4vtz+xESckHN7+dS/7iAkQYMrxzHwcOHCSKUpIoQSmdxamtGSmQ0iEIXMq1AD/w0RiMsDz55A4+/umbqSrF6nJA1XXz1nM5qcdjCeaUOpwGKWqiOdBYa0KteWa8ye4wYWCwmy3nvoyNJx6DU6riD9QpD6yiGY5T7xqg6gfEB4eJxhuoVGO1AANaKbTWGJMyPNbg2lv/mUcef4pEaz64+WIuufTNEEc09hykcXCcZpSQxAlxnGQhlpkoXhdgkXnfsjQkcYRWKY3xkE/905cRzQZrSiW6fC/v53cylS/drOf8gBZQU22I8/buHY0me+OUo9YMcNk5L+XFp5yAXwpwukpEqcV1fWqlAJvEpEmap5MuwmbxqLCG4UbIR7Z9gx898ktibbn8kou4evPbcdKEeGyUxmiDZjMlTTVKKdI0C7G0acusrGktiMjCMo1KFcZowkaDT267Az02zuogoCfwCRy3lZ7apZqXn8+wN20dymlbGppBDdmXpgz29/COs17ES045DukK4jDCaIPnuUjHQRuNQCKli0DSjFOe3DvMV37wMI/9ajtxFHH2mX/I9R+/hsC1JM0mKo4Jx2OSVKNSjdI2z6ImMipjMidn8hTWWLAmC8W0MYRhxHW3fZnm/mFW+T59QUDJzZzTIeHTYjpHFqpSbcxEoG8MkVLsCuOsRlor87x1/fT0VAljRRwnNKKIME5oRtmHt9oQp5nZQFtcIdHWcvzRR3Lzx65m/VEbUCrEqpg0Vqgki1WVKkKtDJxSEwlBcTT5a9oYtFZopWiGMZ/5/B009h1g0PPoLwWUHBfPmQJ0aXqb5hc+mbYW8NQalM6cVWQyRzUcJUgJvuu0TrIogFhj29puRCu3D7UB1+WdF/wpl73tDZjCDlqNLeb2W7Dy9nMzoVStDTqHm6qJn5VSaJ0y3gi5btuXaew/QL/r0VcKKLvuofNPdgm675jnRgFToWqygD8xGmUtkcqK0KktqkVMnrFr2xlHIEht1oCWWDjttFN437veyNr1a7BCIEzRCNzWumOzKRmTl/d0AVTrPOMypKkmTRVpEqOUYmR0jE/f8iXCkTH6XY+B8jRAZ1XnPPpDJ6nUzt1gOVEgntzJrIxFWZN92OJnYzFtcx5CTJ4FFUKQmKx61VSaoF7hrRe+mgtfcwY2t7NCyjzWzJVjzESLpRX58LYtJ6WVRqkMaNhsopVi1+4DbL3hdkQY0e/79OcKzUqBE83wS9bB3FJp8W87WZEyxa4WYIsj1rZ9ATN8MXmL5GiScjBVxBhOP+M0PnzFn4NwAQchZZ6xitb0yKSlPEUTRUuphjRVaKWJwog0SfjlE7/hupu+RNVYBkuFl3dwhSyirFkWLSygx55D5sdnh9q+dtO2dejZNriTJuCmX3zRWobTVIqDScqwSjn21OP53F9fnuXnogAqJn1a2zY4W3a1cFK5QpUyxHGMTlLuvm+IL995N6t9n4FSQNX18POVee02dElXgRzanz491KkFhalgbdtzk23n5GzEkjmW1GaJwliq2B1GlNev4o5P/iWe52IsCGFBOK3RkH1TAkseg1qDUQZtTe7lDVplryVJQmMs5FNf+DaP/+sTHFMr0+P7HS8gW9Q6pU6gzgbaTvkmW/Dy1cjT/W7RkRJpTUMp9jRDxupVbr72Etb2VxmPQ6Tj4DheXlEq1jfkBiN3TEZrbNYQmVX044TGWMSeAyM88th2vvStH7IawfpaharjErhZh8msbTvLsZJuvlCn6wKZbbFV+9KcUGlGkpgdccLxL3w+px4zQNW39NRr9PZ0UatX8T0X13Em2tRTTao1aZIw1ojYuXs/T/1mL/+2Yz+79x1ktBERxyn9QrKhVqXqOQTSmQjqi9afORaELRnQ6Yb4TEDFtI/snJ3RJl84luRdKSNpyqhSaEBjEE5WP5WuRMqi3TGr/GuVe3iVBf1KaYS1SANOHrVUPIfV5TI1L5u4CxzZ6tKbca5puVYjzxSfzmpjZ3xk58y8IpXNCIQ6m1ktYltlTGuZuMibyIqqvxQSTwokmYNxhcAR4OcLw8p5V54vs99rr4VOOyO6nOvlZ8qiOooEOpj1b4VceXmwaPdJ2noAlLVomx1VHv+K9tYeyCHmMKXEE6LVOObkr3lisleftsC83Ds6zAVu/mCnH/aTl4ZnitRtj81Uh5dHDsVwFW1de+3qk2RD35Uy2/lrrm03VmLPkcVCnXOJ4NQYdkply9gpXc/TJiST93pt3wwm214ja46ggDmd7VzJXXE6KaAsFKyd4vXb41jdWuM0YSJmtPZiyu46hdPJU8t2NTNDyW6eezeli9qqbTao7XOntu3J+ay/nC6OnTTUZ1GQoEhNc/XZdnNgW6+LhYVHM+lgeNGbCS7Iu4vOh//kBtzONkSYWgSe+OLt7NPji9tjVAM/XpLtLuc3tGenKTqCdKhyD/nbKdnEnFHw4jdsTYGbl2xD1oWFTcxPqvOSJjP27C8DTNo3ZF3SLYMXFjbNM8aynVNdAZDFrbVl8JJvat3pvqBiEa/OmcZ22E63RDAnNrVezm3XnyO7hE/edn0lLgzwO76P/aEXBmCFLl3xO3ilhekvXVHc8ourbAb+YLkvrvLv/Fogc19cpQ3q84H/stKX//l3dLWaFNjd0eV/2qDOdIEqN8+oVtQaHsbrKdk8A1JtF6j6dX6Bqm0dXaBqCtiBGS6hVuK5cYtmuITavpn+4P8D7pIyc8pXnaoAAAAASUVORK5CYII=;" vertex="1" parent="HNUfWQM4cpFcuZbpRHGg-53">
          <mxGeometry x="90" y="100" width="10" height="10" as="geometry" />
        </mxCell>
        <mxCell id="HNUfWQM4cpFcuZbpRHGg-56" value="" style="shape=image;verticalLabelPosition=bottom;labelBackgroundColor=default;verticalAlign=top;aspect=fixed;imageAspect=0;image=data:image/png,iVBORw0KGgoAAAANSUhEUgAAAFQAAABUCAYAAAAcaxDBAAASc0lEQVR42uWdCZBb5X3Af9+79HStdrUXa2yzPjCYYmK8EId2Gq5wFCgDGdoQMk25eiTTGdpCoZm4JWk6UIgzNE3blJIE2oSBtgwp4bCNMacnMYE1kAkwIUDBF77w2t5D0js739N7u2/X2l2tVtJyvJk3kkeW9Pan//3/v+8Tvu8z2XFDX18ncCJwMrAyPBcCCT4eRwnYBrwcni8Bv1zb379vsjeISkBv6OuTwK4C/gQ4BtABLXxU5Ps+JkAlHA+wASd8fBe4E7h7bX9/aVqgN/T1nQDcCJwNHBWCnNNDTPgL5/iQYHcDm4Db1vb3vz4p0Bv6+j4L/DlwEpANpbHJ0EQNRP1mw5ZSOwi8Anx7bX//g0cAvaGv7zjge8CpzbCRRwAUdVLQ5gKWKv8CcO3a/v5fjQK9oa/PAP4J+AKQaQpE0SQL2Hi4Q8CPgOvW9vdbEdDLgbVATyPUXDQT4jRw/cao/y7gr9b2998vrl+1qhV4BFhdbwc0U5CiHto+N2Clo9oCXCSBrg49Vro5dnOOJLVxEhodw8BZEuifAncAZnO8+Ryqvt9QpEUZIUmg3wWuCYN2PtJSGkBtGFIZ9H9fAv0p8ElAbX6wPgdgGyelLvBzCfR9oG0u0slmQBWVHFZjpFR+5IAEajVL3SsCFeIDofqiPrGq/fEFOgpVlC9hNAkQs0kG5hZomecHsHAV4zpD4zDHEio+BFXAmdnbuQP6oYA584RgLoAKPkgsq3JG1UOtP1A/0BL/CGkUH4RMaWKo5peNZVWoqrOn9QUqQXoxqH54zVIiZQlLEQqKKHt2MVcwK6lHtWW+6e1pfYD64ZdJmJ589H0sz8fxPRQEqiKCR0WU1V0V5ecKzYNbVYg2nWpPr/r1Ayol0g3PouuxrVhiqFRC9wVpQydraKQ1lYSiBlIqAokVY2cD4c4o3p1Otad+fWqg1WYPEUxHSqbrUlQVzr3yIt54ZydPbXqFgwOH0DyHFkMnp+u0GhpJTUWL/ZFqDK6YYHebnjzEVHuGqet0QKsz2F4IVMIctGwG8fmL6z/PqWeuZti22PradjY//QqvvPAqB/fuw7EtPJ9AarvMBFldQxcK0d8+CjWU4lrgijGPOKtQqTLQSaV0cqDRLzvVIMRomUUC9Xxsz2WgZLG3VOT8c1dxzbWXkOpqx+juxiXB4L7DbFq/hQ3rNvPaa28yMjyEik9W02jVNXIxyY2kVI1LbZVmoRqY1TRSy4npJP+nspROBXQstPCn+TG9GNDDts2egkVLu8kt119Gvr2N9MJjSC1ZhDDSwVf5nse2t95j4yPP8tKWl3j7V28xeOAgeC6qqgS2ttXQSWkqhqoGUKt1ZFPBFNUI5gRokYxWKaWVgY6zO/74r/InASpPx/MYcV32FEsMOA5fvPRTnLf6OIx0hvzSJaTmHw1GAlQVNDPoungu7Nq1m0fuX8fGR59k5/YdWHaJlAJ5Q6dF10mpKgm1LLlxGzsprKlemxHQ8U+qkNIqgB7xSXGDXf71ZGXV9bzAKZVclwMli51Fi97ebm7+o8+QSKcwUxkyLW3o2Qyp9hZobQHdLJ8Ywem7Jd587U02PPw0v3jxF+zctpOBAwfJqwrzkkmSmhZIamRb6wmzGqizADpFNuMfebWRU7I9LzilY3p7aATXNLnly+eyaEE3qqpjJJIoqoquJzBTSRKtKYx8K2RzoCbwPR+hJPCKFkN797N7914e2vRz1j+4gfmuR0Y6L0UpQ43b1QowRU3xgD/FYIpfSbYmvuNIoLWEGRFQJwQ67Di8dXiYQR+uuPBULj1zZQBS0/UArKrpaJqGooEqY9NkmmS2BUUROCWbkuUyMjKEXbJwfJVvffte3n9rJzlDD4BqijJmT+sCs25SWh+g8TjUdj0KrsOu4QK7SxbHLu5hzTUXYqYSqJqGJoGqKoqqoJQ9TDmb0lQURQXfDZyTZ9uURoo8/MxW/mf9i/RoOq0JI4AZQI1fYx1hTg21kpROC3TmxYsxT+9heR5FR3p7i+3DBVxD5xtfupQF8/Kouo6mSKgqQhWBREo1l+9XpSoHJ8HcwOFDI/zv48/z4BP9KI7HktYWWnQJVARQ1QhiA2DGoY0r5k+v9vUBOjG4t1yPouuyc6TAXsvmd88+lSvOOQXV0FGFUgaqiOCMfmEhCyeKgu3YvPrrbfzX+i28/fYurJJDVldZkmshrWuBZKoR0AbBrFC4n1ztpwI6mx5PFDrZoZRKsHuLJbaPFOno6uD2L19CKpMMwEkgEl5gBMNYz3N9hKqhqDr//dhzPLDxpzglF3wvCJ8Wt2TKXl4RZcekKA0DGXdQ4ojoaUo7OjXQmXQCI7WPHJMMnw6F3t5WdW6++nc4YekCCCVRgg2zzfA6BUbCJN/egSV8vvqd+3hu80sYrkerLpifSQU2VA2dUhSTNq1oX50dnQh0vLrPtLUaD58k0BHb4f+GRhhwPS47cyWXn3cavgSqhkCFKL/HdVEUDdM0ybVmaDuqA9sTfO2OH/Lous1kUMibGl2pZKD2cU/frLpqlXa0vkD9WPgk1b7guOwpFNlZKLFkQQdrrr6YZCqJH8SRSuDthaZgFS0UVQS2NZNJ09aVJ9mWw/MFX7ntP9nw2LNkFYWOpEG7mRiFqtZYOPnwAK3g7Qdtm/cKJUqa4KYvXsDxvT1l2yTjUlVlx+597N53gN84dgEpQ8dTVFryrXT0dGK0teI68De3fJ916zaTUzXaTZ28aZCWIVgUjzYBapWOqb5Ax6m99PZhkD9g2ewYKXLWaSu48oLVgR3UFcGegUHuuHcd7x8e5tIzV3HWycdh6Dq+qtLW2U5+XjdmrhXbFvztN+9h/WPPkNNU8gm9LKmhk4qC/EZ2UucU6Jhz8ik4DodsCbRAorWVb15zPm25DMNFi7+/73G2vvoWqqJjphN86eLf4tPL54OqIzSdts4uOhYeTbK9Hdv2+cbau3nkJ0/SomqBTW1PJIKKVDxzahTUKT19JaBiksKCX8MXR2ovM6ei4zBkO+wtFnnP9ljzuTM4qXcedz/xAo+9+HqQXnq+EmRQ+fYM15xzMquOW4AiVFTDpKWzg475PWQ7OrAdwc233836dU+VoSY0Oswy1IkV/6YCHfP09QcaV/uJmdN7I0UWL1lAdy7FUy++SkpmTYrAdn1GHBfbF7Tks1x7/qmctKhLGlqUhElLWxtHLTqG7FFHBYH+3639AesefZqstKkJnU7TCKCKBkKdU6CRt/difSap+oO2w/uWFWRRWenRZSoahk5Dts1By6XoCXIdWa46cyUnLOoOMn3FMMl1tDPv2MVk8m1YJZfb/uV+HnpoIy3S3kpJTRiB91fCYvTEEl/TgdbLhk4sOkf2NAqlSq6H53toYVTvyYvzy20UGRG8X7ApeD7pXIqrz+njhGM6QWig6eQ7O1l47FJS3Z04js8td9zDwz/ZREZRyRpK4Kxagh+p3P8XMbCzDa9mbEPrCTTunPyYCYhaJRKi8Mdgysfo9YMli30FixEPWtoyXHH6CpYv7A7iVs0wyXcfxfxli8m157EcjzVrf8CTG54lhSClK0HrRHp/JWz2SWmNUlV1Fh3VOfPycbX3Y9LqxwYhxjX+QpWPpFg+lynr7pEiw46U1CR/cNYqlh3djhAampki39VF77KlZHu6cDyXG7/+zzy36WfBbSwSoiaHKRSBoSgk9bJpSWn6aIil1mBn5xzoRKjEZp5GgcquamRzwxqAE8INuqcjJUZ8yOTS/N5vnsjyhV0oqoaRTNPR00Pv8iVkujoZKha59R//g58918/hwZHAXnueh6kIWjRBVgg6k8lRG6sFBZqZDVfMSaZU+SL8yvXF0GFEcONSGrVSBkL1H3Y9zGySz59+MifM70QoBnoqRde8HnpPXEZ6/jx806Q4XMJHCzQB1+bQwAD9W/r593/7EcV9B+lOGLSZRmhjxSjUamLXGoHWXm2abb3Rj0UFTlj+k1Blw29/wWLQdUnlMlzyyeWsXLIQVU+QSCbJtufpWXg0bQvnoecy6LI/pavlz7QKeLbH1mde4Ctr7sAaOMi8ZCLIsmS4FtnV6SR1FtWmxs28iynaFXGg8UJ1JKnSUe0plBhyPMyMye+vPpEVxy0OAn8jlUJLJEik0kG/SrZTjESC9s4c+a4MRtrENTJs3vgcX/uHf8U+PEx30qQrZWLIOStFTAu15nooDZrfFFW0eP1YRCBVNlD9Uah+oP6y3z/kenS2t3HZaSextHcBWiKJnkiiGkZ51tPz8GXmpatkc0nauzO0tucxkxmefup5vv6tu/CGhpmXNgNJjSIArUJoNeuKfTOBTiYJEVjppNywzx9AdT32FUu8V7CwVI3TT1rGRZ9aSSKTRTcSQb9KhlbSJMtTSp6uCdItOtlsiraOdjKdnWx59nm+eut3cYcL9JiJoHJlhEMUalhWjKt1HXpK9VV7McNG2jiosaqVBCprAjuGCxx0fVYct4grz/ttkpkMatA6UYNugB8iKA+d+WiaIJnUSKZStOQytLTneXHrL1lz212oIwXmJc1gKjChRvUAZdLRmxq7nnMLtJKkSgmV6eqw7bC/WGKfZbO4dwF//NnzyeZyZVUNBtti7w1U38XznACs73sI38MwVNKZDG+8+x7fuefHpB2XLtMIMixdlZMpFYdlau/L11PtxSznjPxYkUUCHXEcDhQt9rsOK1ccz2XnfDqQUE1TRweDPK8Mz7ZtioUiVqmEwMG2LRy7hF0qoCdMcvk8L778Jhuf2kK3We4EBPNTilLfyZF6SelsYFZs/LleGWipxF7L4owzTuPs1Z/ATCTQDNm8U0el1JN217EpDo3w7rZtFO1S0McaGh7k4GCBA4eHcT2wfYPtb28nJxy6TZOEpo06pzrPNs0O6GTvr+UT42GUdFCHLTvo9ye7O7jm0s+wsKcrACptqDLaRhU4rs3+fQe49+EneHfHbrm6ShDjCq+8bIXi+6gy/5e9KsMgE435VAQ6y+m72ar9ZJlHLR8X2dGoWiWlVNrRbSMFFi7p5brLz6Wzow0vuDmiLKWSq+N4vPnOLm698z7s4WJQgNFVNRhJD2b95YikzPU1lZQ21vRT40CnlM4ZzIeOkzKfma0ZUkeYlRp/UkoH7XKPak/JZvmyRfzlFefS3pEPu6llYbB9n62vvcPtd96ParuYqkKradCqS4+uBIUTXVGD50EqGgb4avQ3xwYdqMcEM7H5z2rvaZ8uJxazAOqNpqRyqNcJUtK9JZsBy+L4Y3u58aqL6chnA1vrBV5dsPnlX3PHXQ+QBOalkrQnjEASozNIP8Pa6VhhWkyYga3TjH38w6pZKKCaAkOtUhpPSe0Q6pAjYZbV/7DlsGLFYv766ovIpFNBEVv+342bt3LnvY/ToWv0ykHfYFhNjA5KxOuj6iS3TNb1LpAjYVSGOpNOYz2k1Akr/xKqlNSBkmyvWKw8aSk3XXkhejrJUKHIA+uf47HH+5mfTNGVNAP1ljCjuf340G61N0TM6j6laqA2Y22micWTaA7V8tygFzVQsoOitDxPOWUpf/aF8/GFxg9/vJGXnn+DBalUUAs1FA0jnFBR4pX7aq1aI+6kmy3Ump1TvHgSqr7j+QFUmUFJmFL1D9oljl+2gD/83AU8vGEzO15/pxxjqlowXGEoymh3dMzx+tVeRGPu9ax8B8aRQCuH9bVVWOP3k8ZnqByvDLfg2Iw4Hodsi4PFEm2dnaQVSFs2WV0vF0DksG6k6jHpnNO7kSeLT6e0sZMX7WqGGndUbgysFeb+8jUZY5ryJglFHS0oj5swqfY++EbeLz91FjRNJFCHrv9EqPEZgKiDGv+G6G68yAmNayn7dYVZPxs6O7C1q3+8IO3HOqt+CFf+7lpoM+Pt49EBiKqANmHNkdlCrdvaq7Guql/heQQx3jIe59mnk7xmropTTQGl0WCPaE9PYp3FhOsV1azgUNtqjvaslmqrLncXYxcVY9uQYa4J4Y9fIZGOv+LXR83jHzow68UEa/Luor7qP2mXcop/+PWTyuiQt7w+X5flLmem2lPTFLMFWAtI6rJgq1zu8nt1W5C1trCpEZ5qhiCp2+q3owuy1nXJ4NrCphnGWH71VJsAMjpGlwyu+6LW1eb2s6+e+jW80hCYY4taN3LZ9Y/JKuHjl11vxsYAH/F17I/cGIAmbV3xEdxpofLWFdERbq5yHfCJRm+u8iHfC2T6zVViUJcDNzV7+58P0W41Mt7cU9X2PzGok21QpYUZVVOt4Rzup+SHGZAT26DqnXCDqnuq2qBqAtiOSbZQM/l4HMVJtlDbP9kb/h/tMKUZhBcaZAAAAABJRU5ErkJggg==;" vertex="1" parent="HNUfWQM4cpFcuZbpRHGg-53">
          <mxGeometry x="90" y="220" width="10" height="10" as="geometry" />
        </mxCell>
        <mxCell id="HNUfWQM4cpFcuZbpRHGg-57" value="" style="shape=image;verticalLabelPosition=bottom;labelBackgroundColor=default;verticalAlign=top;aspect=fixed;imageAspect=0;image=data:image/png,iVBORw0KGgoAAAANSUhEUgAAAFQAAABUCAYAAAAcaxDBAAAXlElEQVR42uWdaYxk13Xff+fe+96rpbu6e5aeheQMOaE5JMVNHG5KSMmMLQhBjMiSEwiJYSAJAjkfjECOmcT5EgRJvgQgIgdREMQRoAQIDEOAacGITUKxLEUJaS1ukiNxMRWKHA4pctae3mp5y70nH96r6uq9eqUDvcGb6urqqnrv/879n3P+59z7RFXZaHvq3LmjwD3AR4EHqv0UkPDTsaXAReDlan8JeOXpmZmrG71B1gP0qXPnEuDvAb8KnAYiwFWPBpCfEkAVCEAOFNXjO8B/Br7y9MxMuiWgT507dzfwT4GfA45XQH6om6w6ww95K4BLwDeAf/v0zMzrGwL61LlznwW+ANwHjFfWeMCgyQ4Q1YMGOwCLwHng3z89M/PMGkCfOnfuLPBl4OGD4Mg1AMoeDdCDBTgFvg/8g6dnZt6gb4FPnTsXA79eOZ1kP0EsdwHp73vIyIMvKD+7/LevhJ9UmH2hwnAwpD8L/ALQ2D8gV4F4UDyyCtx92BoVdp8FkN948MFJ4H8Aj+61A5L+/7JdGtjFaB/pD3Wv6aAAvgP8ggPOVma75958wGQ6GsD7ynn7A2R/c1WsftZUP9iDCuo+3NhrX7nGAh81wP0HBSirLPbDAFX2F9AH+oCaA4SzHHj6YQG7b5Aa4H5Tcag56NPSA7JWOTgrNX0OHf9Qc3M5iAu3+jvXhlCyN2cybvhp3QagCiKDSHnXycCHCqj+RQBVVicBfV7YWSpgPtzz+QuqAsrO+dbttwWqauXZy59XgFk9lyFw1+W2dYCXA0RXtpEQ7BugoQIrqFKo4oOSa8CHfnotGKk4S8qhYgagymD0GRFEFVnlSHQUP7fBRVr9t7qVterooLp9s8zKIoNCHgJZCKTek6viVQc8ZYYsVVUxYrACrnrNyHLKamV90IfTWhnCUkQwCNbIkBBVcaNQfa9szeYVqKOw/r5ZqKqSh4BGjnprHEEJWU5EIC+Ubu7pFoEizym8x2hAgg5ybtHQx5mgfepQREz5WIHnjCGSEjQrghNDZIXEWmJjiIxBQ/ma6Vu5rLLgIbB0syxrhLDZ7ROa1ZAWFnsp85HlxG238Pjdp7nt+BSNxJEbyCUiLzKWep4rcx2uzs5z4/o8c4sdrl6b5+q1G3SXlgg+UBRFeUbBY4wBAYNAUCyK9SUcVgQLxEZoOksrimg6B8Zs7AT7KCtbDO2th778xoMPZlXxbdcWqav4LaiSeY9XWCoKrmc5UyeP8NA9t/LRO29menqKiakmtXqdpNEgGh+ndngCxlsQNwBP6EG3nbG01GN+rsP8jTkW5ju0O226nZSsl9Np9+gs9eh2u/R6Kb2sS9ZeotdZYuH6HOnla5xo1EmsHVjq5lKD7vT1fFNAR2GNoDrYdcBRy6PK67Jj6nnPlW6PxcLTHKtxZGKMm44d4pYTLU6eOMKdtx/n9KljNE9Mo0eOIM0aSAMxERosiAMSlIAWOVqkaCjQPBCK8jHPCtLOIp2F6+TtLt/+znm+/F++xkfGx2nG0cqhv8kI080w0A0hzd0IbLylVQZVut4TBGpSDi1bZR+2EulDUCIjHKvXaOYFC92UP59b5OULl3HOMDGWcPPRJufOTvORW6c5OtWgOdGi3qzjTYRxDeJmi3qzSX2sRdIahyQGJyAGXFHqPQuztK++j81SXvnhBb7yO8/i83wNIIjsIlTaGBe3pXy4ufUPrG8xzzGHp2jPzTNlIxBwVqrsQYiMQQAripWIurM0o4jF3JOFQOjk/PjiAu9eavO/XvwJR8dipqcSbrt5gpNHW9QiS154jHHEzTEmDh9i+sRxxienqI+P4eIISbukly4RLbb5wWvv8aWvfov29QVONptYIwPLChXPykYh2CqvvgaGTRyU2yqa22rY+8qbd4uCsWadsYkGl390kSONOhJK70sVTzpjMKoYKZ1HbAwTsZIFJfWeng/khWd+tsP7V5fILyjm/GUmx5ucPXOUR+46wdnbpmk1amQIvvD0ltoU3QwrStZbgl7KS69c5N/9zje4Md+llSTUI7fiHFSVsCKMWgfYCrSNEVj/925rcbs0/40Caq3406tybXaOv/M3/ipfeeMCzcLjIsHosncd5i4xYFSwKE6U2Ah1G8iD0ik8wXsoPBZlaXaJ5290eOGlCxyerHPmpkk+83MPMn14Gt/LaXcXy89B+OaLP+Y/PfNtFua6RIA3kHpP6j0GsGLK2LbiUrsqU9soHxvVSrcOmwbm3386TNglQNYYBOHGwhInD09w801HaF+ao2ZtaY2UAXo/9rMIIoqoYhQCghAQY3ACsTE0nCULga73XM88S2mGFyG9vEBRQH1sgjip01lokxWesSTiT15+h//we8+zeKNdHqkRjA/YvEApP9eJoWbLz4+MQSu+N+uBOkBRRpZy3Egi5YqcTwYfr1KRu5aBdi/NiQycPX2cb717hfEoIjKCER3IZFIp9kJ5EqGfWqpBKms3KgNKcCJ0fMAaCBqYOHqI3/z1z/H4ubOk7TadhSXipM4rb/+Er/zhC8zPtxEbQfAoSqHQ9QGvBa7icWdgLHJMRBF1WwLrEAy6VisdwnItrGt/47Zdy1onoe4LGLlXEmf5S6eO87VwnsOFp27tiq8ciB1D+bmhtFIjy/ThQ8nPhSq2Um5bx6f57d/6AnfcMg3tNmoNrdY4P/ngOt87/yaTYw2OP3IPYhMcJdXE1mCNEItgbQWc8eSh4I3X3+RwN6cVR/iKVe0GYsy6VrrOsHd7FcyDUgRPM7b8zJmTlWV4PIpVRYeGlVTPh/N+kZJTgyhGy6Y3o9AtCtp5zrHj0/yb3/wV7rj5MCwtkmceK5axsXFOn6nz+X94M8lUi7jRJKjFK2hl6WL6bGMxPifvpmSdgq9+9Vme+72vU3cWFYOYkprMOny5sZVuOeRHF8Z0RfgEIobEClOHDnPo0DjZfI8ilE5Hh0BFlmlj2MOqMOBUFSVDyLwnHh/j83/7SU5NNrj06o/xqkRxjI0cUexwScL01ATSqEFUppk4Wx1gqAqClSCSC+TQy7qQ9phNM1rW0YojrAq66vy3Zs+Vf+F2YZ4rkPWqaAhkacbR+DD3/8wZXv7eK6QhEBnBK6Xliawrs8mwSoUOkoOatfREufjOe7xtclwtRuOIepIQxQkustQbddJOl7hRw7oYE0fY2IKxhIpacCV/5p0uvRs9unOLtOfbLBWBTlEwFkV4VZzqiuPZbu7otsWfG2DaD/BF4Ppim2M4nnzoXr4/8xqdwlO3pULUV402EimGpTiD4IwwmcS0Ox3+2x+8wMzp43z8npu459Yj1FtNityRRwl52sYt1TFRjEgMxiL9cY6U3xkUrwENig+BLPUsdjM8UFRKlg4imPX5cqNwdJhH3c4Tz2VQqyweEeHqfJfgA3ffepLxVpOFuQXGnSUxliBlY6XdoixSCsuKM4aatUzXakgv5ZW3PuD1965z2/EWD995nMfvPc2R8QL1CVleYJIGIh4Ri7IMaNAq/67kQUXIck8RysjBBy2z0cGA000LdZvh4nbHn8sRqTFCZB1z7RQfPM1axB23nOT5q7O08pyGs9gRG1T6gbYFEmNRB7YuJGnObJbz2oWrvHLxGs+9eIHPPHKaj917hlqtXjoiGzBigMpK1YCUoAqlpgCC+jKCCH262kQP3Q6P7phDV0Nvqszj2lybIs8Zi2IeuPM2/vjPzrOU5UwlMc6YkhqGyh0bfXb/dWuEGAPiMGJIrGEuy5nNMt59/wZf/qMOX3/5fZ74yE08evcpDrUmCFFCEFfGo1hEbAVWOfxRLTOxUJVp0OVGlup1dlhA3J3ALOWVEelnS4H5pS5FmmLihAfuuhUXRaWAEsrdig4J5hs3gvfjUyuCGjOwECsRDWc5lMTMphlX04w33rnKm+9d57mZt/nkfaf52H1naI2NQ5QgNsGYAGLQKuNThRAC1grGlvGqjtz1vLm97g5QHVLDKEOeTicj63QJY2OcmJ7kxNEpupdnyYInUYPX0pJDZQnD1U5Z3dVRWb2rvJ9BqjRWBinkROS41su4nmVc/GCW/35tkT/+wTv85btP8fDdt3F4rFSijIsRG4OUaXIRcoxoVQRcGbTsZtt1CUSHcnuL0ksz0m4PHwpqScJj953l2a+/QCf31J0jqqx10FcwBKqtgv5hB9WfwyPGlLqAEWwQcgngYTyKaDjHUZ8w20u5lma8/f4s71ya43++9Daf+MgpnrjvDBNjTXBJ5bAoL6wxqA+YaMTu9BG8tNtpyNQf7gzYCQxK6gNL7R6h8GjkefzeO3num99jPs9x1kAEzgSCQq8ocEZoRKWS3rdIU+Xcy9rMshWHQTW03IsQyvjRCHVrOVRLuNrtcT3NuHJ9gT/47o944Y13eez2kzx812kmG2M4F+Ex4DOMKJEYTKWp7aj5Yih0crul0H4/kBEwAkVQ5pZ6FGlOnMTcfvokU4emeP/SZTrtgmvWYUWIrOHY7bfSLQpmL77P8VoNnMWtmHuwkg60smADGGtLJ1fV+4sQsBIwAkmzwXS9xkKeM5t7rtzo8LU//RHfevVdnrjrNI+dvYWxRgNXZCQijMfRwAnqhrn8gTY6LKtHRQgsZQWdbsZYq8XkWMLtp05y4b338SJ4LahFll/65V/il//u3+Sdt97lnz/1r7ne7nG0UQcjlQgta7Opih7CkNNSKxgVnAiFGJwpwU20jGHH48B8XrBgC7qdjD85/xavX7zMHadO8JPZeaZrNWrWVsax+4kNZoV/0Z0GUDLgxCzL6eXK7FK3PMEo5sE7byeKyrCpbg1//dOf5PO/9iu0mo7bT0/z4P13c6HdYTHPqkA7DJzW6tjUVCmpFcEaU9bijSG2lsRZatZSc46addSspRU5jtcSzjQbnG7WORw5OvMdXnn1LdIrNziSxGWUImVmJjt0zrpXzWKDYV/VydM0JajQ7nmW2iliLI8+cDcTrXES63jkiYf5x//kV4lji0VpxAlPPvYQNkm41OmVbTtDVdSNsilTOaxhgAfAWktszQDghrOMOcehOGI6iTlRr3G8VuNwUiu1UGOIrC09/mYVUd3nIT/cgFHGjJD2MgrKsKjby8l9YGJijEceOIsvAv/yX/wjGo0Eej38Ug/NlHP33sUdZ07z5us/op0XRHEpVBjVTcoTy2lqX8kaKFh9kIdK3P2LlKxKRly/1iV7M0ls1xw6DKoFsiwl9x5sxGI342jhmTo8xa/9/c/RHG/SSiL06hzZQg+fFqhAzVp+8cm/wpfeusilTpeGs4NYdcsa+hbA9mtedtjidfmYXdVRYkb28Lo/gMqaTKf09HmW0csKJIppZzmzC23GMIQisHhlgezKIt32AqFQxlstxscbmMjyicce5Jk/+iavvf02rV6PE40GplLrN1OoRgHWiAzSSl1VOZBV1c/d9qy6tejLqDy8In3sS25ooJvmiHHkecaVq3NcujxPt5OCz4kiQ0Bx1pKmKc5NUzcNxhs1PvnxR/i/773H5W7KkVodK6XUhjHbmvezGtjhcKjfo7o67V2TpW2LOnWtl98hB68QMowRQgh08gIrShK5aigpmEDhU956710uXLlOptBNe8zOzZPmBZn3PPnEQxybPkIQoVMUy0pQtW/fYcrA0ZihCMEM1bIGjkhG9/A6Sti0m9CpBLVKHUXp5Sliyk65whf4oouTlE5vkW/92Q/5Py+9WvKssSx1MxaWOmRFzuHDUzzx2DkS67jSS8sG3aopQXfJ87Iq9Br26DIKcLp1yLSrsEmGuHPAoZVAstjuYnyOkYAPGUXeo91Z5Nnv/5AfvvM+r737Aan3FKZMHTudHp1uRlF4Pv2pjzM2OcFsXjCX5VUFNKxpKd+/TXY1Zs3OBvqwYxqKQ6uO44VuB9SjoeyQ6/ZSfv/587zw2o/p5QWFddRqNYyL8EAnzUizgizLOX7kEA8/dD9iLFfTrAS0H/Yc4MwR3QF/slezQPpt1v2h1On2MCHHqSf4jN9//iX+9/k3yDKPMcJEPaEx1sBFDuNKJ9XNUrpFQeo9f+1Tn2CyNcZiUfY79fVL1T3U2bYjJ+no5mbWfa9un5v69WwBsjSD4CEEnn3hPN85/zq+CERSdmckVoiTGGNMCao15HmO9wVFKLj1luM8+ugDWDGllVKVK/bdQjcTmXVL/tzEQnWb17WfcQgRkHa69PKC5198jW989we4oDSdpWGFCEUM2NhRa9RwVX0dUYqiKBlMPX/r059isjXGpV7KYl6UGc+Bcuko1qmjcOj2EnmpZqNZMdRMmTP7bo/f/fp3+Nq3X6TlIibjmMnI0nS26nwzJEmMiyOSWkStnmAiS5pnpSgiyqmbjvLIow/gg3K5lw7acrzuzyICOrTvxsDMhm/fxlGbahZGYg1H6jVuSmKuvPMBx5KYY406R2sxrcgNZmW4OKJWj3GJJU4ctUZMc6yOOEO31y3VJhP4zGd+nqmJcebTYsClfSVqr6xUNzvVzaxzg4Zbs3XBaDQOdWKIqzr6ZBJzpF6jlSSMRY6mczScI6rksSiKSGKLsWCcYBzY2FJrJKgEQihQ9dx26wke/9lHECNcrzx+0Gqazd6O5nVQ7hd3dFvvNpt+mTLSnPb+rDhbqTZWyhbwxJStgpEtLTM2Bitli2LsFGsUYxSRgLGKseAiQ573CEWO+ozPffpJDh2a5Eo3Y6mouHT/1g5Zd22SUa1zBA7VLRcKGHR6VGC6Sl+MjSGugLSrROE4cRgpSxZiAsYEjHhEClRzfMjJ8h5pr8v0oQYff+J+CgJzaVbV0Hc/5HUTq9Sd2/ZoufxmoPbBlKFmhz6ottqdlD2ag+Ka8RB6CBnGFAgeJwWRFBjK50WW4rOUvOjxsUfP0jrUolN4isrTs5ch1CZAbsc6tyXfVQ0sy22Bw4mark3cdEhsMEZw1fRAUWWp2+Pq7FXqsdBNM9LMk2VlttTplo+IEMUJtUjwEnPm1AnefvVNfBiKFbfd4SEbLDU0Ysv3CN7abXeYrAa1/ztBBq34MnTll8sUpmpr9Fx89wr/6refI9GcXtqjV3h6eQFiMGglAypWDGLLPiX1UFRdKjtTLGXbDmZjCtxDgVk3qbLKOhEAVSkiMmWcOhnHSLfH9dffRjWQB0+hyxODtaKQfqnZUPX1a+BYnAzmO+2lE9I9/Du3/essI9OBDvXSW1HqznJM6jRdGVcWGvDqBmWKMORo+tzrTJmFlTM33KBkIduqn28w23jUgHsbgbnb0SUd0UaGazvGGCQEsIZxccRGS+sMYaj7TVc4N1tRhTNCbCyRkUFoZkR23Hy5nSG83SXe3E6Hyeqz6R/yYPbZKj41QDAGG5bnI3k1eA19uh0ctumvptiXBKFcmMDIaJNfd6VM7AD0XXPoOsN7o9f7a4sMVm6opieGatKXVbsc7Q7Ve2RFN/PKfqY9AVP3kF93a6ED0DY4tbXWWvUkrZoMYKqima6Y/DgsXsua0oVssrDLyHiNwok7rAe5ai3hqe3W+LVcb3jDE5M1B1darKkqkVaWQRzOelZfpjX9o2xcndw0SNJRdc9N58NvBcmiA94AHtnJCo0DUNdZ4GgZGF2uOq3Dr6NYm+zguLZ6onvggFZtAfhzU610HXatcetW0tjyM9Fq30LBGrU1RtfTMzd4ovsDZh/Q864C1O9m3ZFRHBVDFjt4pmvNcFceWTf+xSicukttwPcBfal6sifVmNXDemtg1wF3q/Guo6N6AEAOA/qSqTj05WphZvYK2K2W1tBNB62O9NJmL+rBgllUhvmGeXpmZg74EnB5N1y69jS3XsVWN63l6Aj7qJ+1U91zZO68BPzHp2dm5vt66DPV0uudvRa/t7M8sO5iH+3D9xTI/tapsHtmIDA/PTOTAV+shn66H1WFZWD1YNs/qu/U/SmbpBVmv1VhuKzYV/ey+CLwXWB+r4b/+ha4Clzd6y9YCeI+ABkqjL4LfLF/HxA2uP3PXcA/O+jb//x/dLeavPI3W9/+ZwjUjW5Q5aqM6kCXpv0Q76ekVThUDN2g6kJ1g6r/OtINqlYBe2SDW6jV+OnYehvcQu3aRm/4f8svll3Pt3pVAAAAAElFTkSuQmCC;imageBorder=none;imageBackground=none;" vertex="1" parent="HNUfWQM4cpFcuZbpRHGg-53">
          <mxGeometry x="90" y="160" width="10" height="10" as="geometry" />
        </mxCell>
        <mxCell id="HNUfWQM4cpFcuZbpRHGg-58" value="" style="shape=image;verticalLabelPosition=bottom;labelBackgroundColor=default;verticalAlign=top;aspect=fixed;imageAspect=0;image=data:image/png,iVBORw0KGgoAAAANSUhEUgAAAFQAAABUCAYAAAAcaxDBAAAYAklEQVR42u2de7Bd9XXfP2v9fnuf130JvUCAZGSMEE+BwbFTGPB4TOwx2FMISWaaaSdOpybTzjRpO23+SOv+0ZnWmWmddtoZmrROk3acuvFr4nRSbGPHyK7cxpYlMCAsYx5GoLfu8zz23r/f6h+/fc49EgjQlXSFi37M4d57dB6//d3r+V1r7S1mxunWnQ/tWA/cANwC7Kgfm4EGb481AF4E9tSPHwA/3PnwniOne4O8FqB3PrSjAfwa8AlgC5ABvv6pgLxNADUgAiVQ1T9fAP4j8Ic7H94zeENA73xox3XAPwY+AFxaA3lxLa8KOAg8Cnxq58N7nj4toHc+tON+4DeBm4DJWhovrlevCCwAe4F/u/PhPV98FaB3PrRjG/CfgNvfRjbyXNjYvwL+9s6H9zzDUALvfGhHDvxW7XQugvnmV6PG7DdrDEcqfT9wL9C+iNEZr3aN3f0Acscnbp4B/hz4uYsO6Kwc1XeBexXYVovtRTBXvnwdq2/T+hd3EZOzXg64RYGbLwJ6zgDdMQT0Yrx59kuBm4c2dNUAlfq//08B3aZ1RiSrBeZr/f6mMmp7ywMqwKRfTcl8refsVKQMxtNhs+H/hm8SREBElg/jLebuLwiYrwWiDX8GIwYjVhGL6XnRBKKooF5RFUSXAWYc5DexHztPIu8vKJi1KkezBFxMQJb9isFiSdGtsBBrwRQQUK/kLU/eyXC5oi6BLCqoLr/uQoHqLxSYZoZFsGiEkCQxFIGyH+jNFQwWSwieyclLaLcm6S4u0O0u0Kv69JsFrekGzYmMrOVRr4gYOEVcLc28NrCn2vFzDaq/0GDGYMQy0p0d0D0xIJSRmam13PX+9/LgfQ9yyw23Mj01QywrXjzwUx777jf56s6v8cyPn2L2wBwikdaaBp1LmkntERQFsVeBuhrRhdzxiZuLmolfNTU3q4EMkaqILB3tM/tyl+n2Gj74wQ/y63/z42zfei159mriqwoVg6LPcwde5E+/9CW+9OXPc3T2FSY2NJlc38I3FfWK83qSXT3dns6xhJbnHNA3koKRrYxGKCJHnpunmIvcfdfd/P2/83e59cb3oKLLdvM1pHv4fBUqnnl+P3/0J5/hka8+wqLNs+byFr7pcF5HtvUN93TuQC3d5tsu/afnKvV8w43X4c9Q3YulioWDPT58z738y09+kndtuR6nLnnz03js8edVlXUza/m5d7+HNWs38th3duKahhtFAelz3mhf59AURF0tyTzpNXVoVA4CPlfef8dtrJtaj0g44wheVZloT3DrLdeS5VAVgVDGdNIMxOSc7f/NpkurAuZ4oG6QVL6KiEJ30MM7S56aeObfL0qo+sRQEYqQzAqG2Pk7jvMG6Io2YcvqGw1+9Mx+ROIYmHZGHyZEThw5QjUoR8nBSu3j2YK6+iyT2eiA1QnRhD1PPEmweSCMPU6V1EH9/KkrABVP7dvHoAyjtHTZvPwMpZ5nezbFKRi8cvAQB18+wOWXT9VAOiDw+Ev7ePSpXfz4yAvMh+N0pMEtG67lgbvuZ13z0vq1htFj9+49iBjOJ6dGbVpEVnZcK/X8q1/2GMaFklJFBBaWlnjqR/vYtOkqRBQwjp44yr/789/nxeoVaILLlAOF8cKzh4lN5Tfu+htADgRinGPvUz8CUUQVEUlwXACGSs+ZdI4Ijlql7TQE11joIyqoCFUVeHLf0xi9WrVLFnpznKjmYFqQpiP4iG8aNgGPH91PZKF+bcHhYwc4eOgQFmKt8vVXyRuRMXZa0FeqfWcnoVYbfau9d1y2jzKk2XRZIsfVSARUBZcpsYzsfnIfZl2QJuDIyDBRtAleLB1iMCgqjGpkZ80G/OTH+xkMBjTyPOXxKoyyzrE9jqIMM4jp+fF9ngtK0K9YOsfBrDOfWEZClTIh9ZICbK+IgMkYrynLEuubjlgK+/e/yOLiHFOTHhFoN9o438DpEk6StRRS9tN2Wa1aCdifPPciKjqi94ZmxQyIlv6u6cFYRUIZCSHiXL0/BXWKurHjk5XZUr9y4UxgxmjEKjFFvfmCsmd47zAJZE2Hbzh8rohLpGU6NlvGVtMJOT47z+GXX2Fq2zQgtPKMhjh6GKYg0UY2ctK3Ro7LKDnwykFMxzjVGIlBMYu11KVAvyoCVT9Q9ivKQcR7T9ZWGhMZMQRcpqjTOhSTFUmqX6l0jiSzSgTH4tEB3cMVf/3eB2hPZzz6rUc5fuQoRsQ3Hc3JDN9wIxNgZoQyMlgoKboRGpHDB49y9bYke3mmtJxnzlIIZDWJjHimdKr+I8WuRb+ECNUgfZ46QV2sJROqQWCwWFJ2K0IwOhNt/tqtP88tN97Gf/3sZ1nsH6c17Wu1N8QlyRzWv85ESv1KpdOMmlU3im7F4rGCD7//A/yzf/QPyPMJ7vvQx/jMH/8xjz32GIuHT1D0Shqd/CRpLbolg6UKInTyDnk2jeDAFKeeCZdj0RAMQUdqOJO1IERwgkrG5k3voJ036FtgsFhhGC5zCfLK6C8WFPOBdqvNdduv49d+9W/xC3ffQ7ORsfXKK/jtf/E79E7UJ0LTyRva4dVxSgY2JIXLSPdEn41rZ/h7H3+QyYlpMj/B+258H7d96nb27nucz33hc+zc9S0OHztI4YoknbWZUBW0qdxw3Q6u2X5bbQMAHJOujVpETZIjEcOsoqkeQgnaAGnzgbs/xGPf3ce3d3+fXn+RUFV4HxFVMp9x5caruP1Dt/MrD/wSt974brxmiUKk4M47buPWHdfylzu/h2tIzVK5FfulldvQWkJ78wXdE30+9pHb2XLlZjIndaOvkalw6/Yd3Pjb17PQW+I7u77Nl//nV9j7xB6OHz+Oo2Jqcoprt76LT/7OP2f6kvUQT9S8DXS0gQWrKeNa9dQIMVIsdMlzoJWzees2fvdTv8s3d+7ih088ycLCIq1Wk61XXcVN22/muu3baLdbqOpyuioljsBEw/ML77udxx7bTdkNxClDoyUplTOXUr8i7z7kM6tIf74glrBl/Ubyqk/sHUK1AeIgU1QnyX2TtZM5H73nPj56z30YRre3RKwGNLI2jVarPglLEAsISlVaUmlALfHwYJgKsYLFuS7trCIvS3Sqyfo1m3jwvvt58L77X4fyK4EeVs5SlBVlWVAszXLZ5DRiEKpAqCKapWhiJXbUr9R+UjukaKA+4/J161k89jKD4wcpehX9fkFzaorpTVfRmF5PUXlKhIbP8TSYaE/WLQHjjEnEBhmUgSpU0BBccCCCR4hmKJF+2aOoHMSIaxkaIvhYZ1mnEJRVn1LnEe1TLp5g/sAh5o8fI1RlHQt7GibkmlOFAaGIZI0U+iUxXQWVNxtKqCECnXaLtTPT9BYXWAyw1C3p9gdw/CiX9iN9/1P+9Ilv8Nz8K0y0W8x0pljX2cjlM5exaWYDazoTzLTbNHFQBhYWu8yXS/S1R64eE0MAZ4pqYM6O8NLxl9jQ2UjPC9J7iV75AseW5jjem+NY7yiHeyc4uHiIo0vHaNLnV66+iys6G1iYX6Db66NEvCqNvIGI0swzFhiMtE9rsybn3YYOQyZbjtMnG23azRZzcz26g5KigrKqaDhHGMD8whzPHnqWwWSg0h6zvcP8eH4/2UEHJagomQjecgYYkkGjZSzlJeKTwikpQDeF58pX+NyBrxL6Of3QJxYlJiUxlgQxLAdxRgQqgYXegONHukyXXRaXugyqCmIg844qpjK2VwfIqJqwqpmSDevodUPC9FQbxbGwOGBQVUSDGCO9osIsI1hJ0ajQtiJZRFVxLSVaxDDKWFJQOzMBy2CQRUwMX9cxl9NCpUeXXliCNlgQrJ2yIyWlZIakcMtSedm8MVtFymCUldHvDzAzqioQgxEimEVQW86wVp2+G+bEIdJqZIQYiCGMbI/FmAaaIsR6w04FUQM/llNbYtwT/Zm6QcyAIPjha4fUe0yAJjtu2JAeNUFMsJHzMVSWdVa9o6SgqgJVFQlVrJnUSKWRGE8mSszsAgBan8oIVBYJoQKxUY1jyNZUViLRcJohogix5okFNcWIycFZTKBggCbgAa0JDDMwNYiKARUFIaZMScxjokkiVbGYtkLUpM7UQT6RdBZikmIDsTi2X1smTmyVAD3piyTRb91+iVmSClUhBlARnDoGZZe84WjnDeaLJZrqCRZH5EgwRYLDohJjxGWCSf3vLgXamU8gRQNi8rxZJQyKQBGMgKTMSLX2zIEYQ9KOADrImO50UHEpkQCCRWJ0VNEQ53DeY1UtnXISdXseAbWTuc06Vabb7YMYWe6JVmEiiPd47ynjgExbbJvawuNzz6LBk/ucyUabNa01bMwnWJdP0xFPZjlBK6JGjhc9nhjsY97P4lwEZ8QYiZWwMW7hjkvfQwulWyzSLwtKK4jBKGzAkhbMVYscXZhjrt9lTXOKqU4rsUpeyTKHi+kAvFfEK41mji1cwBKIqKRGLWBpqUco+nQmJwBHDIJ6h/oM9YZScdema7hlwxZydUy3O3RaTTL1uKg4XM0oeUqrcJmjqhocf2GepTiXyhqAaUUYZFxabuRdl22hmQsxDqgokKqkCiWlDQgEsECxNtDt9+mXFV4VseTZtdXE6vJy7gVxbjnlNcYInNUIm4Y5U00gmEG33+f43Cxr10ykA88U0Qx1HnHgJdBseNZqhs+yJMFxgFpJUQSshBCMfjVIKp636bTXJuYnRDJ1iDqiCUaGU+hVcyx0Z1lYPIZZIJeMZiPDeUsW0iLehIlM6DhHJFLFiJeheQGzgFOjiiXdbq8G8+xaTv0Z4jiyLakmlFjugsC+lw5w47YtSDOdbVUHquAqRCJRwaIgmsKlot/HyopBUaIRBkVJMPDNHOcznPPgwQXFO4fiCBIZxAAZiA0Y9GYpuvMQSgZSUYUGueYAZLkjy3LEhAioRLwDVAg12RKjIOoYLC0yt7QEWVxu35ExMyfnUUJlxEsmCc3bjmoQ2b3/JX7xHnAOnAqZA1ydDYtQxMjBI4f59q4n+Nb3nuEnB+aogrB5fZtf/didvPfd2wllQJzSabdpNVuoKQ5Pwzm8Uyo8fSJtlzHRzJEyY6I1hcWSpf4CTz7zHE/sP8SxuT6tzLP96nVcf/VmNqxfh/dZiiiqiBMlWMBMEOc5+PwJFhe7tGaGDL6sjoRaii8SXSCCeiHvZFRF5Af7XuC5nx7i+msuT2dfjcwLRYjsffJZvvDV7/Gd7z3J0YUljMSMi3McefEEL/zRV/iNqse9772ZvNOmMz2Fz3JiUJwqrWaOFygMNEaaPqPZaUJsgnfMnTjCFx75Ln/y9T0cOzFHrBOBxjdgcqLNTVdv5sN33sj7brmWyXabqgopVjbDKNn1+JMgAZdnyS8MC3214Jx3ghllVIfJmo687Zk/0uUzf/Zt/vVvPUDWbNCtIk//6Hn+zX9+hO8/vZ+i6uO9J2/nuNyhziUudb7k8LFFPvvILm5655Vcv2EDrpEh6qgGAd/xtBoeVcNKcBQ0m4prOfLQJmjBcwcO89/+125OzC2i3pHnnqzhgMj8YMA3d+/j27v3s/XKy/jFj7yXD7zvWqY7TRzw0yMn+IvvPklzOqM5laNuDM3VIphlWNV0qV6etRzNtmfn7qf4/Ncu45abruZbu57mD7+yi9nZebKGp91u4xuKy+veTaAqjEHXqPqRgwePc/D4IjvyBprlaOapioCf9DTaHsGIojh1qBiu4fBumigFLx+dY7HXR70jayYz5BuJ+fdZxGdKKCL7X3qZf/UHX+YvvrOVj3/0NjZftoHf/8Iu5gZLdC5pkLd90hxdWQy6Qhs6LBGkor46weeO1kyOSMHv/fdv0v7SLo7Nz+MyZWpjB58rLlOcP7kq6RuKmdGfK7EYmOhMknfWoo0WASUOShq5I29mGEZmJbl3OOfwzuMbnmieQRRCGXENpT3doDGRVHdkqqJRlZGqHxksVex9+sf8w2eeZ6LZohtqMFs+FelW04YO7eiyY0oTGT4f1tmhWKroh4LJ9a0kjVmSSBmzTcMafghC3soIg0CuGe+4YhN5awJ1bQZBqGKJbynaqE9AzPBNQ3zENxvgFfBMzkyBgfOpgpm3fD0hspwCZ9EIrUjecZQ9n0gRLZlotWh0PFkjATry8iqrV0YeSilqieHJdNRg4BsuBcTCWJ2cUQNsnTITQ8RieoQycMn6GTZdsQXJWqjmhFhRVl1aLSH3SrBIVkt5iH3wHsQhBpsu28QwNk+mqA7pXN28YIZEQ52QNR2NTmLJRJLJWj7p9VTJWTQ8rIy+k1pKEVBQD6JpMzGkvHs8zBrFdVpTEHVsJ1VSxVBENm9cz9Ql63HaBDLMSgob4JsdvChOBLNAGQrmi4VUYsEjolx55WYaeY6pjTpSUp99OokWE6CjmHLU8iijsZzReI4sC8NKGsZWzjaNnGACVUQwNdRxcs+QyHL2MdbBMcy2QhHBhK3v3II22qPu9BBKnAyw0hNCA1VHr7vEyy8dYePaK+sPT6Tw2g0bWbd2hqO92VGM7LycZA+1njwZtuXZWIIyHG4Ybx26MPSdLHv8uso7aoE9KbkSGdnOYZFvCGgMhqjj5uu3I9IcXR6q3ehwzdrNPPvUT5h9ZYmiMo78dIFyrsENNw8vjSKAMjU1zdZ3XMHRp+eWtUPlJO0wE9CUaCyf7DGtluXsKJm01W5nlOUeIDNblsDXMj2j1xoWRzpHDAbR8OK4+Yab6vZEByi5m+CBe3+dg4cO8fKJl1jod5nevIZ3XraVNZOX1N+Smm1Vcm599w381b6nU399qEVQx8cWayL6TR7TBZHQUZl1PAi2V+f+oz9NRmI8nFUSgfZkhy2bN4+9IYmZdxNcsWmSKzZtG/uUatRoO/wSM8ett1xP/j++SKgiYQionVJGPnWP8joZ4Wr3h75+1P86mx22PQ5ZcRGuvHwT7YnpU4Aa31411ip+KhIpPrrm6quYnpykKmMaun09yl3O3xTzWQO60rM5KvSZsf2azcRoY4Pxp4q5nnKmxoJ2CxiRS2amuHrrFagum6GV1IbOdgjsnEjoSjaRpoeFGIxLZmbo9hcwGw4rhNeQVk4BPDVGpNmmSDPPuPLyDaiSIg3sjFvCz8VE3TnrsR/a0zcLpghoJrhM+OJXvspkS/nlBz7KZZddhUgTkewUKT0ZSAhJOm3AwaOH+frX/zdf/8b/RRvL4dKZeOpzNZ64urOedYNuyq0rYmH05gbMvrxE1Yusm5nhYx++m19+4D6u3X493k/WNXk35qyMGHssLh1l7569fP7PvsajO7/PXHeebFLpXNKkMZHh85SXpxZFXRUwz8vw7OuCWmcoIdaOozKqQaS/ULB0oqBYKohmzHQmuG7b1fzSfR/hjjt+nvXr1iMoc7PH2LP7cR751l/ygyd+yPMHD9IbFLjc05zM6vn5xDSlbmR5wwHat/w08uuCOhzttjTanUBNrdplP1B0K6pBpOiWlP2IVtBptZiemsY5ZW5xnsWFJcpYoLmSNTPydkZW03W+6Wpmy42B+foj3uca0PM2p/SaNlWGzw+rpom+83lqFXeZUvVTr7vLE7hLVZfF2e4ou9JcyLPEXeZtn0a5M01DEkOSQ8c5YlmRnb/gTunNgjqkxFSF5SxRRjUqdYmxak5maWJjdDGXOkfPFF8DqE4Rz4ge1DHq7Y0Y95/Zi7iMgzpekxpdSMANpSk1dqkK0Q9jVDe6YMEo66mBoya5xdXAjqn3iOh4jTTSzvN43aqMJp5O/YeWzWpeVVSI0ZCwfJUcc6cSLWOt2spJFxpAx1gjkQtyTSdfX0t4zfm+pNRJknGSbbMRYa2WJA5nJ3XnjcrjMv4BNka9nXL9Ji4ImAYseOAZ4D0X5AqNQ0kyRqSJmkDdkTLsTHsVl1GTvyLnjiU6BysC+7S+0nW8oFuRsYsMjne+1a46zb+P/50c2ZDpeguAOQR0r68BDecjFj1jluqU3+W0L3hLrgDs1fp2DIGL61wA+gOtbeiemnS8uFa2qlown9GdD++ZBf49cOiC29KfzRXrW1n8h50P75kb0jBfrC+93r2Izxmvbo3dF0cE886H9xTAp2vVH1zE6E2vQY3Z79UYLjP29b0sPg38H2Duovq/oZrP1Vh9engfEE5z+5/twD+5ePuf01N0tb9549v/jIF6uhtU+VG7xttj2aj4v3yDqufrG1T9lzd1g6pTgF13mluoNd8mgPZPcwu1o6d7w/8DtiO2paB9uTAAAAAASUVORK5CYII=;" vertex="1" parent="HNUfWQM4cpFcuZbpRHGg-53">
          <mxGeometry x="40" y="220" width="10" height="10" as="geometry" />
        </mxCell>
        <mxCell id="HNUfWQM4cpFcuZbpRHGg-59" value="" style="shape=image;verticalLabelPosition=bottom;labelBackgroundColor=default;verticalAlign=top;aspect=fixed;imageAspect=0;image=data:image/png,iVBORw0KGgoAAAANSUhEUgAAAFQAAABUCAYAAAAcaxDBAAAdYklEQVR42uWdaaxk55nXf8/7vuecWu+9vdud7nZ76bbTccbxltg44wQSlBEeRsF8QkSDkICREILMfEACaeBDBmYiZVgCM2KSSBjsWZIMBpQYMyRxFjt2EtuxPbHj2N3trVf3frfazjnvw4f3VNWpulV36dsdQFTrdNWtW/cs//o/+/O8R1jlce8Dj+wAbgVuBz5QbPuAhP8/Hl3gHeDFYnsBeBk4+8xjn5r4BzIFyAT428CvAdcBEeCKZzPt7zb/kNV/pav9rV6NE1LAAymQFc9vA38A/EegOw6sTADzEPCPgY8B1xRAclUBHDzJJq5cx3DVq3XSGXAa+BbwWeDVMqgyBuaDwKeBXwCaBRuvGogrAZRNkmkM4KsHrgcWgZeAfws82gdVSmDeDHwJuPvK68hpIMrYy00CqpMBvorgdoFngb8DvPbMY58KV3DvA4/EwOeBvwk0ri6QZRBl7JObA3QUT10B7lUCdgl4BPhHQK8v0g8CvwzUriiYAiJSgFlsMtzK/xAz8ruNb2Zsf6WtOLYgiMgVkIaRR63A7kEAufeBR+aArwMfujIGSCYzUmSl4RFZU3/Khuy5TmTo0GDpFMZumq0Z8APglx1wc+Ffuish3iJrADkFRFnxuw06V6roCp1cvOzjKaO494mqm1cDrvDVb+6/sFcWzCkASPnEZcxwjFzZZQmkTNamw+9WwzFVxo4lUrBVNgOqBW53wG2bA1TGgBxnokyw4jJy+VfeMZMx0ZYhVVWQPqhT2aqXC+gH+oCazYEpQ9aJrLTapfeUcZau/FmuILTD/wuVIOE4fTWAMMJOEblcUA1wW1+Hmk0zU6TEjUmGR8bAZLouvSpBWQBRRxSrlIk7MFCXCarp69Dmxq+jzMziZFcBcvTE1gOmriOAl3UDOeaAjMUAOgS7dDjZuPgL0HSbE/OS0y5lERuHRtYEREastQ4vRLUksIUUiGFEZtflD5TVUrGvMcaKSgFqoRYuQ6e6K8PMMTBlVH+tPCkp2/biwjyqHvU5qhmqCupRzfE+CyAiiFjEmPAsFpHwGhnX52bEvZDinEYCqD6IJVoOmXp5oLrN6MyJzJRxKw4iiqoUOYU+Cz2iitcCSPUFkB6fd8nSZdLeIllvGdUcFIyNMDYhihu4qIF1CWJcwViDERsiJrGI9GXDjIa4oiUXTUqgMgVUNqRT3cbBlBKYQzGSEddIBo66ogWOHvWKkqM+B/XFex6vGT7v4vMeedai15mn0zpLr3sJ77uIpIDBmAQxMS5qECdbiCtbiOIm1lURcfg+mDYw14gDYwEbzl91oEd1RAVQMliTdOr6DZVbl64te+YjYIbwI0jaKAtQQVUD63xenFeO5jned/F5SpYu0e2cJ+3Ok2dd8qyL1x61SsL+63bxvkN3cdedt3DLwb1Y4LUjx3n+hZ/xwkuvcer0BS5deBejBuMSrKuQVOZIqttxcRNjIlRyxBvEuiLW78f7phDlUaM3AtoEUMN3sLrzL/c+8EivyMSvrTfL1lxKelDsSIzS14veZ3ifoj5FFXzeCaLcXSBLF+l1L9HtnEfzLkkUc821O/jYx+7jk3/1Yxy46T1UYouzJuRNCF9Qlnlaqefom+/y2OPf4RvfeJpjJ07QaS0DhqSyjaS2gySZI65swcUzWOuGkmMtIkFNCGagP9V7xEihZwujWDzrwDjq8HeTH+kagJbBZJCxKfucih8CKoAPVlp9hvqMLFum275Ae/kUWW8ZChGPE+WaXdvYv383d91+kL94/x289+A+rDFrhvQ6kgNRjrz1Lt/7/gs8+czLHDlynLNnL9Dt+gCYpsTJHI2564mTLRibINZhJEZM8BhUQdUP1Zoy9DTKXkfB1FVAXQPQcupNVoIZdHuZoT6Iuc/I8w699gXardMszb9J1rtEtZqwZ99efvHeu/grn/gwt77vRupVizH91NomsqEKufcs9Twv/eQojz3+FM/88EVOHDtOt72MS2apN/ZRqV9DnGzFuCrGRIUhE9T7EakLQDIK6oCxOpZvXRegE0RdzAojFQAtXBSf4zUlz3p0lk9i/Gn279/Otdfu5JaDN3L/R+7g5pu2Eo/F3HKVwqNcldffPsv3f/Ayf/6Twxw9epS33zoJ5jqacwcwroKRCDGCekWMKRmeMSaqX4/op25tQzTuO476e32DJKqFMVfUp7SWTnLzgRn+3t//Wxy4fifbtsbUIoMTKdvXq/ZQwIhwYP9O9u79KJ/4S/dx6swSDz38Fb7xZ89Ra+4LhstaRN1IYBVAHfdBx4zRFANlVs/YTBH1SfF7PxPeP4YKL7/yM06+e4ZKI8aLoYOQFdnYvHj2V6F61q/3doFWDu2uQa1jfmmep575PnkW9LviS+c+VlUYT6+swEHW6zbJGtGcjPiaOh7WFQe1LmFpPuOJbz3J/R++A2vCN5664bcoRc5Lp+QPl1I4fRrOn1d6uWfHFth9jWWmNpmRKdAD8sLd8R66KaQ5dFLhu997jjMnz9Oo7w3+KnY0I1WwboR3wjR9OZGlbmPslOnVC+1nc4JKMC4hqc7x0vMv8+ZbJ7nl5r1ILzDIuACgK4Ds7yoHllM48rbnuddSjrzTYX5J8HlwaZwRqlXlhn0Vbr8h56Z9NeaaEJcA7Shk3bAvVcjysO+LSy2e+PYPcKZaBAJ2QsJbJoh+4bLBMACQkls6JvJuQ0mckbByPHHsBwkLBaxNcFGd5cVLPPuj57jxhj3kPaG9BL0MIqcYI2jqabWFE2eVoyd6vHM6Z34ph0xwJkJQLIJ6IffC/ILn+Z+kvPSKUq9c4JrtCft3O96zy9JoCBIZVDPEOCqJkNhwPj977TBnTp0jiupYmxSIFW4fbhhBFe+PXreunvTSqYDKunTnysxcKRlWJDQQgxhDnqa89upPUf9Jogi6HlrLsLCc8sobXd46kdNqCaouyCqK4DDOYEQQzYt4PEQvRi157lEVlhYdry70+PPDHcRFNGvC9dcpN+y27NyiVLbFWAOZhyOvH6bbbRO7JmJscIU0R9QMQtKBMpJBsFRiaRGuTmTpEIP1J0fKSrvEUOk7vKqo9yg5Pu+R9ubpdeeBHPXClobgLOR50GlIzMUlZf5Sm7TdI4ohihzGmKAypJ/IGMsPoFgT3DV1glOH4OmlnsUlw4kTwr4dVbodxWfgamA85L0uPs/JpEuWtsjzTpFYsajkId43jCZKVjBx7eSI2XDOdqRUNAQzz3vkRYze61xkaeFNOq13MQL33X07WxKII+jk0OlBM4Hrtyb4XshECYoxYEQxoohoEHcRTLEJxfNYTd+ICR1smafZMGytGxBLppDE0KjAPbffQq0S0Vk6w9KlN+m2z5FnbfK8i2oWwNJp17n+MqxZn7iPNgsMGFqk4VRz1KfkvRad5dP0WieQvEW9GvOJv3w3D/7KRwZqYrEL1SrsmoNb9niceJw4jLFYYzDGYEwZuHG5KFIcYgaf6Se5RZTrtmZsaULiIE3DJVRj+Oj9d/J3f/UBZpoVsmyZ5cW36bTPkGct8qyLaoqqL5X0Vrn2qfisV+Qnfls61Jk+w/uMXuci25rnufG2A7joVu65+yCf/GsfY7ZiUYXzLej1IDIhNKvYDCOCqscai5W+pio9j3XmaYkJimDUB8/BCJmHmZolKtTxYgcutaAxC7WK4R/+xq9y+53v478+9gw+z3jn+FmOn74wTFQbV4BlJjjx62mpLAMqG2C2lPx39fi8R5Yu014+zgN/45f4lb/+S3g8u7dGVKwhAy7k8M670FqCWgQXM+WlwzleLcbkhfvUz1cGlojoBDWmqDAokvg+1N6Ddxw7lbF9Ww7G0urB0QxcBLtq4Azc99E7eP8d76e1JDz11I/4rc8+jHN1jI0xPgvulNEphmcNcHSK2yQrqpiM1dNlJNvjfUq3dYZu+yymMoetOuoxeCu0gfOLcPQYnD8HaTfDt7ocO5PxzrEc8UJs+zpymCE34+X9QfZ82AVLwUyrBm89muW8fDRjfnmJHTuEamKIL0W0WwkH98E1OyC2QrUe40XpekO7dZo42Y6LG4TgWVZtABq19roi+nQr9Of4DkUmH2SQ4grli7S3RJq2ubiQsTiv2BmhlcP5BXj9KFw81yHtKkvtnHdOLrKwqEge4+JgXQ06aI0OBmllbpuSl2YkXJiK4lGMgDE5Weo5drLFmYuWa3bEbN9i6PZ6LFyy7N9n2f0eqMWQqnBhKSPzPdLeQqggqIY0nppVOwmH1l5WaIUNuE3TE5OhghjKGSdPn6bVDsxZasGxYxmXLnXJU8hzw2JbmG+FRLFzwRd0YjEmWHZTbporZ9ML/gZWDPWpFl6BNeBFQXN63Zw88yxXI+o1j2oXn0UceUNpdR27d4H3yukz50NG1/cN0toifYWrniX9WUQPfV1joypiHCePvUm3G3TQhYvQXs7QXNHcIx4c4aJD3jQF4zBiA8Ok7zoN3bJyv5KM9dNpkXM3ongJEY1qTp5nKAbxOYkanIJPU7rqWZx3tJqQ5cqJE6dADcbGRVW1n6YLNSS5jHYntxmCggw62lzUxEU1TrzzBouLKdGcBc8gG67kiPHMNT1Vm9LKwt8lkUVM0JnWlADtQ1a4RaE+RShT9OtVKGoEVUFzHwoa6vF5jothW9MQ25w8L5hswr68h8WWcuLto1iJiOImYqIgB2byTMZ6cd1ED/1QtxosNqrgogYXz57m7aOvg0CSQBRJKDUYg3OG2UbE9lmD5r1QxxGwohijWFGcUezI5rHiR95z1of3jeKK3xsTmNoHda4pbJsziNUB+M5ZkiQkZ86cvsT5k8dwUR0Xz0wOvy/jYdbPynH3epjJFxPEJorr5KnnhR9+GzXgEogrgnWCix0mirCRZeeuJpXEDQyQtWANAVSjODvczEBHhp8DixXnwFkGoAdAgwsgxrPnmhqVmh2qBjFUKo56NTD05ZeeZ3lxkTiZw7lqWc9Mveb1eJib71guHGJjYqJ4FhHHT378I5YWuzSbCc1GTLuV0ssEK0FFzMxUaTTbLMz3sBaMlQJMCT/LMF+tk6x88SIXxagv/hbEKJnPqFQcO+aqYKX4soUocdSbETaGdld58ZknyBWieDYU7ora0uDAl/kwm+luDTHFsEXGxQ2MiTh//ixvHn0ZIyHMbDRiXGQx1mKMoRI7dmxJijYawZiixd6AtULkhDgS4siQxIYkFpJISCJI4vC+iwzOCdYK1gSn3XtPmuXs2FqlVo1CGcQaXGyp1GMqjXCME++c4+iRl0A9LqphjB229mwGTekDerk9r/1hgSJ0s7ZCXNlKq9Xm+9/9Nh7FxdBoRlQSNwDVRYZ9e2aoVQ2ZV6QwRgEYwTkhigxxLAHMOLyOYzsA00Y2gGmHCZUsS4njiOv3zmBiQUUwzhAnluaMo1YLx3jqO0+weHGeKJ7BRQ0o9Ukhl68/0StglMTYsBUnVWvuBZvwkxde5NzZ8xgDlRrUG5Y4Eox1YA27dkTs3VMnSz1p7gt2hsTIANDIFs/hdRxZImeIXEgFOitYAVGPoHRTZdeuBtu3V0EMisVaR6VqmJkVkgQuzef8+OlvYlyd+sz+IntvBk1nsslZN7NW5XD0p/LGMIHW74gzjriylWpzL+dOHecH3/0mzkAUQaMBcRxajYw1RLFy4PomlYrQTTO8L4JmCa6Ss4J1wTMYfS5+Z8CYQX2TpZYSWeHmA7NElRBBGSe4xNFsVKhVghF76nvf49Tx46G7pLZzkBMd6NA1rnktgd7E16GldieDSIQxDjGBpd73ePqb3+DS4jLWQrUCzZoQx+HCEMO2bRF791aC7ks9eb8HqnCzrDNYZ3HOhtc26ExXiLl6j/dCmhmW2ynX7K6za1sUGiesEEWWWt3RmIHIQWtZefJrD5Nl3dADFdUKMkzSn3rlGcpau5dhX6UxbmAt42QOG83x1ttv8J3/9WdEcUgu1+pQTQqmGnCRcvNNDWZmLZlXsjw47yoh6SBFGSX4sVIywqFzL/MawtmOkiSOQwdniJJQFzLWUokts02hUgmAPv29J3jz6BuITajUdxXeiQ3NDjLar7Wu678iDB2ZlZIiaxl0qTERIg5jI+pzB+mlPZ547HHOnVvARUGXNuoh4RtFQSy3zlkO3VTDxkIvgzT3+FxDNm6492F8r0W7jyp5ZlhYMqTdHofe32DXDhcSKwZiJzRnoNkMX+Dysuexr/4RaZ5Ra+7BxTOI2BB2miIfWp4DuMyZMMOmKMqIZRRjsTZCjKM2swcbz3Hi+DG+9uWv4kxgab0OSazEEcTOYK2yf2+Ffe9xqPF0M8hS8LkPHXuqeA3JDK8B6CyDtGtZXI5od7pcd32FQzdUMM7jDcROaTSgMROCC2Ph6489zptH3sa6BrWZ6wr22yKp3PfbNn79UwAt97XrhBE/XXV4oD9DKSZ840YirKsyu+1WOq1zfPvxx3njyJtEESQVaM4EixvHhZ6rWm47WGHnViXNPUtt6HQ8PvfkqmTek+WQpkovh3YacWHRsdxJ2bk74s7b60SRkGFwBmoNZWYW4iTUlE6evsTX/+Q/0e0s0Nh6gKjPThMNcv+sGW6WWxxXGq0+fma6SOuEMr5O3IYjfwLGYl0VgyWp7SKp7+bM6WN88d9/gV4amBmc/SCKLgLjhJm5hLs/0GD7NqHd81xcgoXFjKyXk2VKmippCt2u5dwlWGz32LoN7r67Tq3h6AlYlEpiqDcMcQKxC1XWP/zC53n3+HHiyjYq9WuL6Ckpskylzj/Vqdc4VvgZdueN8czuPfjgb4YGjvFuu1IRavz9CZ8ZdOgV9WyvOWiKi2fotN/l1ImTREnCnXfdih3E4QU3TCBKrerYtUNYWM65uAi9XmhwMFbJcqHbhbMXPe1uys5dhg9+sM5M3ZBrSFDHsaFWD0bIFPv/H197nD/9z19GM2Vu1+3Ela2DvEPQ+TLQodP0p65fJXqzIf2pTPfT+l14EvxSa+MwYJDM0txyM7nP+MojX+a553+K2GDlK0mw+lEUrLBxsG1Lwi/ek3D9fkOG4cKScnFeWW4r757zLLfb7N0fcd+9NbbMGUxkSCJDvWKpVyXsz4XtrbdO8od/8DBZL6e+5SYqtZ2BnSYuelpl6C6NTCrrOq9/5aPE0Ant9Ewe3SwPKEzqLlEtlQqKhty0t0Rr6Tyv/fR1PvLxj9OciTBAEoGTIkltArPqVcfuHZB5z8UF6HYCY3Np88G7KnzorjqVJISWzoaSceyCvowicDG0FlP+5W9+hreOvIW1VWa2HcLFDayr4qJqIe52rPNOS7NLusK2rOhq1vHP4EcBXY/YT/wMwy6SUqENFPV5EefH9LrzXDh3htMnTnH/x++nkoTQMY7BWhAbnm0E1Yrl2p1CpWpY6oJYw1+4p8kH3puQJIIaIbKQ2ABmHAUwbWhT4t/97n/gu998EvEwu/M24spWrIlxUQ1r4qGPO23ibwOsLH1mA4CyyqDxpJGbQb4tFPGMq2BNTLdzgbePvkHaaXPPh+/EupCtjyOIB3nRAEy1Yrh2u+XGfRG3HYrYu1twkQTgTfh8NRqC6aLw/h8/9Ch/9NCfkPdSZne8n0pjN8ZGWFcpjFE0Odws99aPb7ouTToO6Gpivx6WDl/3J220cMZDmaQGCN32BV55+RXiaoU77nofRgQnEElIwzkT1IATiCw0qzBTDcBZFxolqhYqBTNdgYsz8N/+9Jt8/nO/T6fVpbHlRuqz+7E2xrpqAWhcSuYwYSJ6xVTkBOs+UdynALoqS4VpCzOs1KtF/z1S9LDngOLiBiKWTmueF5/9MdVGndtue2/oGtEC1OKETPFsS825kUBiAqiunyAp6lD//b98h89+5l+xvNyiMXs9zbkbca6CcdWQ97RJKSoqperKOE5ynXTdDv9kQFc3TpNYygr1IIxOoQW6hqpdFDcAod26xLM/eI5KtcptHziEk5A8s8UxTWmTMYDtWIfMV7/yLX77M/+a5eU29ZnraG65ERcFVlpXwRZ5BjFF57KYCbpTJ4/urGqM1gR0/bp0CLysBH6sKai/Dx2Ifx0RS3v5Ej965lk6vZS777md2IRpNiejgFICtQxBpvDQQ1/jd3/791hcWKAxdwPNrTcNGBkAjUMmbKA3zWQp1wlR42q6c6VnPx3Q9enSsoGasO5IqVlBBtl9KUZxBBfVQYRue54XnnuRd46f4kMf/iDN2A1OyJSex4PDxY7yO7/zJb74+w+zvLRMc8sBmlsOBDE3UTCELgkO/EBvTnGRdHJ4ubruZL0MnTanNN5jL6XRaSZ8TlaqiyIzHibXDFFUR8SQ9pZ49aeH+eHTz/ILd97Krm1zK2rhZYYePn6OT//6Z3j8a0/Q7XSY3X6IxpYbignlqDBCSXDi+3pTzIRlDsYALIVLo7NIuhY71wJ03OLLyiYymTzCOAJqeQ0nGWaoRIat2IGphjxtc+LUKb7xP79LvdnklvfeVLQ4jrL1sW8/y6f/wT/nlVfeQD0BzNn9WBvYOBHMsTHvSZPFqlNEXcfmPacni9YAdMWs52RrPlH0R3Rt6bMD1TAOaph/91mHhcVFnvzO0/zs1de57a47maklqMKFVpd/9lu/x+c+90UuXmrhJGF2+yHqzT0BTBtjoxrOVQswXQlMBhZdV/hGOhIdjaqCCQBOV6t+k9PIk3zTCSs9lGLS0JbjQX2YVs575FkntGb7Ht3WOZYXj5H2FtCszU037eHXf+PX6PZ6fOFLf8yrP30DiIiTJo3Z60mq20PK0MQYG3TmsKxhhgMPU8DUcf1ZZuqVn0ZmbOm1CfPya45/j4m89ltjRkHVQY9+j7S3SK9zgV7nEmlnnth5PErqDdbViZNZqvVrcVE9REA2wdoqYoe1/uAemdLIxlgyUseHYMfAXPEZXc/SbqlbV6Cqo8vJ6GD5o7GpTdXhe+VzH1nZq7T+BwZjXNF0ZtHcFLPsDmsrRPEsaWWRPOuE9JyJiZImUTKLtYUltw5xlWJc2xRGzwxWcBhdZEBLq11tDMxVDNHltOIUnW8lsMqgBjdo1EpKPzFaljAp5/iLTLmEWrwWzr96OwDV2BgXNweha1j+ou9TusEaJMaUF3MxhSCMFdxK4E1a9nItMNcQ9cvpbSqDWhxUSutJ6XgPkhSpO1kZI5eNlQ7tdwC26JWyEd4ngwVcBp/vM7CoWI6uziClQtvKgFxXMG0tMNkQmJfRLKZDqe6P1ciImioAkuGYopbdqPEUeL+/tFg/VIfsVeswxq3oLO6vgDMAUYJ3qoNlhiYxckI8uS4wdUNg9gFdBLasv6FnOqiDVXAY1bHllRdHLnqkX6IAtVADqA89R6WoxBSGUUvV1oFXPLbiok5ZS3QUPK4kmAosOuA14IMbW6GxDGrJbulw2Z7yQjLlAEBLn5EJM9DlgKBf+5dJPWrl2R5k8nXrhEzxBCDHXaONinnfBwV+ZoqVri9jHYD+NzhaBVzxLfdPTlmRsFUdL18P9y06XWBEGfETx8u5qhN+p0Vb+QRWXgEw+4C+5ApA89V90fVb/z5ZymyFaYxlzNkejbxkjZkhXdE7wCqivUp0pGwWTAoMX3LF7RjyzTSNjWBXXkUWXbHm34g+ndTsu6J0qxtQYeOlDCa6TrqqK3XZC8TmwAum0KEvFkt1XH4nnk5ILgxEavjzJPGcKKIb3XS4L51UD1rlXEZV0mU9soKYr9njhx/t7D34YAu4r1jDfvOL1ayyqI5MnYr4f3aVcA+cAv4F8Hw/I/ZosfR6a9NgTjM4YywZYcoq7Jz0bzWWrnqcqYZrU49Wgd2j9F2l44cfzfcefPBw4T7tunI3VJHpjGX8zhW66S/y/8CdFrrAj4F/Cpx55rFPDX3P44cfPb/34IPzwB5gjrDYjPxcgOVKHOnnei8QDywAzwP/Bniqf3OVEWf++OFHX9178MEfAtuBHcVtGa7CHWvWXh7qslvUrx6IgxRdcfufx4F/Ajw59fY//ccqN6gaX2rpijGX/zvvp6SlRdD6C5a9Vdyg6qF13aBqDNjtU26hVuFq0Xa1X/387/jVmXILtXPTbqH2vwEnlz/cnMda+wAAAABJRU5ErkJggg==;" vertex="1" parent="HNUfWQM4cpFcuZbpRHGg-53">
          <mxGeometry x="40" y="100" width="10" height="10" as="geometry" />
        </mxCell>
        <mxCell id="HNUfWQM4cpFcuZbpRHGg-60" value="" style="shape=image;verticalLabelPosition=bottom;labelBackgroundColor=default;verticalAlign=top;aspect=fixed;imageAspect=0;image=data:image/png,iVBORw0KGgoAAAANSUhEUgAAAFQAAABUCAYAAAAcaxDBAAAdYklEQVR42uWdaaxk55nXf8/7vuecWu+9vdud7nZ76bbTccbxltg44wQSlBEeRsF8QkSDkICREILMfEACaeBDBmYiZVgCM2KSSBjsWZIMBpQYMyRxFjt2EtuxPbHj2N3trVf3frfazjnvw4f3VNWpulV36dsdQFTrdNWtW/cs//o/+/O8R1jlce8Dj+wAbgVuBz5QbPuAhP8/Hl3gHeDFYnsBeBk4+8xjn5r4BzIFyAT428CvAdcBEeCKZzPt7zb/kNV/pav9rV6NE1LAAymQFc9vA38A/EegOw6sTADzEPCPgY8B1xRAclUBHDzJJq5cx3DVq3XSGXAa+BbwWeDVMqgyBuaDwKeBXwCaBRuvGogrAZRNkmkM4KsHrgcWgZeAfws82gdVSmDeDHwJuPvK68hpIMrYy00CqpMBvorgdoFngb8DvPbMY58KV3DvA4/EwOeBvwk0ri6QZRBl7JObA3QUT10B7lUCdgl4BPhHQK8v0g8CvwzUriiYAiJSgFlsMtzK/xAz8ruNb2Zsf6WtOLYgiMgVkIaRR63A7kEAufeBR+aArwMfujIGSCYzUmSl4RFZU3/Khuy5TmTo0GDpFMZumq0Z8APglx1wc+Ffuish3iJrADkFRFnxuw06V6roCp1cvOzjKaO494mqm1cDrvDVb+6/sFcWzCkASPnEZcxwjFzZZQmkTNamw+9WwzFVxo4lUrBVNgOqBW53wG2bA1TGgBxnokyw4jJy+VfeMZMx0ZYhVVWQPqhT2aqXC+gH+oCazYEpQ9aJrLTapfeUcZau/FmuILTD/wuVIOE4fTWAMMJOEblcUA1wW1+Hmk0zU6TEjUmGR8bAZLouvSpBWQBRRxSrlIk7MFCXCarp69Dmxq+jzMziZFcBcvTE1gOmriOAl3UDOeaAjMUAOgS7dDjZuPgL0HSbE/OS0y5lERuHRtYEREastQ4vRLUksIUUiGFEZtflD5TVUrGvMcaKSgFqoRYuQ6e6K8PMMTBlVH+tPCkp2/biwjyqHvU5qhmqCupRzfE+CyAiiFjEmPAsFpHwGhnX52bEvZDinEYCqD6IJVoOmXp5oLrN6MyJzJRxKw4iiqoUOYU+Cz2iitcCSPUFkB6fd8nSZdLeIllvGdUcFIyNMDYhihu4qIF1CWJcwViDERsiJrGI9GXDjIa4oiUXTUqgMgVUNqRT3cbBlBKYQzGSEddIBo66ogWOHvWKkqM+B/XFex6vGT7v4vMeedai15mn0zpLr3sJ77uIpIDBmAQxMS5qECdbiCtbiOIm1lURcfg+mDYw14gDYwEbzl91oEd1RAVQMliTdOr6DZVbl64te+YjYIbwI0jaKAtQQVUD63xenFeO5jned/F5SpYu0e2cJ+3Ok2dd8qyL1x61SsL+63bxvkN3cdedt3DLwb1Y4LUjx3n+hZ/xwkuvcer0BS5deBejBuMSrKuQVOZIqttxcRNjIlRyxBvEuiLW78f7phDlUaM3AtoEUMN3sLrzL/c+8EivyMSvrTfL1lxKelDsSIzS14veZ3ifoj5FFXzeCaLcXSBLF+l1L9HtnEfzLkkUc821O/jYx+7jk3/1Yxy46T1UYouzJuRNCF9Qlnlaqefom+/y2OPf4RvfeJpjJ07QaS0DhqSyjaS2gySZI65swcUzWOuGkmMtIkFNCGagP9V7xEihZwujWDzrwDjq8HeTH+kagJbBZJCxKfucih8CKoAPVlp9hvqMLFum275Ae/kUWW8ZChGPE+WaXdvYv383d91+kL94/x289+A+rDFrhvQ6kgNRjrz1Lt/7/gs8+czLHDlynLNnL9Dt+gCYpsTJHI2564mTLRibINZhJEZM8BhUQdUP1Zoy9DTKXkfB1FVAXQPQcupNVoIZdHuZoT6Iuc/I8w699gXardMszb9J1rtEtZqwZ99efvHeu/grn/gwt77vRupVizH91NomsqEKufcs9Twv/eQojz3+FM/88EVOHDtOt72MS2apN/ZRqV9DnGzFuCrGRIUhE9T7EakLQDIK6oCxOpZvXRegE0RdzAojFQAtXBSf4zUlz3p0lk9i/Gn279/Otdfu5JaDN3L/R+7g5pu2Eo/F3HKVwqNcldffPsv3f/Ayf/6Twxw9epS33zoJ5jqacwcwroKRCDGCekWMKRmeMSaqX4/op25tQzTuO476e32DJKqFMVfUp7SWTnLzgRn+3t//Wxy4fifbtsbUIoMTKdvXq/ZQwIhwYP9O9u79KJ/4S/dx6swSDz38Fb7xZ89Ra+4LhstaRN1IYBVAHfdBx4zRFANlVs/YTBH1SfF7PxPeP4YKL7/yM06+e4ZKI8aLoYOQFdnYvHj2V6F61q/3doFWDu2uQa1jfmmep575PnkW9LviS+c+VlUYT6+swEHW6zbJGtGcjPiaOh7WFQe1LmFpPuOJbz3J/R++A2vCN5664bcoRc5Lp+QPl1I4fRrOn1d6uWfHFth9jWWmNpmRKdAD8sLd8R66KaQ5dFLhu997jjMnz9Oo7w3+KnY0I1WwboR3wjR9OZGlbmPslOnVC+1nc4JKMC4hqc7x0vMv8+ZbJ7nl5r1ILzDIuACgK4Ds7yoHllM48rbnuddSjrzTYX5J8HlwaZwRqlXlhn0Vbr8h56Z9NeaaEJcA7Shk3bAvVcjysO+LSy2e+PYPcKZaBAJ2QsJbJoh+4bLBMACQkls6JvJuQ0mckbByPHHsBwkLBaxNcFGd5cVLPPuj57jxhj3kPaG9BL0MIqcYI2jqabWFE2eVoyd6vHM6Z34ph0xwJkJQLIJ6IffC/ILn+Z+kvPSKUq9c4JrtCft3O96zy9JoCBIZVDPEOCqJkNhwPj977TBnTp0jiupYmxSIFW4fbhhBFe+PXreunvTSqYDKunTnysxcKRlWJDQQgxhDnqa89upPUf9Jogi6HlrLsLCc8sobXd46kdNqCaouyCqK4DDOYEQQzYt4PEQvRi157lEVlhYdry70+PPDHcRFNGvC9dcpN+y27NyiVLbFWAOZhyOvH6bbbRO7JmJscIU0R9QMQtKBMpJBsFRiaRGuTmTpEIP1J0fKSrvEUOk7vKqo9yg5Pu+R9ubpdeeBHPXClobgLOR50GlIzMUlZf5Sm7TdI4ohihzGmKAypJ/IGMsPoFgT3DV1glOH4OmlnsUlw4kTwr4dVbodxWfgamA85L0uPs/JpEuWtsjzTpFYsajkId43jCZKVjBx7eSI2XDOdqRUNAQzz3vkRYze61xkaeFNOq13MQL33X07WxKII+jk0OlBM4Hrtyb4XshECYoxYEQxoohoEHcRTLEJxfNYTd+ICR1smafZMGytGxBLppDE0KjAPbffQq0S0Vk6w9KlN+m2z5FnbfK8i2oWwNJp17n+MqxZn7iPNgsMGFqk4VRz1KfkvRad5dP0WieQvEW9GvOJv3w3D/7KRwZqYrEL1SrsmoNb9niceJw4jLFYYzDGYEwZuHG5KFIcYgaf6Se5RZTrtmZsaULiIE3DJVRj+Oj9d/J3f/UBZpoVsmyZ5cW36bTPkGct8qyLaoqqL5X0Vrn2qfisV+Qnfls61Jk+w/uMXuci25rnufG2A7joVu65+yCf/GsfY7ZiUYXzLej1IDIhNKvYDCOCqscai5W+pio9j3XmaYkJimDUB8/BCJmHmZolKtTxYgcutaAxC7WK4R/+xq9y+53v478+9gw+z3jn+FmOn74wTFQbV4BlJjjx62mpLAMqG2C2lPx39fi8R5Yu014+zgN/45f4lb/+S3g8u7dGVKwhAy7k8M670FqCWgQXM+WlwzleLcbkhfvUz1cGlojoBDWmqDAokvg+1N6Ddxw7lbF9Ww7G0urB0QxcBLtq4Azc99E7eP8d76e1JDz11I/4rc8+jHN1jI0xPgvulNEphmcNcHSK2yQrqpiM1dNlJNvjfUq3dYZu+yymMoetOuoxeCu0gfOLcPQYnD8HaTfDt7ocO5PxzrEc8UJs+zpymCE34+X9QfZ82AVLwUyrBm89muW8fDRjfnmJHTuEamKIL0W0WwkH98E1OyC2QrUe40XpekO7dZo42Y6LG4TgWVZtABq19roi+nQr9Of4DkUmH2SQ4grli7S3RJq2ubiQsTiv2BmhlcP5BXj9KFw81yHtKkvtnHdOLrKwqEge4+JgXQ06aI0OBmllbpuSl2YkXJiK4lGMgDE5Weo5drLFmYuWa3bEbN9i6PZ6LFyy7N9n2f0eqMWQqnBhKSPzPdLeQqggqIY0nppVOwmH1l5WaIUNuE3TE5OhghjKGSdPn6bVDsxZasGxYxmXLnXJU8hzw2JbmG+FRLFzwRd0YjEmWHZTbporZ9ML/gZWDPWpFl6BNeBFQXN63Zw88yxXI+o1j2oXn0UceUNpdR27d4H3yukz50NG1/cN0toifYWrniX9WUQPfV1joypiHCePvUm3G3TQhYvQXs7QXNHcIx4c4aJD3jQF4zBiA8Ok7zoN3bJyv5KM9dNpkXM3ongJEY1qTp5nKAbxOYkanIJPU7rqWZx3tJqQ5cqJE6dADcbGRVW1n6YLNSS5jHYntxmCggw62lzUxEU1TrzzBouLKdGcBc8gG67kiPHMNT1Vm9LKwt8lkUVM0JnWlADtQ1a4RaE+RShT9OtVKGoEVUFzHwoa6vF5jothW9MQ25w8L5hswr68h8WWcuLto1iJiOImYqIgB2byTMZ6cd1ED/1QtxosNqrgogYXz57m7aOvg0CSQBRJKDUYg3OG2UbE9lmD5r1QxxGwohijWFGcUezI5rHiR95z1of3jeKK3xsTmNoHda4pbJsziNUB+M5ZkiQkZ86cvsT5k8dwUR0Xz0wOvy/jYdbPynH3epjJFxPEJorr5KnnhR9+GzXgEogrgnWCix0mirCRZeeuJpXEDQyQtWANAVSjODvczEBHhp8DixXnwFkGoAdAgwsgxrPnmhqVmh2qBjFUKo56NTD05ZeeZ3lxkTiZw7lqWc9Mveb1eJib71guHGJjYqJ4FhHHT378I5YWuzSbCc1GTLuV0ssEK0FFzMxUaTTbLMz3sBaMlQJMCT/LMF+tk6x88SIXxagv/hbEKJnPqFQcO+aqYKX4soUocdSbETaGdld58ZknyBWieDYU7ora0uDAl/kwm+luDTHFsEXGxQ2MiTh//ixvHn0ZIyHMbDRiXGQx1mKMoRI7dmxJijYawZiixd6AtULkhDgS4siQxIYkFpJISCJI4vC+iwzOCdYK1gSn3XtPmuXs2FqlVo1CGcQaXGyp1GMqjXCME++c4+iRl0A9LqphjB229mwGTekDerk9r/1hgSJ0s7ZCXNlKq9Xm+9/9Nh7FxdBoRlQSNwDVRYZ9e2aoVQ2ZV6QwRgEYwTkhigxxLAHMOLyOYzsA00Y2gGmHCZUsS4njiOv3zmBiQUUwzhAnluaMo1YLx3jqO0+weHGeKJ7BRQ0o9Ukhl68/0StglMTYsBUnVWvuBZvwkxde5NzZ8xgDlRrUG5Y4Eox1YA27dkTs3VMnSz1p7gt2hsTIANDIFs/hdRxZImeIXEgFOitYAVGPoHRTZdeuBtu3V0EMisVaR6VqmJkVkgQuzef8+OlvYlyd+sz+IntvBk1nsslZN7NW5XD0p/LGMIHW74gzjriylWpzL+dOHecH3/0mzkAUQaMBcRxajYw1RLFy4PomlYrQTTO8L4JmCa6Ss4J1wTMYfS5+Z8CYQX2TpZYSWeHmA7NElRBBGSe4xNFsVKhVghF76nvf49Tx46G7pLZzkBMd6NA1rnktgd7E16GldieDSIQxDjGBpd73ePqb3+DS4jLWQrUCzZoQx+HCEMO2bRF791aC7ks9eb8HqnCzrDNYZ3HOhtc26ExXiLl6j/dCmhmW2ynX7K6za1sUGiesEEWWWt3RmIHIQWtZefJrD5Nl3dADFdUKMkzSn3rlGcpau5dhX6UxbmAt42QOG83x1ttv8J3/9WdEcUgu1+pQTQqmGnCRcvNNDWZmLZlXsjw47yoh6SBFGSX4sVIywqFzL/MawtmOkiSOQwdniJJQFzLWUokts02hUgmAPv29J3jz6BuITajUdxXeiQ3NDjLar7Wu678iDB2ZlZIiaxl0qTERIg5jI+pzB+mlPZ547HHOnVvARUGXNuoh4RtFQSy3zlkO3VTDxkIvgzT3+FxDNm6492F8r0W7jyp5ZlhYMqTdHofe32DXDhcSKwZiJzRnoNkMX+Dysuexr/4RaZ5Ra+7BxTOI2BB2miIfWp4DuMyZMMOmKMqIZRRjsTZCjKM2swcbz3Hi+DG+9uWv4kxgab0OSazEEcTOYK2yf2+Ffe9xqPF0M8hS8LkPHXuqeA3JDK8B6CyDtGtZXI5od7pcd32FQzdUMM7jDcROaTSgMROCC2Ph6489zptH3sa6BrWZ6wr22yKp3PfbNn79UwAt97XrhBE/XXV4oD9DKSZ840YirKsyu+1WOq1zfPvxx3njyJtEESQVaM4EixvHhZ6rWm47WGHnViXNPUtt6HQ8PvfkqmTek+WQpkovh3YacWHRsdxJ2bk74s7b60SRkGFwBmoNZWYW4iTUlE6evsTX/+Q/0e0s0Nh6gKjPThMNcv+sGW6WWxxXGq0+fma6SOuEMr5O3IYjfwLGYl0VgyWp7SKp7+bM6WN88d9/gV4amBmc/SCKLgLjhJm5hLs/0GD7NqHd81xcgoXFjKyXk2VKmippCt2u5dwlWGz32LoN7r67Tq3h6AlYlEpiqDcMcQKxC1XWP/zC53n3+HHiyjYq9WuL6Ckpskylzj/Vqdc4VvgZdueN8czuPfjgb4YGjvFuu1IRavz9CZ8ZdOgV9WyvOWiKi2fotN/l1ImTREnCnXfdih3E4QU3TCBKrerYtUNYWM65uAi9XmhwMFbJcqHbhbMXPe1uys5dhg9+sM5M3ZBrSFDHsaFWD0bIFPv/H197nD/9z19GM2Vu1+3Ela2DvEPQ+TLQodP0p65fJXqzIf2pTPfT+l14EvxSa+MwYJDM0txyM7nP+MojX+a553+K2GDlK0mw+lEUrLBxsG1Lwi/ek3D9fkOG4cKScnFeWW4r757zLLfb7N0fcd+9NbbMGUxkSCJDvWKpVyXsz4XtrbdO8od/8DBZL6e+5SYqtZ2BnSYuelpl6C6NTCrrOq9/5aPE0Ant9Ewe3SwPKEzqLlEtlQqKhty0t0Rr6Tyv/fR1PvLxj9OciTBAEoGTIkltArPqVcfuHZB5z8UF6HYCY3Np88G7KnzorjqVJISWzoaSceyCvowicDG0FlP+5W9+hreOvIW1VWa2HcLFDayr4qJqIe52rPNOS7NLusK2rOhq1vHP4EcBXY/YT/wMwy6SUqENFPV5EefH9LrzXDh3htMnTnH/x++nkoTQMY7BWhAbnm0E1Yrl2p1CpWpY6oJYw1+4p8kH3puQJIIaIbKQ2ABmHAUwbWhT4t/97n/gu998EvEwu/M24spWrIlxUQ1r4qGPO23ibwOsLH1mA4CyyqDxpJGbQb4tFPGMq2BNTLdzgbePvkHaaXPPh+/EupCtjyOIB3nRAEy1Yrh2u+XGfRG3HYrYu1twkQTgTfh8NRqC6aLw/h8/9Ch/9NCfkPdSZne8n0pjN8ZGWFcpjFE0Odws99aPb7ouTToO6Gpivx6WDl/3J220cMZDmaQGCN32BV55+RXiaoU77nofRgQnEElIwzkT1IATiCw0qzBTDcBZFxolqhYqBTNdgYsz8N/+9Jt8/nO/T6fVpbHlRuqz+7E2xrpqAWhcSuYwYSJ6xVTkBOs+UdynALoqS4VpCzOs1KtF/z1S9LDngOLiBiKWTmueF5/9MdVGndtue2/oGtEC1OKETPFsS825kUBiAqiunyAp6lD//b98h89+5l+xvNyiMXs9zbkbca6CcdWQ97RJKSoqperKOE5ynXTdDv9kQFc3TpNYygr1IIxOoQW6hqpdFDcAod26xLM/eI5KtcptHziEk5A8s8UxTWmTMYDtWIfMV7/yLX77M/+a5eU29ZnraG65ERcFVlpXwRZ5BjFF57KYCbpTJ4/urGqM1gR0/bp0CLysBH6sKai/Dx2Ifx0RS3v5Ej965lk6vZS777md2IRpNiejgFICtQxBpvDQQ1/jd3/791hcWKAxdwPNrTcNGBkAjUMmbKA3zWQp1wlR42q6c6VnPx3Q9enSsoGasO5IqVlBBtl9KUZxBBfVQYRue54XnnuRd46f4kMf/iDN2A1OyJSex4PDxY7yO7/zJb74+w+zvLRMc8sBmlsOBDE3UTCELgkO/EBvTnGRdHJ4ubruZL0MnTanNN5jL6XRaSZ8TlaqiyIzHibXDFFUR8SQ9pZ49aeH+eHTz/ILd97Krm1zK2rhZYYePn6OT//6Z3j8a0/Q7XSY3X6IxpYbignlqDBCSXDi+3pTzIRlDsYALIVLo7NIuhY71wJ03OLLyiYymTzCOAJqeQ0nGWaoRIat2IGphjxtc+LUKb7xP79LvdnklvfeVLQ4jrL1sW8/y6f/wT/nlVfeQD0BzNn9WBvYOBHMsTHvSZPFqlNEXcfmPacni9YAdMWs52RrPlH0R3Rt6bMD1TAOaph/91mHhcVFnvzO0/zs1de57a47maklqMKFVpd/9lu/x+c+90UuXmrhJGF2+yHqzT0BTBtjoxrOVQswXQlMBhZdV/hGOhIdjaqCCQBOV6t+k9PIk3zTCSs9lGLS0JbjQX2YVs575FkntGb7Ht3WOZYXj5H2FtCszU037eHXf+PX6PZ6fOFLf8yrP30DiIiTJo3Z60mq20PK0MQYG3TmsKxhhgMPU8DUcf1ZZuqVn0ZmbOm1CfPya45/j4m89ltjRkHVQY9+j7S3SK9zgV7nEmlnnth5PErqDdbViZNZqvVrcVE9REA2wdoqYoe1/uAemdLIxlgyUseHYMfAXPEZXc/SbqlbV6Cqo8vJ6GD5o7GpTdXhe+VzH1nZq7T+BwZjXNF0ZtHcFLPsDmsrRPEsaWWRPOuE9JyJiZImUTKLtYUltw5xlWJc2xRGzwxWcBhdZEBLq11tDMxVDNHltOIUnW8lsMqgBjdo1EpKPzFaljAp5/iLTLmEWrwWzr96OwDV2BgXNweha1j+ou9TusEaJMaUF3MxhSCMFdxK4E1a9nItMNcQ9cvpbSqDWhxUSutJ6XgPkhSpO1kZI5eNlQ7tdwC26JWyEd4ngwVcBp/vM7CoWI6uziClQtvKgFxXMG0tMNkQmJfRLKZDqe6P1ciImioAkuGYopbdqPEUeL+/tFg/VIfsVeswxq3oLO6vgDMAUYJ3qoNlhiYxckI8uS4wdUNg9gFdBLasv6FnOqiDVXAY1bHllRdHLnqkX6IAtVADqA89R6WoxBSGUUvV1oFXPLbiok5ZS3QUPK4kmAosOuA14IMbW6GxDGrJbulw2Z7yQjLlAEBLn5EJM9DlgKBf+5dJPWrl2R5k8nXrhEzxBCDHXaONinnfBwV+ZoqVri9jHYD+NzhaBVzxLfdPTlmRsFUdL18P9y06XWBEGfETx8u5qhN+p0Vb+QRWXgEw+4C+5ApA89V90fVb/z5ZymyFaYxlzNkejbxkjZkhXdE7wCqivUp0pGwWTAoMX3LF7RjyzTSNjWBXXkUWXbHm34g+ndTsu6J0qxtQYeOlDCa6TrqqK3XZC8TmwAum0KEvFkt1XH4nnk5ILgxEavjzJPGcKKIb3XS4L51UD1rlXEZV0mU9soKYr9njhx/t7D34YAu4r1jDfvOL1ayyqI5MnYr4f3aVcA+cAv4F8Hw/I/ZosfR6a9NgTjM4YywZYcoq7Jz0bzWWrnqcqYZrU49Wgd2j9F2l44cfzfcefPBw4T7tunI3VJHpjGX8zhW66S/y/8CdFrrAj4F/Cpx55rFPDX3P44cfPb/34IPzwB5gjrDYjPxcgOVKHOnnei8QDywAzwP/Bniqf3OVEWf++OFHX9178MEfAtuBHcVtGa7CHWvWXh7qslvUrx6IgxRdcfufx4F/Ajw59fY//ccqN6gaX2rpijGX/zvvp6SlRdD6C5a9Vdyg6qF13aBqDNjtU26hVuFq0Xa1X/387/jVmXILtXPTbqH2vwEnlz/cnMda+wAAAABJRU5ErkJggg==;" vertex="1" parent="HNUfWQM4cpFcuZbpRHGg-53">
          <mxGeometry x="40" y="40" width="10" height="10" as="geometry" />
        </mxCell>
        <mxCell id="HNUfWQM4cpFcuZbpRHGg-61" value="" style="shape=image;verticalLabelPosition=bottom;labelBackgroundColor=default;verticalAlign=top;aspect=fixed;imageAspect=0;image=data:image/png,iVBORw0KGgoAAAANSUhEUgAAAFQAAABUCAYAAAAcaxDBAAAYa0lEQVR42uWdeZRkVZ3nP/e+Ldbcs1agWARaaGitErV7sEWwUVppVBzQFhdaQZg5UrSFjMs0djf2tB7LDbqVYWlKRAc32sFRGbEP4oCiTgrYHAWZBgssaq/MrMyIt91l/njvRUZm5RK5li1xTpyXEZGZ8eIT3/vb7u/eJ6y1zHS7atOmQeD3gRcCL8jvRwEBz41bDDwNPJzfHwIe3To0tHemPxDTAb1q06YAuBh4N7AB8AA3P0pAPEeAWsAAKaDy43bgvwO3bh0aiucEetWmTScBVwNnAWtykIf1JqZ8wsN8U8Au4F+Aj20dGvrljECv2rTpDcCVwKlAPVfjCkMTCyBqVxq2AcaAR4DPbB0auvMQoFdt2nQicDNw2krYyEMAiiUaoCsLOAZ+Crxr69DQ4y2gV23a5APXAW8BaisCUayQBVx+uOPA7cDmrUNDSQH0TcBWYO1yDHOxkhDngGuXZ/g/C7xv69DQHWLLxo09wP8CXrLUDmi+IMVSjPbDA1YBDwKvFVs2bnxJ7rGqK2M3D5NSl0+hxa0BnCm2bNx4GfApoLQy3vwwDn27rEgj4EqxZePGzwHvzIN2fqdVCmCXDWkK3CK2bNz4Q+DFgLPywfphALt8KtXAT8SWjRv3A72HI51cCahiOoe1PCq1wLDYsnFjslLDfVqgQvxWDH2xNLFq+twF2oIqslNoJQFiMcnA4QWa8RT5Z5lQjJ1if0T+eysaYokF2dvDrFAhsNZiipTD2tbjAp8UAoFAisMAdv72duWBWsBa21KmtTYDCShjiI0h0QYhwBUCT0pcKXGEQOb3AqxYqRPuXKcrCzRTn2idnrY2g6g1oVIcjBNUEOB4Lmq8icDiSUnZcaj7Hr7j4LaBdYRYNNiOnFHnUFcGqM0VaKzFWEitQeVKTI2mkSoOJgn7o5hzL7qQC956AXd9/X9y3z33sXvHTmrAQCmg2/coOS6uI3EQuFLgSDkvxU4K1WxmLDtC1Zk9XX6ghU001qItRDpT4niaEBqD1prAcQHJvjTlH//HTbz09DMQImJ87AD33n0vX9/2NZ5+4gnCZkggJQPlMr1BQODk5kDKbF5mDvs6Y1TRaZlvbnu6PEBtO0xr0TnMUCkOxBEHkoSuo9bzqgteRxwlPPS9+9n11DNU1w1yx7dvo1rtwdoQEBjtEjfGefQnD3PXN+/m+//yA0b27ueIaoV11Qolx8GTDq7MzMCiQrS5hvbcQ3/pgbY7GmPBYFHGMpok7G1GxEYjA58rP3oNrzv/vGzIWcHPH3qIDesq9K47Iq8zKLAyK8+KAHDQSrHvmR3c9Olb2Hb7nRxXr3JUvYYvHTxnwnEtKt6da2jP/vrsQOebPRS2UluLNpbUGFJjORBH7GqGKG0JPJcjTziaG792E119vXlNoZhxOQi2CQdGIAzBdcEvQakCTl4MC1zCvQf5z+/8ED/94U95weAAVd9rRQSFTV1U8tA2tOeZus4FVHQcMEyCaS2x1owmiv1JitvfTb1eh0gz0N/FO6++lNP++I8zgOk4NEJQClQCxkAagTZZMVw64LlQ6YKgBNKC43HvXffzgfd+lF4pObJexRNykkrFRLC7qFBpeqAzqnRmoMU3O1sjxMR7tzsem4dAKbvikBNO/0PefcXFrF3Vg0DTP1ilXB/MhnW0H/YMQ5Tmbyrb3twWZ54dpYRaDaplcD3iRsLbztvMY49v55SBXuq+h9sGdS5ldjKRmiWmM/zO9CqdDehEaGHnsJe2DeZIHLM/jImMoYlly0c/wOvPPwfpREgpcmYpqBh2DmfqFPk72CIdKkIa2zp5hADPgVodqlXwXD7xweu48ba7WV/yeF5PF56UWSIgBFLKWSHO5kzboRUa7VCl0wOd9O3ayW9lp3E+KreZY0nCzmZIqLO36l43wLZvfJY16wfBNiCOQGlIFYxHMJ7kZUQ7/bhqf1KQqbQUZECDgMeGfsnF77qW5ug4L1zVR8V1cYXM4tQ2WyrmGZ0c+oTtVKUdAD3kP+W5d16pUUaTWMveMGR3HOH6ZbpqPfT093DRe97E2ee9AuwYNMZgNARlMqCJzuxl62RtyxYXdkvkSm2dipSZo6qWoVQCK7js0mv58f0/57juGoPlEo4j8fNUdSFZ1GxQFwF0lqKvnVCnJvPk42nKTqP5k9f/CWed8QL6Vw0wuLaPyupVQAIHRmHPwUydWRUEjMGKiRO11rSAtn+zrSxI5IG7IyHwM6V6Pt/71g/58DWfJUBwXD7sfdfBz4HONwm1szipabQ19S8OBdpJmNGymcbQVIrRJCUuB/z9tZdxwqYTkV01hOchdJo5nL3jEMX5GdiWqQCLNRZL9lzLu7YzFYDMgUqB40iE5+ThVEBjPOHtb/sQv3ryWU7q76bb9ym5Dr6UC87zF6HSBQLNvXpqDGNpykickHgemy99PS9+6e9RqVfwgxLCdSDWECmMUpkDK4CaDK4xBVhaUAstZKrMQAoBwhFIR+B4LrJUgsADL+Cz19/BP9x6F+vLJY7pquFLSeA4rSIKSwZ1OpXOCXTuOR7T5owOJgmjiWIMy4XnvZzXnrGRcs0nKFXwPD8b2gasKdRpMMZicoDW5HebP247cYFFSIGU5McMqHQkfrWMqJTA93nqqZ1c9K6/IR0POaW/l8DJgLpSLhropGL+3MN+cUBTYziYpIwpxbDSvPBFJ3PlBWcRBD6u51Py/XzIylx9GcgMaJ7n60ySpqXOHKa1mQ0VAkdmIarrZFAd18ELAvx6GcoBVrhcvuUTPHD/zzipr5veUoDXptKFlvfsIUCnGfazAe00TbN5zJkYQ0MpxtIsI+o9Yj0fffe51GpVHMfDc51suCJyBbb8EboA2qbO4nSLsFTkpyNlVrF3ZeHoHTzfI6hXcCoBMihxz70/5YN/+znqQvC8ni4cISgtWKVi+kzJzmlHZwc6Uy5vAW0MaQ50PFXsjROSWhf/cOV/pL+nGyEcPM9rfRhjRaZsk0EtgBpjW1HDVAcg8gm0zBZmDt6V4LoCx5WUqmXK3TWkH9BMFO/4T3/L409s59SBPiqeS8lx8BepUqYBOosdnQp08nCfF9Ao5oB0ue69b2Ftfy8Iied6+bxRG0RTJASTw7Dp9CFa0x3tUAWem0H1A4+u7i7cehXh+dxwy9f5xK13cmy1zFH1KoHjEDjOjFWoBaT3c9nRhQM11pLqLGwaS1N2hxE7U8Mn//KtrO/pxghB4AdIKbGIFkDbdrRz2K32iTraoHquxHMtgedQrVcpddVwymW2P7Obt1xxLdHoGH8w0EfZzRTq5cNe/LYDVcYQKs3BNGF3M+LpMOaaS87n+FWDIASlUhnH8/MAW2CFmPQPW6UHW5Qh7LRhS/sUh5DgSoHnCjxXUqsE1LprOJUKrh+w5a8/w733D/F7PV30+D6eM5HfL2bGtEPHtDCgtGqehkhnc0K7woinmyFvfNUf8cqTT8RxHcqVKo7nI6WT22eZZ+hichVnilrtlMJEK/7I41JHClwng1ryXer1CuXuOm6pxP0PPsyH/v4GyhaO7qoRSJmr9LccaKZQS2I0kdLsiyKeDSMq/X28+5z/wDGr+5FeCS8oIV03/99FKUm0BvQhQG17Xt/2KQrPLwVS2BZU35dUAp/uvh7cWoU4NVz63r/jF7/ezkldXfT6PoHj4DtyUXZ0Vk8/HdDpQqZOgKZGZ/FomrIzjBlJNevXrOIdr3wRG9avxvMzhyFFFvOIKUN/EtDixNrqBYeko6JwUllc6jmCUuDS3V2nVK/ilkrcdPud3PDVb7PG8zm2XsWTkpLjHFLNXzKgE55+4UBtnimlOvP2TaV4thlyQFm01qwaqHPZ687k2CPWId0ywnEzqG0qbY+UWllSDrVIBGzb43bFSpFlUJ5T2NIS9Z46pUqZJ5/eyaXXfAIdRpzc3dXK7Zcic1o+oHnolORAI63Z0QhplAJGx0Ncrenq72bL+Wdy/IYNGDxwHKSQuS2TbY4pD6PaCidZOpoXUdpqAC2o1iIkeBIcRxB4mS31Sz7SWK6+/jb+9dHHOLpWZVW5lNVJ5URzxLIDna8NbQeaGE2oDc80Qs549RmYNOKb9zyI0Ybevirvu/Acjj3iSLRwEUIipDPFphZZlMUaM9HjZEwr97etdNVgrUagkdLiSpspD0spCAh8By8ocd/Pn+DGL/4zrjYcXatSzovPjhQLCqHmbUMXDNQYEq0ZSxVPjTf4wOaLOf1lL+W73/8x/7jt64TjTbr6unn/hWdz9JFHoI0E6WSeP1erLeLSXJnGGowxaGOw+dHorClC6QQdjzE6sp+xsXG0jkm1JokUnispeT5uUMPp6uG2u77Hnr37WFetsqZSbtlRR4iOGiNW1MsXNrRQ6N4w5ukw5K82v4NXnHU65WqdHz34Mz788ZtpHBynr7+X91/0Go5YvQpjJdLxkFIicrtqbXsWZTBao0x21NqQpilJEqF0kzhp8N0fDTH0xA72HgxJohQhHSquwBfgOg7dtTK1aoXf7D6A1Zo1lRJrqhUqrpspVIhWn9RvGVBNrA3PNps83Yz5q8vezKvOeQW13h68SpX/c9+Pufq/3UBzdJwNR63lPee9nA3rViOdUu6oRBaf5gothrXWOr8blFJEUYRKxlE25ZsP/F9+8NCvcPJ5EtdzEYGPG5To6anSNzjIhqPWMNjTzc9+8nN+9cijuMYQOA7rqhVqXlZcc6XA7bA3alkzpalAC4f0TByz5c//jHNe/XJ616ymVKtireSeex9ky8dugUaDI1f3cMUbzuT5zzse4XitYW/ahrw2BqU1WilSpVBpSrM5jjYx9z78KF/5wUM4qcEruVx2xV9w4VvOoaurglOq5GvXZL4Gw5CMjnPzDV/grtu+StJo0khS1lfLrKlU8gqW7AjqAoF2Vm2aGjaFWrGjEfJsknLFm/6Ul208mVWDA1QGe5GlCjgB13/hG9y47WuUMJx6wjH817eeT62nO3sXK7BiMlCtFGmqSNKEJImJ43Ee+MX/Y9s9D6DCmHK5xNaPvIezLzgXZJJBtE4G1LFZjmpNNqmK4Cf3D3HrZ7/ILx55lF3DIxxbzdp4PDnRcTKTXV1EtanzTotiHj7NndLOZsSOOOaNrzmD1246iUrgUqmUqQyuprZ6Lc/uOcDbrvwbRg6MUql3c8v7L2fNmkFUqnLPnjkicqBpmpImKVESEUdNHnni37jxOw/QHB7B+D4fv/YKzn3Dq2nu2cO+Z/cxvHuMME7xHQffd6lWy3T31uk7bhV01TLQieWRHz3MF754J9/5/oOsl4Jj6pVJdVPZAdCO66HMY6VbS6F5GW8kTng6jCj19fL2V76E045ejVcK8MtV+o45Fq+nh63X3843/vf36V27nts+vJmeegWVpKgkQiuNyb250ToDmqaE4Ti/2L6D6776XUZGDqKs4SNXX8IFbzqPaHiYXb/exejIGFGUoJRBCrBC5IsRBF2VChuOX0t5VR2CMhaX0T37+fyX7uJrX7mL48o+vb4/oVIxuc6wqIr9vIC2hU0qD+x3hxHbGxFdvT1cfvYm/uiUE5GuT7mvj/7jjuLJnSN8/ivf4fdPOZk3v+p0VByTjI2Thk2szhySVgqjNEmaoJKIZ3bt4SO3f4vtz+xESckHN7+dS/7iAkQYMrxzHwcOHCSKUpIoQSmdxamtGSmQ0iEIXMq1AD/w0RiMsDz55A4+/umbqSrF6nJA1XXz1nM5qcdjCeaUOpwGKWqiOdBYa0KteWa8ye4wYWCwmy3nvoyNJx6DU6riD9QpD6yiGY5T7xqg6gfEB4eJxhuoVGO1AANaKbTWGJMyPNbg2lv/mUcef4pEaz64+WIuufTNEEc09hykcXCcZpSQxAlxnGQhlpkoXhdgkXnfsjQkcYRWKY3xkE/905cRzQZrSiW6fC/v53cylS/drOf8gBZQU22I8/buHY0me+OUo9YMcNk5L+XFp5yAXwpwukpEqcV1fWqlAJvEpEmap5MuwmbxqLCG4UbIR7Z9gx898ktibbn8kou4evPbcdKEeGyUxmiDZjMlTTVKKdI0C7G0acusrGktiMjCMo1KFcZowkaDT267Az02zuogoCfwCRy3lZ7apZqXn8+wN20dymlbGppBDdmXpgz29/COs17ES045DukK4jDCaIPnuUjHQRuNQCKli0DSjFOe3DvMV37wMI/9ajtxFHH2mX/I9R+/hsC1JM0mKo4Jx2OSVKNSjdI2z6ImMipjMidn8hTWWLAmC8W0MYRhxHW3fZnm/mFW+T59QUDJzZzTIeHTYjpHFqpSbcxEoG8MkVLsCuOsRlor87x1/fT0VAljRRwnNKKIME5oRtmHt9oQp5nZQFtcIdHWcvzRR3Lzx65m/VEbUCrEqpg0Vqgki1WVKkKtDJxSEwlBcTT5a9oYtFZopWiGMZ/5/B009h1g0PPoLwWUHBfPmQJ0aXqb5hc+mbYW8NQalM6cVWQyRzUcJUgJvuu0TrIogFhj29puRCu3D7UB1+WdF/wpl73tDZjCDlqNLeb2W7Dy9nMzoVStDTqHm6qJn5VSaJ0y3gi5btuXaew/QL/r0VcKKLvuofNPdgm675jnRgFToWqygD8xGmUtkcqK0KktqkVMnrFr2xlHIEht1oCWWDjttFN437veyNr1a7BCIEzRCNzWumOzKRmTl/d0AVTrPOMypKkmTRVpEqOUYmR0jE/f8iXCkTH6XY+B8jRAZ1XnPPpDJ6nUzt1gOVEgntzJrIxFWZN92OJnYzFtcx5CTJ4FFUKQmKx61VSaoF7hrRe+mgtfcwY2t7NCyjzWzJVjzESLpRX58LYtJ6WVRqkMaNhsopVi1+4DbL3hdkQY0e/79OcKzUqBE83wS9bB3FJp8W87WZEyxa4WYIsj1rZ9ATN8MXmL5GiScjBVxBhOP+M0PnzFn4NwAQchZZ6xitb0yKSlPEUTRUuphjRVaKWJwog0SfjlE7/hupu+RNVYBkuFl3dwhSyirFkWLSygx55D5sdnh9q+dtO2dejZNriTJuCmX3zRWobTVIqDScqwSjn21OP53F9fnuXnogAqJn1a2zY4W3a1cFK5QpUyxHGMTlLuvm+IL995N6t9n4FSQNX18POVee02dElXgRzanz491KkFhalgbdtzk23n5GzEkjmW1GaJwliq2B1GlNev4o5P/iWe52IsCGFBOK3RkH1TAkseg1qDUQZtTe7lDVplryVJQmMs5FNf+DaP/+sTHFMr0+P7HS8gW9Q6pU6gzgbaTvkmW/Dy1cjT/W7RkRJpTUMp9jRDxupVbr72Etb2VxmPQ6Tj4DheXlEq1jfkBiN3TEZrbNYQmVX044TGWMSeAyM88th2vvStH7IawfpaharjErhZh8msbTvLsZJuvlCn6wKZbbFV+9KcUGlGkpgdccLxL3w+px4zQNW39NRr9PZ0UatX8T0X13Em2tRTTao1aZIw1ojYuXs/T/1mL/+2Yz+79x1ktBERxyn9QrKhVqXqOQTSmQjqi9afORaELRnQ6Yb4TEDFtI/snJ3RJl84luRdKSNpyqhSaEBjEE5WP5WuRMqi3TGr/GuVe3iVBf1KaYS1SANOHrVUPIfV5TI1L5u4CxzZ6tKbca5puVYjzxSfzmpjZ3xk58y8IpXNCIQ6m1ktYltlTGuZuMibyIqqvxQSTwokmYNxhcAR4OcLw8p5V54vs99rr4VOOyO6nOvlZ8qiOooEOpj1b4VceXmwaPdJ2noAlLVomx1VHv+K9tYeyCHmMKXEE6LVOObkr3lisleftsC83Ds6zAVu/mCnH/aTl4ZnitRtj81Uh5dHDsVwFW1de+3qk2RD35Uy2/lrrm03VmLPkcVCnXOJ4NQYdkply9gpXc/TJiST93pt3wwm214ja46ggDmd7VzJXXE6KaAsFKyd4vXb41jdWuM0YSJmtPZiyu46hdPJU8t2NTNDyW6eezeli9qqbTao7XOntu3J+ay/nC6OnTTUZ1GQoEhNc/XZdnNgW6+LhYVHM+lgeNGbCS7Iu4vOh//kBtzONkSYWgSe+OLt7NPji9tjVAM/XpLtLuc3tGenKTqCdKhyD/nbKdnEnFHw4jdsTYGbl2xD1oWFTcxPqvOSJjP27C8DTNo3ZF3SLYMXFjbNM8aynVNdAZDFrbVl8JJvat3pvqBiEa/OmcZ22E63RDAnNrVezm3XnyO7hE/edn0lLgzwO76P/aEXBmCFLl3xO3ilhekvXVHc8ourbAb+YLkvrvLv/Fogc19cpQ3q84H/stKX//l3dLWaFNjd0eV/2qDOdIEqN8+oVtQaHsbrKdk8A1JtF6j6dX6Bqm0dXaBqCtiBGS6hVuK5cYtmuITavpn+4P8D7pIyc8pXnaoAAAAASUVORK5CYII=;" vertex="1" parent="HNUfWQM4cpFcuZbpRHGg-53">
          <mxGeometry x="90" y="40" width="10" height="10" as="geometry" />
        </mxCell>
        <object label="Pair Stack Players" id="HNUfWQM4cpFcuZbpRHGg-98">
          <mxCell parent="0" />
        </object>
        <mxCell id="HNUfWQM4cpFcuZbpRHGg-99" value="" style="shape=image;verticalLabelPosition=bottom;labelBackgroundColor=default;verticalAlign=top;aspect=fixed;imageAspect=0;image=data:image/png,iVBORw0KGgoAAAANSUhEUgAAAFQAAABUCAYAAAAcaxDBAAAYAklEQVR42u2de7Bd9XXfP2v9fnuf130JvUCAZGSMEE+BwbFTGPB4TOwx2FMISWaaaSdOpybTzjRpO23+SOv+0ZnWmWmddtoZmrROk3acuvFr4nRSbGPHyK7cxpYlMCAsYx5GoLfu8zz23r/f6h+/fc49EgjQlXSFi37M4d57dB6//d3r+V1r7S1mxunWnQ/tWA/cANwC7Kgfm4EGb481AF4E9tSPHwA/3PnwniOne4O8FqB3PrSjAfwa8AlgC5ABvv6pgLxNADUgAiVQ1T9fAP4j8Ic7H94zeENA73xox3XAPwY+AFxaA3lxLa8KOAg8Cnxq58N7nj4toHc+tON+4DeBm4DJWhovrlevCCwAe4F/u/PhPV98FaB3PrRjG/CfgNvfRjbyXNjYvwL+9s6H9zzDUALvfGhHDvxW7XQugvnmV6PG7DdrDEcqfT9wL9C+iNEZr3aN3f0Acscnbp4B/hz4uYsO6Kwc1XeBexXYVovtRTBXvnwdq2/T+hd3EZOzXg64RYGbLwJ6zgDdMQT0Yrx59kuBm4c2dNUAlfq//08B3aZ1RiSrBeZr/f6mMmp7ywMqwKRfTcl8refsVKQMxtNhs+H/hm8SREBElg/jLebuLwiYrwWiDX8GIwYjVhGL6XnRBKKooF5RFUSXAWYc5DexHztPIu8vKJi1KkezBFxMQJb9isFiSdGtsBBrwRQQUK/kLU/eyXC5oi6BLCqoLr/uQoHqLxSYZoZFsGiEkCQxFIGyH+jNFQwWSwieyclLaLcm6S4u0O0u0Kv69JsFrekGzYmMrOVRr4gYOEVcLc28NrCn2vFzDaq/0GDGYMQy0p0d0D0xIJSRmam13PX+9/LgfQ9yyw23Mj01QywrXjzwUx777jf56s6v8cyPn2L2wBwikdaaBp1LmkntERQFsVeBuhrRhdzxiZuLmolfNTU3q4EMkaqILB3tM/tyl+n2Gj74wQ/y63/z42zfei159mriqwoVg6LPcwde5E+/9CW+9OXPc3T2FSY2NJlc38I3FfWK83qSXT3dns6xhJbnHNA3koKRrYxGKCJHnpunmIvcfdfd/P2/83e59cb3oKLLdvM1pHv4fBUqnnl+P3/0J5/hka8+wqLNs+byFr7pcF5HtvUN93TuQC3d5tsu/afnKvV8w43X4c9Q3YulioWDPT58z738y09+kndtuR6nLnnz03js8edVlXUza/m5d7+HNWs38th3duKahhtFAelz3mhf59AURF0tyTzpNXVoVA4CPlfef8dtrJtaj0g44wheVZloT3DrLdeS5VAVgVDGdNIMxOSc7f/NpkurAuZ4oG6QVL6KiEJ30MM7S56aeObfL0qo+sRQEYqQzAqG2Pk7jvMG6Io2YcvqGw1+9Mx+ROIYmHZGHyZEThw5QjUoR8nBSu3j2YK6+iyT2eiA1QnRhD1PPEmweSCMPU6V1EH9/KkrABVP7dvHoAyjtHTZvPwMpZ5nezbFKRi8cvAQB18+wOWXT9VAOiDw+Ev7ePSpXfz4yAvMh+N0pMEtG67lgbvuZ13z0vq1htFj9+49iBjOJ6dGbVpEVnZcK/X8q1/2GMaFklJFBBaWlnjqR/vYtOkqRBQwjp44yr/789/nxeoVaILLlAOF8cKzh4lN5Tfu+htADgRinGPvUz8CUUQVEUlwXACGSs+ZdI4Ijlql7TQE11joIyqoCFUVeHLf0xi9WrVLFnpznKjmYFqQpiP4iG8aNgGPH91PZKF+bcHhYwc4eOgQFmKt8vVXyRuRMXZa0FeqfWcnoVYbfau9d1y2jzKk2XRZIsfVSARUBZcpsYzsfnIfZl2QJuDIyDBRtAleLB1iMCgqjGpkZ80G/OTH+xkMBjTyPOXxKoyyzrE9jqIMM4jp+fF9ngtK0K9YOsfBrDOfWEZClTIh9ZICbK+IgMkYrynLEuubjlgK+/e/yOLiHFOTHhFoN9o438DpEk6StRRS9tN2Wa1aCdifPPciKjqi94ZmxQyIlv6u6cFYRUIZCSHiXL0/BXWKurHjk5XZUr9y4UxgxmjEKjFFvfmCsmd47zAJZE2Hbzh8rohLpGU6NlvGVtMJOT47z+GXX2Fq2zQgtPKMhjh6GKYg0UY2ctK3Ro7LKDnwykFMxzjVGIlBMYu11KVAvyoCVT9Q9ivKQcR7T9ZWGhMZMQRcpqjTOhSTFUmqX6l0jiSzSgTH4tEB3cMVf/3eB2hPZzz6rUc5fuQoRsQ3Hc3JDN9wIxNgZoQyMlgoKboRGpHDB49y9bYke3mmtJxnzlIIZDWJjHimdKr+I8WuRb+ECNUgfZ46QV2sJROqQWCwWFJ2K0IwOhNt/tqtP88tN97Gf/3sZ1nsH6c17Wu1N8QlyRzWv85ESv1KpdOMmlU3im7F4rGCD7//A/yzf/QPyPMJ7vvQx/jMH/8xjz32GIuHT1D0Shqd/CRpLbolg6UKInTyDnk2jeDAFKeeCZdj0RAMQUdqOJO1IERwgkrG5k3voJ036FtgsFhhGC5zCfLK6C8WFPOBdqvNdduv49d+9W/xC3ffQ7ORsfXKK/jtf/E79E7UJ0LTyRva4dVxSgY2JIXLSPdEn41rZ/h7H3+QyYlpMj/B+258H7d96nb27nucz33hc+zc9S0OHztI4YoknbWZUBW0qdxw3Q6u2X5bbQMAHJOujVpETZIjEcOsoqkeQgnaAGnzgbs/xGPf3ce3d3+fXn+RUFV4HxFVMp9x5caruP1Dt/MrD/wSt974brxmiUKk4M47buPWHdfylzu/h2tIzVK5FfulldvQWkJ78wXdE30+9pHb2XLlZjIndaOvkalw6/Yd3Pjb17PQW+I7u77Nl//nV9j7xB6OHz+Oo2Jqcoprt76LT/7OP2f6kvUQT9S8DXS0gQWrKeNa9dQIMVIsdMlzoJWzees2fvdTv8s3d+7ih088ycLCIq1Wk61XXcVN22/muu3baLdbqOpyuioljsBEw/ML77udxx7bTdkNxClDoyUplTOXUr8i7z7kM6tIf74glrBl/Ubyqk/sHUK1AeIgU1QnyX2TtZM5H73nPj56z30YRre3RKwGNLI2jVarPglLEAsISlVaUmlALfHwYJgKsYLFuS7trCIvS3Sqyfo1m3jwvvt58L77X4fyK4EeVs5SlBVlWVAszXLZ5DRiEKpAqCKapWhiJXbUr9R+UjukaKA+4/J161k89jKD4wcpehX9fkFzaorpTVfRmF5PUXlKhIbP8TSYaE/WLQHjjEnEBhmUgSpU0BBccCCCR4hmKJF+2aOoHMSIaxkaIvhYZ1mnEJRVn1LnEe1TLp5g/sAh5o8fI1RlHQt7GibkmlOFAaGIZI0U+iUxXQWVNxtKqCECnXaLtTPT9BYXWAyw1C3p9gdw/CiX9iN9/1P+9Ilv8Nz8K0y0W8x0pljX2cjlM5exaWYDazoTzLTbNHFQBhYWu8yXS/S1R64eE0MAZ4pqYM6O8NLxl9jQ2UjPC9J7iV75AseW5jjem+NY7yiHeyc4uHiIo0vHaNLnV66+iys6G1iYX6Db66NEvCqNvIGI0swzFhiMtE9rsybn3YYOQyZbjtMnG23azRZzcz26g5KigrKqaDhHGMD8whzPHnqWwWSg0h6zvcP8eH4/2UEHJagomQjecgYYkkGjZSzlJeKTwikpQDeF58pX+NyBrxL6Of3QJxYlJiUxlgQxLAdxRgQqgYXegONHukyXXRaXugyqCmIg844qpjK2VwfIqJqwqpmSDevodUPC9FQbxbGwOGBQVUSDGCO9osIsI1hJ0ajQtiJZRFVxLSVaxDDKWFJQOzMBy2CQRUwMX9cxl9NCpUeXXliCNlgQrJ2yIyWlZIakcMtSedm8MVtFymCUldHvDzAzqioQgxEimEVQW86wVp2+G+bEIdJqZIQYiCGMbI/FmAaaIsR6w04FUQM/llNbYtwT/Zm6QcyAIPjha4fUe0yAJjtu2JAeNUFMsJHzMVSWdVa9o6SgqgJVFQlVrJnUSKWRGE8mSszsAgBan8oIVBYJoQKxUY1jyNZUViLRcJohogix5okFNcWIycFZTKBggCbgAa0JDDMwNYiKARUFIaZMScxjokkiVbGYtkLUpM7UQT6RdBZikmIDsTi2X1smTmyVAD3piyTRb91+iVmSClUhBlARnDoGZZe84WjnDeaLJZrqCRZH5EgwRYLDohJjxGWCSf3vLgXamU8gRQNi8rxZJQyKQBGMgKTMSLX2zIEYQ9KOADrImO50UHEpkQCCRWJ0VNEQ53DeY1UtnXISdXseAbWTuc06Vabb7YMYWe6JVmEiiPd47ynjgExbbJvawuNzz6LBk/ucyUabNa01bMwnWJdP0xFPZjlBK6JGjhc9nhjsY97P4lwEZ8QYiZWwMW7hjkvfQwulWyzSLwtKK4jBKGzAkhbMVYscXZhjrt9lTXOKqU4rsUpeyTKHi+kAvFfEK41mji1cwBKIqKRGLWBpqUco+nQmJwBHDIJ6h/oM9YZScdema7hlwxZydUy3O3RaTTL1uKg4XM0oeUqrcJmjqhocf2GepTiXyhqAaUUYZFxabuRdl22hmQsxDqgokKqkCiWlDQgEsECxNtDt9+mXFV4VseTZtdXE6vJy7gVxbjnlNcYInNUIm4Y5U00gmEG33+f43Cxr10ykA88U0Qx1HnHgJdBseNZqhs+yJMFxgFpJUQSshBCMfjVIKp636bTXJuYnRDJ1iDqiCUaGU+hVcyx0Z1lYPIZZIJeMZiPDeUsW0iLehIlM6DhHJFLFiJeheQGzgFOjiiXdbq8G8+xaTv0Z4jiyLakmlFjugsC+lw5w47YtSDOdbVUHquAqRCJRwaIgmsKlot/HyopBUaIRBkVJMPDNHOcznPPgwQXFO4fiCBIZxAAZiA0Y9GYpuvMQSgZSUYUGueYAZLkjy3LEhAioRLwDVAg12RKjIOoYLC0yt7QEWVxu35ExMyfnUUJlxEsmCc3bjmoQ2b3/JX7xHnAOnAqZA1ydDYtQxMjBI4f59q4n+Nb3nuEnB+aogrB5fZtf/didvPfd2wllQJzSabdpNVuoKQ5Pwzm8Uyo8fSJtlzHRzJEyY6I1hcWSpf4CTz7zHE/sP8SxuT6tzLP96nVcf/VmNqxfh/dZiiiqiBMlWMBMEOc5+PwJFhe7tGaGDL6sjoRaii8SXSCCeiHvZFRF5Af7XuC5nx7i+msuT2dfjcwLRYjsffJZvvDV7/Gd7z3J0YUljMSMi3McefEEL/zRV/iNqse9772ZvNOmMz2Fz3JiUJwqrWaOFygMNEaaPqPZaUJsgnfMnTjCFx75Ln/y9T0cOzFHrBOBxjdgcqLNTVdv5sN33sj7brmWyXabqgopVjbDKNn1+JMgAZdnyS8MC3214Jx3ghllVIfJmo687Zk/0uUzf/Zt/vVvPUDWbNCtIk//6Hn+zX9+hO8/vZ+i6uO9J2/nuNyhziUudb7k8LFFPvvILm5655Vcv2EDrpEh6qgGAd/xtBoeVcNKcBQ0m4prOfLQJmjBcwcO89/+125OzC2i3pHnnqzhgMj8YMA3d+/j27v3s/XKy/jFj7yXD7zvWqY7TRzw0yMn+IvvPklzOqM5laNuDM3VIphlWNV0qV6etRzNtmfn7qf4/Ncu45abruZbu57mD7+yi9nZebKGp91u4xuKy+veTaAqjEHXqPqRgwePc/D4IjvyBprlaOapioCf9DTaHsGIojh1qBiu4fBumigFLx+dY7HXR70jayYz5BuJ+fdZxGdKKCL7X3qZf/UHX+YvvrOVj3/0NjZftoHf/8Iu5gZLdC5pkLd90hxdWQy6Qhs6LBGkor46weeO1kyOSMHv/fdv0v7SLo7Nz+MyZWpjB58rLlOcP7kq6RuKmdGfK7EYmOhMknfWoo0WASUOShq5I29mGEZmJbl3OOfwzuMbnmieQRRCGXENpT3doDGRVHdkqqJRlZGqHxksVex9+sf8w2eeZ6LZohtqMFs+FelW04YO7eiyY0oTGT4f1tmhWKroh4LJ9a0kjVmSSBmzTcMafghC3soIg0CuGe+4YhN5awJ1bQZBqGKJbynaqE9AzPBNQ3zENxvgFfBMzkyBgfOpgpm3fD0hspwCZ9EIrUjecZQ9n0gRLZlotWh0PFkjATry8iqrV0YeSilqieHJdNRg4BsuBcTCWJ2cUQNsnTITQ8RieoQycMn6GTZdsQXJWqjmhFhRVl1aLSH3SrBIVkt5iH3wHsQhBpsu28QwNk+mqA7pXN28YIZEQ52QNR2NTmLJRJLJWj7p9VTJWTQ8rIy+k1pKEVBQD6JpMzGkvHs8zBrFdVpTEHVsJ1VSxVBENm9cz9Ql63HaBDLMSgob4JsdvChOBLNAGQrmi4VUYsEjolx55WYaeY6pjTpSUp99OokWE6CjmHLU8iijsZzReI4sC8NKGsZWzjaNnGACVUQwNdRxcs+QyHL2MdbBMcy2QhHBhK3v3II22qPu9BBKnAyw0hNCA1VHr7vEyy8dYePaK+sPT6Tw2g0bWbd2hqO92VGM7LycZA+1njwZtuXZWIIyHG4Ybx26MPSdLHv8uso7aoE9KbkSGdnOYZFvCGgMhqjj5uu3I9IcXR6q3ehwzdrNPPvUT5h9ZYmiMo78dIFyrsENNw8vjSKAMjU1zdZ3XMHRp+eWtUPlJO0wE9CUaCyf7DGtluXsKJm01W5nlOUeIDNblsDXMj2j1xoWRzpHDAbR8OK4+Yab6vZEByi5m+CBe3+dg4cO8fKJl1jod5nevIZ3XraVNZOX1N+Smm1Vcm599w381b6nU399qEVQx8cWayL6TR7TBZHQUZl1PAi2V+f+oz9NRmI8nFUSgfZkhy2bN4+9IYmZdxNcsWmSKzZtG/uUatRoO/wSM8ett1xP/j++SKgiYQionVJGPnWP8joZ4Wr3h75+1P86mx22PQ5ZcRGuvHwT7YnpU4Aa31411ip+KhIpPrrm6quYnpykKmMaun09yl3O3xTzWQO60rM5KvSZsf2azcRoY4Pxp4q5nnKmxoJ2CxiRS2amuHrrFagum6GV1IbOdgjsnEjoSjaRpoeFGIxLZmbo9hcwGw4rhNeQVk4BPDVGpNmmSDPPuPLyDaiSIg3sjFvCz8VE3TnrsR/a0zcLpghoJrhM+OJXvspkS/nlBz7KZZddhUgTkewUKT0ZSAhJOm3AwaOH+frX/zdf/8b/RRvL4dKZeOpzNZ64urOedYNuyq0rYmH05gbMvrxE1Yusm5nhYx++m19+4D6u3X493k/WNXk35qyMGHssLh1l7569fP7PvsajO7/PXHeebFLpXNKkMZHh85SXpxZFXRUwz8vw7OuCWmcoIdaOozKqQaS/ULB0oqBYKohmzHQmuG7b1fzSfR/hjjt+nvXr1iMoc7PH2LP7cR751l/ygyd+yPMHD9IbFLjc05zM6vn5xDSlbmR5wwHat/w08uuCOhzttjTanUBNrdplP1B0K6pBpOiWlP2IVtBptZiemsY5ZW5xnsWFJcpYoLmSNTPydkZW03W+6Wpmy42B+foj3uca0PM2p/SaNlWGzw+rpom+83lqFXeZUvVTr7vLE7hLVZfF2e4ou9JcyLPEXeZtn0a5M01DEkOSQ8c5YlmRnb/gTunNgjqkxFSF5SxRRjUqdYmxak5maWJjdDGXOkfPFF8DqE4Rz4ge1DHq7Y0Y95/Zi7iMgzpekxpdSMANpSk1dqkK0Q9jVDe6YMEo66mBoya5xdXAjqn3iOh4jTTSzvN43aqMJp5O/YeWzWpeVVSI0ZCwfJUcc6cSLWOt2spJFxpAx1gjkQtyTSdfX0t4zfm+pNRJknGSbbMRYa2WJA5nJ3XnjcrjMv4BNka9nXL9Ji4ImAYseOAZ4D0X5AqNQ0kyRqSJmkDdkTLsTHsVl1GTvyLnjiU6BysC+7S+0nW8oFuRsYsMjne+1a46zb+P/50c2ZDpeguAOQR0r68BDecjFj1jluqU3+W0L3hLrgDs1fp2DIGL61wA+gOtbeiemnS8uFa2qlown9GdD++ZBf49cOiC29KfzRXrW1n8h50P75kb0jBfrC+93r2Izxmvbo3dF0cE886H9xTAp2vVH1zE6E2vQY3Z79UYLjP29b0sPg38H2Duovq/oZrP1Vh9engfEE5z+5/twD+5ePuf01N0tb9549v/jIF6uhtU+VG7xttj2aj4v3yDqufrG1T9lzd1g6pTgF13mluoNd8mgPZPcwu1o6d7w/8DtiO2paB9uTAAAAAASUVORK5CYII=;" vertex="1" parent="HNUfWQM4cpFcuZbpRHGg-98">
          <mxGeometry x="480" y="160" width="10" height="10" as="geometry" />
        </mxCell>
        <mxCell id="HNUfWQM4cpFcuZbpRHGg-100" value="" style="shape=image;verticalLabelPosition=bottom;labelBackgroundColor=default;verticalAlign=top;aspect=fixed;imageAspect=0;image=data:image/png,iVBORw0KGgoAAAANSUhEUgAAAFQAAABUCAYAAAAcaxDBAAAYa0lEQVR42uWdeZRkVZ3nP/e+Ldbcs1agWARaaGitErV7sEWwUVppVBzQFhdaQZg5UrSFjMs0djf2tB7LDbqVYWlKRAc32sFRGbEP4oCiTgrYHAWZBgssaq/MrMyIt91l/njvRUZm5RK5li1xTpyXEZGZ8eIT3/vb7u/eJ6y1zHS7atOmQeD3gRcCL8jvRwEBz41bDDwNPJzfHwIe3To0tHemPxDTAb1q06YAuBh4N7AB8AA3P0pAPEeAWsAAKaDy43bgvwO3bh0aiucEetWmTScBVwNnAWtykIf1JqZ8wsN8U8Au4F+Aj20dGvrljECv2rTpDcCVwKlAPVfjCkMTCyBqVxq2AcaAR4DPbB0auvMQoFdt2nQicDNw2krYyEMAiiUaoCsLOAZ+Crxr69DQ4y2gV23a5APXAW8BaisCUayQBVx+uOPA7cDmrUNDSQH0TcBWYO1yDHOxkhDngGuXZ/g/C7xv69DQHWLLxo09wP8CXrLUDmi+IMVSjPbDA1YBDwKvFVs2bnxJ7rGqK2M3D5NSl0+hxa0BnCm2bNx4GfApoLQy3vwwDn27rEgj4EqxZePGzwHvzIN2fqdVCmCXDWkK3CK2bNz4Q+DFgLPywfphALt8KtXAT8SWjRv3A72HI51cCahiOoe1PCq1wLDYsnFjslLDfVqgQvxWDH2xNLFq+twF2oIqslNoJQFiMcnA4QWa8RT5Z5lQjJ1if0T+eysaYokF2dvDrFAhsNZiipTD2tbjAp8UAoFAisMAdv72duWBWsBa21KmtTYDCShjiI0h0QYhwBUCT0pcKXGEQOb3AqxYqRPuXKcrCzRTn2idnrY2g6g1oVIcjBNUEOB4Lmq8icDiSUnZcaj7Hr7j4LaBdYRYNNiOnFHnUFcGqM0VaKzFWEitQeVKTI2mkSoOJgn7o5hzL7qQC956AXd9/X9y3z33sXvHTmrAQCmg2/coOS6uI3EQuFLgSDkvxU4K1WxmLDtC1Zk9XX6ghU001qItRDpT4niaEBqD1prAcQHJvjTlH//HTbz09DMQImJ87AD33n0vX9/2NZ5+4gnCZkggJQPlMr1BQODk5kDKbF5mDvs6Y1TRaZlvbnu6PEBtO0xr0TnMUCkOxBEHkoSuo9bzqgteRxwlPPS9+9n11DNU1w1yx7dvo1rtwdoQEBjtEjfGefQnD3PXN+/m+//yA0b27ueIaoV11Qolx8GTDq7MzMCiQrS5hvbcQ3/pgbY7GmPBYFHGMpok7G1GxEYjA58rP3oNrzv/vGzIWcHPH3qIDesq9K47Iq8zKLAyK8+KAHDQSrHvmR3c9Olb2Hb7nRxXr3JUvYYvHTxnwnEtKt6da2jP/vrsQOebPRS2UluLNpbUGFJjORBH7GqGKG0JPJcjTziaG792E119vXlNoZhxOQi2CQdGIAzBdcEvQakCTl4MC1zCvQf5z+/8ED/94U95weAAVd9rRQSFTV1U8tA2tOeZus4FVHQcMEyCaS2x1owmiv1JitvfTb1eh0gz0N/FO6++lNP++I8zgOk4NEJQClQCxkAagTZZMVw64LlQ6YKgBNKC43HvXffzgfd+lF4pObJexRNykkrFRLC7qFBpeqAzqnRmoMU3O1sjxMR7tzsem4dAKbvikBNO/0PefcXFrF3Vg0DTP1ilXB/MhnW0H/YMQ5Tmbyrb3twWZ54dpYRaDaplcD3iRsLbztvMY49v55SBXuq+h9sGdS5ldjKRmiWmM/zO9CqdDehEaGHnsJe2DeZIHLM/jImMoYlly0c/wOvPPwfpREgpcmYpqBh2DmfqFPk72CIdKkIa2zp5hADPgVodqlXwXD7xweu48ba7WV/yeF5PF56UWSIgBFLKWSHO5kzboRUa7VCl0wOd9O3ayW9lp3E+KreZY0nCzmZIqLO36l43wLZvfJY16wfBNiCOQGlIFYxHMJ7kZUQ7/bhqf1KQqbQUZECDgMeGfsnF77qW5ug4L1zVR8V1cYXM4tQ2WyrmGZ0c+oTtVKUdAD3kP+W5d16pUUaTWMveMGR3HOH6ZbpqPfT093DRe97E2ee9AuwYNMZgNARlMqCJzuxl62RtyxYXdkvkSm2dipSZo6qWoVQCK7js0mv58f0/57juGoPlEo4j8fNUdSFZ1GxQFwF0lqKvnVCnJvPk42nKTqP5k9f/CWed8QL6Vw0wuLaPyupVQAIHRmHPwUydWRUEjMGKiRO11rSAtn+zrSxI5IG7IyHwM6V6Pt/71g/58DWfJUBwXD7sfdfBz4HONwm1szipabQ19S8OBdpJmNGymcbQVIrRJCUuB/z9tZdxwqYTkV01hOchdJo5nL3jEMX5GdiWqQCLNRZL9lzLu7YzFYDMgUqB40iE5+ThVEBjPOHtb/sQv3ryWU7q76bb9ym5Dr6UC87zF6HSBQLNvXpqDGNpykickHgemy99PS9+6e9RqVfwgxLCdSDWECmMUpkDK4CaDK4xBVhaUAstZKrMQAoBwhFIR+B4LrJUgsADL+Cz19/BP9x6F+vLJY7pquFLSeA4rSIKSwZ1OpXOCXTuOR7T5owOJgmjiWIMy4XnvZzXnrGRcs0nKFXwPD8b2gasKdRpMMZicoDW5HebP247cYFFSIGU5McMqHQkfrWMqJTA93nqqZ1c9K6/IR0POaW/l8DJgLpSLhropGL+3MN+cUBTYziYpIwpxbDSvPBFJ3PlBWcRBD6u51Py/XzIylx9GcgMaJ7n60ySpqXOHKa1mQ0VAkdmIarrZFAd18ELAvx6GcoBVrhcvuUTPHD/zzipr5veUoDXptKFlvfsIUCnGfazAe00TbN5zJkYQ0MpxtIsI+o9Yj0fffe51GpVHMfDc51suCJyBbb8EboA2qbO4nSLsFTkpyNlVrF3ZeHoHTzfI6hXcCoBMihxz70/5YN/+znqQvC8ni4cISgtWKVi+kzJzmlHZwc6Uy5vAW0MaQ50PFXsjROSWhf/cOV/pL+nGyEcPM9rfRhjRaZsk0EtgBpjW1HDVAcg8gm0zBZmDt6V4LoCx5WUqmXK3TWkH9BMFO/4T3/L409s59SBPiqeS8lx8BepUqYBOosdnQp08nCfF9Ao5oB0ue69b2Ftfy8Iied6+bxRG0RTJASTw7Dp9CFa0x3tUAWem0H1A4+u7i7cehXh+dxwy9f5xK13cmy1zFH1KoHjEDjOjFWoBaT3c9nRhQM11pLqLGwaS1N2hxE7U8Mn//KtrO/pxghB4AdIKbGIFkDbdrRz2K32iTraoHquxHMtgedQrVcpddVwymW2P7Obt1xxLdHoGH8w0EfZzRTq5cNe/LYDVcYQKs3BNGF3M+LpMOaaS87n+FWDIASlUhnH8/MAW2CFmPQPW6UHW5Qh7LRhS/sUh5DgSoHnCjxXUqsE1LprOJUKrh+w5a8/w733D/F7PV30+D6eM5HfL2bGtEPHtDCgtGqehkhnc0K7woinmyFvfNUf8cqTT8RxHcqVKo7nI6WT22eZZ+hichVnilrtlMJEK/7I41JHClwng1ryXer1CuXuOm6pxP0PPsyH/v4GyhaO7qoRSJmr9LccaKZQS2I0kdLsiyKeDSMq/X28+5z/wDGr+5FeCS8oIV03/99FKUm0BvQhQG17Xt/2KQrPLwVS2BZU35dUAp/uvh7cWoU4NVz63r/jF7/ezkldXfT6PoHj4DtyUXZ0Vk8/HdDpQqZOgKZGZ/FomrIzjBlJNevXrOIdr3wRG9avxvMzhyFFFvOIKUN/EtDixNrqBYeko6JwUllc6jmCUuDS3V2nVK/ilkrcdPud3PDVb7PG8zm2XsWTkpLjHFLNXzKgE55+4UBtnimlOvP2TaV4thlyQFm01qwaqHPZ687k2CPWId0ywnEzqG0qbY+UWllSDrVIBGzb43bFSpFlUJ5T2NIS9Z46pUqZJ5/eyaXXfAIdRpzc3dXK7Zcic1o+oHnolORAI63Z0QhplAJGx0Ncrenq72bL+Wdy/IYNGDxwHKSQuS2TbY4pD6PaCidZOpoXUdpqAC2o1iIkeBIcRxB4mS31Sz7SWK6+/jb+9dHHOLpWZVW5lNVJ5URzxLIDna8NbQeaGE2oDc80Qs549RmYNOKb9zyI0Ybevirvu/Acjj3iSLRwEUIipDPFphZZlMUaM9HjZEwr97etdNVgrUagkdLiSpspD0spCAh8By8ocd/Pn+DGL/4zrjYcXatSzovPjhQLCqHmbUMXDNQYEq0ZSxVPjTf4wOaLOf1lL+W73/8x/7jt64TjTbr6unn/hWdz9JFHoI0E6WSeP1erLeLSXJnGGowxaGOw+dHorClC6QQdjzE6sp+xsXG0jkm1JokUnispeT5uUMPp6uG2u77Hnr37WFetsqZSbtlRR4iOGiNW1MsXNrRQ6N4w5ukw5K82v4NXnHU65WqdHz34Mz788ZtpHBynr7+X91/0Go5YvQpjJdLxkFIicrtqbXsWZTBao0x21NqQpilJEqF0kzhp8N0fDTH0xA72HgxJohQhHSquwBfgOg7dtTK1aoXf7D6A1Zo1lRJrqhUqrpspVIhWn9RvGVBNrA3PNps83Yz5q8vezKvOeQW13h68SpX/c9+Pufq/3UBzdJwNR63lPee9nA3rViOdUu6oRBaf5gothrXWOr8blFJEUYRKxlE25ZsP/F9+8NCvcPJ5EtdzEYGPG5To6anSNzjIhqPWMNjTzc9+8nN+9cijuMYQOA7rqhVqXlZcc6XA7bA3alkzpalAC4f0TByz5c//jHNe/XJ616ymVKtireSeex9ky8dugUaDI1f3cMUbzuT5zzse4XitYW/ahrw2BqU1WilSpVBpSrM5jjYx9z78KF/5wUM4qcEruVx2xV9w4VvOoaurglOq5GvXZL4Gw5CMjnPzDV/grtu+StJo0khS1lfLrKlU8gqW7AjqAoF2Vm2aGjaFWrGjEfJsknLFm/6Ul208mVWDA1QGe5GlCjgB13/hG9y47WuUMJx6wjH817eeT62nO3sXK7BiMlCtFGmqSNKEJImJ43Ee+MX/Y9s9D6DCmHK5xNaPvIezLzgXZJJBtE4G1LFZjmpNNqmK4Cf3D3HrZ7/ILx55lF3DIxxbzdp4PDnRcTKTXV1EtanzTotiHj7NndLOZsSOOOaNrzmD1246iUrgUqmUqQyuprZ6Lc/uOcDbrvwbRg6MUql3c8v7L2fNmkFUqnLPnjkicqBpmpImKVESEUdNHnni37jxOw/QHB7B+D4fv/YKzn3Dq2nu2cO+Z/cxvHuMME7xHQffd6lWy3T31uk7bhV01TLQieWRHz3MF754J9/5/oOsl4Jj6pVJdVPZAdCO66HMY6VbS6F5GW8kTng6jCj19fL2V76E045ejVcK8MtV+o45Fq+nh63X3843/vf36V27nts+vJmeegWVpKgkQiuNyb250ToDmqaE4Ti/2L6D6776XUZGDqKs4SNXX8IFbzqPaHiYXb/exejIGFGUoJRBCrBC5IsRBF2VChuOX0t5VR2CMhaX0T37+fyX7uJrX7mL48o+vb4/oVIxuc6wqIr9vIC2hU0qD+x3hxHbGxFdvT1cfvYm/uiUE5GuT7mvj/7jjuLJnSN8/ivf4fdPOZk3v+p0VByTjI2Thk2szhySVgqjNEmaoJKIZ3bt4SO3f4vtz+xESckHN7+dS/7iAkQYMrxzHwcOHCSKUpIoQSmdxamtGSmQ0iEIXMq1AD/w0RiMsDz55A4+/umbqSrF6nJA1XXz1nM5qcdjCeaUOpwGKWqiOdBYa0KteWa8ye4wYWCwmy3nvoyNJx6DU6riD9QpD6yiGY5T7xqg6gfEB4eJxhuoVGO1AANaKbTWGJMyPNbg2lv/mUcef4pEaz64+WIuufTNEEc09hykcXCcZpSQxAlxnGQhlpkoXhdgkXnfsjQkcYRWKY3xkE/905cRzQZrSiW6fC/v53cylS/drOf8gBZQU22I8/buHY0me+OUo9YMcNk5L+XFp5yAXwpwukpEqcV1fWqlAJvEpEmap5MuwmbxqLCG4UbIR7Z9gx898ktibbn8kou4evPbcdKEeGyUxmiDZjMlTTVKKdI0C7G0acusrGktiMjCMo1KFcZowkaDT267Az02zuogoCfwCRy3lZ7apZqXn8+wN20dymlbGppBDdmXpgz29/COs17ES045DukK4jDCaIPnuUjHQRuNQCKli0DSjFOe3DvMV37wMI/9ajtxFHH2mX/I9R+/hsC1JM0mKo4Jx2OSVKNSjdI2z6ImMipjMidn8hTWWLAmC8W0MYRhxHW3fZnm/mFW+T59QUDJzZzTIeHTYjpHFqpSbcxEoG8MkVLsCuOsRlor87x1/fT0VAljRRwnNKKIME5oRtmHt9oQp5nZQFtcIdHWcvzRR3Lzx65m/VEbUCrEqpg0Vqgki1WVKkKtDJxSEwlBcTT5a9oYtFZopWiGMZ/5/B009h1g0PPoLwWUHBfPmQJ0aXqb5hc+mbYW8NQalM6cVWQyRzUcJUgJvuu0TrIogFhj29puRCu3D7UB1+WdF/wpl73tDZjCDlqNLeb2W7Dy9nMzoVStDTqHm6qJn5VSaJ0y3gi5btuXaew/QL/r0VcKKLvuofNPdgm675jnRgFToWqygD8xGmUtkcqK0KktqkVMnrFr2xlHIEht1oCWWDjttFN437veyNr1a7BCIEzRCNzWumOzKRmTl/d0AVTrPOMypKkmTRVpEqOUYmR0jE/f8iXCkTH6XY+B8jRAZ1XnPPpDJ6nUzt1gOVEgntzJrIxFWZN92OJnYzFtcx5CTJ4FFUKQmKx61VSaoF7hrRe+mgtfcwY2t7NCyjzWzJVjzESLpRX58LYtJ6WVRqkMaNhsopVi1+4DbL3hdkQY0e/79OcKzUqBE83wS9bB3FJp8W87WZEyxa4WYIsj1rZ9ATN8MXmL5GiScjBVxBhOP+M0PnzFn4NwAQchZZ6xitb0yKSlPEUTRUuphjRVaKWJwog0SfjlE7/hupu+RNVYBkuFl3dwhSyirFkWLSygx55D5sdnh9q+dtO2dejZNriTJuCmX3zRWobTVIqDScqwSjn21OP53F9fnuXnogAqJn1a2zY4W3a1cFK5QpUyxHGMTlLuvm+IL995N6t9n4FSQNX18POVee02dElXgRzanz491KkFhalgbdtzk23n5GzEkjmW1GaJwliq2B1GlNev4o5P/iWe52IsCGFBOK3RkH1TAkseg1qDUQZtTe7lDVplryVJQmMs5FNf+DaP/+sTHFMr0+P7HS8gW9Q6pU6gzgbaTvkmW/Dy1cjT/W7RkRJpTUMp9jRDxupVbr72Etb2VxmPQ6Tj4DheXlEq1jfkBiN3TEZrbNYQmVX044TGWMSeAyM88th2vvStH7IawfpaharjErhZh8msbTvLsZJuvlCn6wKZbbFV+9KcUGlGkpgdccLxL3w+px4zQNW39NRr9PZ0UatX8T0X13Em2tRTTao1aZIw1ojYuXs/T/1mL/+2Yz+79x1ktBERxyn9QrKhVqXqOQTSmQjqi9afORaELRnQ6Yb4TEDFtI/snJ3RJl84luRdKSNpyqhSaEBjEE5WP5WuRMqi3TGr/GuVe3iVBf1KaYS1SANOHrVUPIfV5TI1L5u4CxzZ6tKbca5puVYjzxSfzmpjZ3xk58y8IpXNCIQ6m1ktYltlTGuZuMibyIqqvxQSTwokmYNxhcAR4OcLw8p5V54vs99rr4VOOyO6nOvlZ8qiOooEOpj1b4VceXmwaPdJ2noAlLVomx1VHv+K9tYeyCHmMKXEE6LVOObkr3lisleftsC83Ds6zAVu/mCnH/aTl4ZnitRtj81Uh5dHDsVwFW1de+3qk2RD35Uy2/lrrm03VmLPkcVCnXOJ4NQYdkply9gpXc/TJiST93pt3wwm214ja46ggDmd7VzJXXE6KaAsFKyd4vXb41jdWuM0YSJmtPZiyu46hdPJU8t2NTNDyW6eezeli9qqbTao7XOntu3J+ay/nC6OnTTUZ1GQoEhNc/XZdnNgW6+LhYVHM+lgeNGbCS7Iu4vOh//kBtzONkSYWgSe+OLt7NPji9tjVAM/XpLtLuc3tGenKTqCdKhyD/nbKdnEnFHw4jdsTYGbl2xD1oWFTcxPqvOSJjP27C8DTNo3ZF3SLYMXFjbNM8aynVNdAZDFrbVl8JJvat3pvqBiEa/OmcZ22E63RDAnNrVezm3XnyO7hE/edn0lLgzwO76P/aEXBmCFLl3xO3ilhekvXVHc8ourbAb+YLkvrvLv/Fogc19cpQ3q84H/stKX//l3dLWaFNjd0eV/2qDOdIEqN8+oVtQaHsbrKdk8A1JtF6j6dX6Bqm0dXaBqCtiBGS6hVuK5cYtmuITavpn+4P8D7pIyc8pXnaoAAAAASUVORK5CYII=;" vertex="1" parent="HNUfWQM4cpFcuZbpRHGg-98">
          <mxGeometry x="490" y="100" width="10" height="10" as="geometry" />
        </mxCell>
        <mxCell id="HNUfWQM4cpFcuZbpRHGg-101" value="" style="shape=image;verticalLabelPosition=bottom;labelBackgroundColor=default;verticalAlign=top;aspect=fixed;imageAspect=0;image=data:image/png,iVBORw0KGgoAAAANSUhEUgAAAFQAAABUCAYAAAAcaxDBAAASc0lEQVR42uWdCZBb5X3Af9+79HStdrUXa2yzPjCYYmK8EId2Gq5wFCgDGdoQMk25eiTTGdpCoZm4JWk6UIgzNE3blJIE2oSBtgwp4bCNMacnMYE1kAkwIUDBF77w2t5D0js739N7u2/X2l2tVtJyvJk3kkeW9Pan//3/v+8Tvu8z2XFDX18ncCJwMrAyPBcCCT4eRwnYBrwcni8Bv1zb379vsjeISkBv6OuTwK4C/gQ4BtABLXxU5Ps+JkAlHA+wASd8fBe4E7h7bX9/aVqgN/T1nQDcCJwNHBWCnNNDTPgL5/iQYHcDm4Db1vb3vz4p0Bv6+j4L/DlwEpANpbHJ0EQNRP1mw5ZSOwi8Anx7bX//g0cAvaGv7zjge8CpzbCRRwAUdVLQ5gKWKv8CcO3a/v5fjQK9oa/PAP4J+AKQaQpE0SQL2Hi4Q8CPgOvW9vdbEdDLgbVATyPUXDQT4jRw/cao/y7gr9b2998vrl+1qhV4BFhdbwc0U5CiHto+N2Clo9oCXCSBrg49Vro5dnOOJLVxEhodw8BZEuifAncAZnO8+Ryqvt9QpEUZIUmg3wWuCYN2PtJSGkBtGFIZ9H9fAv0p8ElAbX6wPgdgGyelLvBzCfR9oG0u0slmQBWVHFZjpFR+5IAEajVL3SsCFeIDofqiPrGq/fEFOgpVlC9hNAkQs0kG5hZomecHsHAV4zpD4zDHEio+BFXAmdnbuQP6oYA584RgLoAKPkgsq3JG1UOtP1A/0BL/CGkUH4RMaWKo5peNZVWoqrOn9QUqQXoxqH54zVIiZQlLEQqKKHt2MVcwK6lHtWW+6e1pfYD64ZdJmJ589H0sz8fxPRQEqiKCR0WU1V0V5ecKzYNbVYg2nWpPr/r1Ayol0g3PouuxrVhiqFRC9wVpQydraKQ1lYSiBlIqAokVY2cD4c4o3p1Otad+fWqg1WYPEUxHSqbrUlQVzr3yIt54ZydPbXqFgwOH0DyHFkMnp+u0GhpJTUWL/ZFqDK6YYHebnjzEVHuGqet0QKsz2F4IVMIctGwG8fmL6z/PqWeuZti22PradjY//QqvvPAqB/fuw7EtPJ9AarvMBFldQxcK0d8+CjWU4lrgijGPOKtQqTLQSaV0cqDRLzvVIMRomUUC9Xxsz2WgZLG3VOT8c1dxzbWXkOpqx+juxiXB4L7DbFq/hQ3rNvPaa28yMjyEik9W02jVNXIxyY2kVI1LbZVmoRqY1TRSy4npJP+nspROBXQstPCn+TG9GNDDts2egkVLu8kt119Gvr2N9MJjSC1ZhDDSwVf5nse2t95j4yPP8tKWl3j7V28xeOAgeC6qqgS2ttXQSWkqhqoGUKt1ZFPBFNUI5gRokYxWKaWVgY6zO/74r/InASpPx/MYcV32FEsMOA5fvPRTnLf6OIx0hvzSJaTmHw1GAlQVNDPoungu7Nq1m0fuX8fGR59k5/YdWHaJlAJ5Q6dF10mpKgm1LLlxGzsprKlemxHQ8U+qkNIqgB7xSXGDXf71ZGXV9bzAKZVclwMli51Fi97ebm7+o8+QSKcwUxkyLW3o2Qyp9hZobQHdLJ8Ywem7Jd587U02PPw0v3jxF+zctpOBAwfJqwrzkkmSmhZIamRb6wmzGqizADpFNuMfebWRU7I9LzilY3p7aATXNLnly+eyaEE3qqpjJJIoqoquJzBTSRKtKYx8K2RzoCbwPR+hJPCKFkN797N7914e2vRz1j+4gfmuR0Y6L0UpQ43b1QowRU3xgD/FYIpfSbYmvuNIoLWEGRFQJwQ67Di8dXiYQR+uuPBULj1zZQBS0/UArKrpaJqGooEqY9NkmmS2BUUROCWbkuUyMjKEXbJwfJVvffte3n9rJzlDD4BqijJmT+sCs25SWh+g8TjUdj0KrsOu4QK7SxbHLu5hzTUXYqYSqJqGJoGqKoqqoJQ9TDmb0lQURQXfDZyTZ9uURoo8/MxW/mf9i/RoOq0JI4AZQI1fYx1hTg21kpROC3TmxYsxT+9heR5FR3p7i+3DBVxD5xtfupQF8/Kouo6mSKgqQhWBREo1l+9XpSoHJ8HcwOFDI/zv48/z4BP9KI7HktYWWnQJVARQ1QhiA2DGoY0r5k+v9vUBOjG4t1yPouuyc6TAXsvmd88+lSvOOQXV0FGFUgaqiOCMfmEhCyeKgu3YvPrrbfzX+i28/fYurJJDVldZkmshrWuBZKoR0AbBrFC4n1ztpwI6mx5PFDrZoZRKsHuLJbaPFOno6uD2L19CKpMMwEkgEl5gBMNYz3N9hKqhqDr//dhzPLDxpzglF3wvCJ8Wt2TKXl4RZcekKA0DGXdQ4ojoaUo7OjXQmXQCI7WPHJMMnw6F3t5WdW6++nc4YekCCCVRgg2zzfA6BUbCJN/egSV8vvqd+3hu80sYrkerLpifSQU2VA2dUhSTNq1oX50dnQh0vLrPtLUaD58k0BHb4f+GRhhwPS47cyWXn3cavgSqhkCFKL/HdVEUDdM0ybVmaDuqA9sTfO2OH/Lous1kUMibGl2pZKD2cU/frLpqlXa0vkD9WPgk1b7guOwpFNlZKLFkQQdrrr6YZCqJH8SRSuDthaZgFS0UVQS2NZNJ09aVJ9mWw/MFX7ntP9nw2LNkFYWOpEG7mRiFqtZYOPnwAK3g7Qdtm/cKJUqa4KYvXsDxvT1l2yTjUlVlx+597N53gN84dgEpQ8dTVFryrXT0dGK0teI68De3fJ916zaTUzXaTZ28aZCWIVgUjzYBapWOqb5Ax6m99PZhkD9g2ewYKXLWaSu48oLVgR3UFcGegUHuuHcd7x8e5tIzV3HWycdh6Dq+qtLW2U5+XjdmrhXbFvztN+9h/WPPkNNU8gm9LKmhk4qC/EZ2UucU6Jhz8ik4DodsCbRAorWVb15zPm25DMNFi7+/73G2vvoWqqJjphN86eLf4tPL54OqIzSdts4uOhYeTbK9Hdv2+cbau3nkJ0/SomqBTW1PJIKKVDxzahTUKT19JaBiksKCX8MXR2ovM6ei4zBkO+wtFnnP9ljzuTM4qXcedz/xAo+9+HqQXnq+EmRQ+fYM15xzMquOW4AiVFTDpKWzg475PWQ7OrAdwc233836dU+VoSY0Oswy1IkV/6YCHfP09QcaV/uJmdN7I0UWL1lAdy7FUy++SkpmTYrAdn1GHBfbF7Tks1x7/qmctKhLGlqUhElLWxtHLTqG7FFHBYH+3639AesefZqstKkJnU7TCKCKBkKdU6CRt/difSap+oO2w/uWFWRRWenRZSoahk5Dts1By6XoCXIdWa46cyUnLOoOMn3FMMl1tDPv2MVk8m1YJZfb/uV+HnpoIy3S3kpJTRiB91fCYvTEEl/TgdbLhk4sOkf2NAqlSq6H53toYVTvyYvzy20UGRG8X7ApeD7pXIqrz+njhGM6QWig6eQ7O1l47FJS3Z04js8td9zDwz/ZREZRyRpK4Kxagh+p3P8XMbCzDa9mbEPrCTTunPyYCYhaJRKi8Mdgysfo9YMli30FixEPWtoyXHH6CpYv7A7iVs0wyXcfxfxli8m157EcjzVrf8CTG54lhSClK0HrRHp/JWz2SWmNUlV1Fh3VOfPycbX3Y9LqxwYhxjX+QpWPpFg+lynr7pEiw46U1CR/cNYqlh3djhAampki39VF77KlZHu6cDyXG7/+zzy36WfBbSwSoiaHKRSBoSgk9bJpSWn6aIil1mBn5xzoRKjEZp5GgcquamRzwxqAE8INuqcjJUZ8yOTS/N5vnsjyhV0oqoaRTNPR00Pv8iVkujoZKha59R//g58918/hwZHAXnueh6kIWjRBVgg6k8lRG6sFBZqZDVfMSaZU+SL8yvXF0GFEcONSGrVSBkL1H3Y9zGySz59+MifM70QoBnoqRde8HnpPXEZ6/jx806Q4XMJHCzQB1+bQwAD9W/r593/7EcV9B+lOGLSZRmhjxSjUamLXGoHWXm2abb3Rj0UFTlj+k1Blw29/wWLQdUnlMlzyyeWsXLIQVU+QSCbJtufpWXg0bQvnoecy6LI/pavlz7QKeLbH1mde4Ctr7sAaOMi8ZCLIsmS4FtnV6SR1FtWmxs28iynaFXGg8UJ1JKnSUe0plBhyPMyMye+vPpEVxy0OAn8jlUJLJEik0kG/SrZTjESC9s4c+a4MRtrENTJs3vgcX/uHf8U+PEx30qQrZWLIOStFTAu15nooDZrfFFW0eP1YRCBVNlD9Uah+oP6y3z/kenS2t3HZaSextHcBWiKJnkiiGkZ51tPz8GXmpatkc0nauzO0tucxkxmefup5vv6tu/CGhpmXNgNJjSIArUJoNeuKfTOBTiYJEVjppNywzx9AdT32FUu8V7CwVI3TT1rGRZ9aSSKTRTcSQb9KhlbSJMtTSp6uCdItOtlsiraOdjKdnWx59nm+eut3cYcL9JiJoHJlhEMUalhWjKt1HXpK9VV7McNG2jiosaqVBCprAjuGCxx0fVYct4grz/ttkpkMatA6UYNugB8iKA+d+WiaIJnUSKZStOQytLTneXHrL1lz212oIwXmJc1gKjChRvUAZdLRmxq7nnMLtJKkSgmV6eqw7bC/WGKfZbO4dwF//NnzyeZyZVUNBtti7w1U38XznACs73sI38MwVNKZDG+8+x7fuefHpB2XLtMIMixdlZMpFYdlau/L11PtxSznjPxYkUUCHXEcDhQt9rsOK1ccz2XnfDqQUE1TRweDPK8Mz7ZtioUiVqmEwMG2LRy7hF0qoCdMcvk8L778Jhuf2kK3We4EBPNTilLfyZF6SelsYFZs/LleGWipxF7L4owzTuPs1Z/ATCTQDNm8U0el1JN217EpDo3w7rZtFO1S0McaGh7k4GCBA4eHcT2wfYPtb28nJxy6TZOEpo06pzrPNs0O6GTvr+UT42GUdFCHLTvo9ye7O7jm0s+wsKcrACptqDLaRhU4rs3+fQe49+EneHfHbrm6ShDjCq+8bIXi+6gy/5e9KsMgE435VAQ6y+m72ar9ZJlHLR8X2dGoWiWlVNrRbSMFFi7p5brLz6Wzow0vuDmiLKWSq+N4vPnOLm698z7s4WJQgNFVNRhJD2b95YikzPU1lZQ21vRT40CnlM4ZzIeOkzKfma0ZUkeYlRp/UkoH7XKPak/JZvmyRfzlFefS3pEPu6llYbB9n62vvcPtd96ParuYqkKradCqS4+uBIUTXVGD50EqGgb4avQ3xwYdqMcEM7H5z2rvaZ8uJxazAOqNpqRyqNcJUtK9JZsBy+L4Y3u58aqL6chnA1vrBV5dsPnlX3PHXQ+QBOalkrQnjEASozNIP8Pa6VhhWkyYga3TjH38w6pZKKCaAkOtUhpPSe0Q6pAjYZbV/7DlsGLFYv766ovIpFNBEVv+342bt3LnvY/ToWv0ykHfYFhNjA5KxOuj6iS3TNb1LpAjYVSGOpNOYz2k1Akr/xKqlNSBkmyvWKw8aSk3XXkhejrJUKHIA+uf47HH+5mfTNGVNAP1ljCjuf340G61N0TM6j6laqA2Y22micWTaA7V8tygFzVQsoOitDxPOWUpf/aF8/GFxg9/vJGXnn+DBalUUAs1FA0jnFBR4pX7aq1aI+6kmy3Ump1TvHgSqr7j+QFUmUFJmFL1D9oljl+2gD/83AU8vGEzO15/pxxjqlowXGEoymh3dMzx+tVeRGPu9ax8B8aRQCuH9bVVWOP3k8ZnqByvDLfg2Iw4Hodsi4PFEm2dnaQVSFs2WV0vF0DksG6k6jHpnNO7kSeLT6e0sZMX7WqGGndUbgysFeb+8jUZY5ryJglFHS0oj5swqfY++EbeLz91FjRNJFCHrv9EqPEZgKiDGv+G6G68yAmNayn7dYVZPxs6O7C1q3+8IO3HOqt+CFf+7lpoM+Pt49EBiKqANmHNkdlCrdvaq7Guql/heQQx3jIe59mnk7xmropTTQGl0WCPaE9PYp3FhOsV1azgUNtqjvaslmqrLncXYxcVY9uQYa4J4Y9fIZGOv+LXR83jHzow68UEa/Luor7qP2mXcop/+PWTyuiQt7w+X5flLmem2lPTFLMFWAtI6rJgq1zu8nt1W5C1trCpEZ5qhiCp2+q3owuy1nXJ4NrCphnGWH71VJsAMjpGlwyu+6LW1eb2s6+e+jW80hCYY4taN3LZ9Y/JKuHjl11vxsYAH/F17I/cGIAmbV3xEdxpofLWFdERbq5yHfCJRm+u8iHfC2T6zVViUJcDNzV7+58P0W41Mt7cU9X2PzGok21QpYUZVVOt4Rzup+SHGZAT26DqnXCDqnuq2qBqAtiOSbZQM/l4HMVJtlDbP9kb/h/tMKUZhBcaZAAAAABJRU5ErkJggg==;" vertex="1" parent="HNUfWQM4cpFcuZbpRHGg-98">
          <mxGeometry x="490" y="220" width="10" height="10" as="geometry" />
        </mxCell>
        <mxCell id="HNUfWQM4cpFcuZbpRHGg-102" value="" style="shape=image;verticalLabelPosition=bottom;labelBackgroundColor=default;verticalAlign=top;aspect=fixed;imageAspect=0;image=data:image/png,iVBORw0KGgoAAAANSUhEUgAAAFQAAABUCAYAAAAcaxDBAAAXlElEQVR42uWdaYxk13Xff+fe+96rpbu6e5aeheQMOaE5JMVNHG5KSMmMLQhBjMiSEwiJYSAJAjkfjECOmcT5EgRJvgQgIgdREMQRoAQIDEOAacGITUKxLEUJaS1ukiNxMRWKHA4pctae3mp5y70nH96r6uq9eqUDvcGb6urqqnrv/879n3P+59z7RFXZaHvq3LmjwD3AR4EHqv0UkPDTsaXAReDlan8JeOXpmZmrG71B1gP0qXPnEuDvAb8KnAYiwFWPBpCfEkAVCEAOFNXjO8B/Br7y9MxMuiWgT507dzfwT4GfA45XQH6om6w6ww95K4BLwDeAf/v0zMzrGwL61LlznwW+ANwHjFfWeMCgyQ4Q1YMGOwCLwHng3z89M/PMGkCfOnfuLPBl4OGD4Mg1AMoeDdCDBTgFvg/8g6dnZt6gb4FPnTsXA79eOZ1kP0EsdwHp73vIyIMvKD+7/LevhJ9UmH2hwnAwpD8L/ALQ2D8gV4F4UDyyCtx92BoVdp8FkN948MFJ4H8Aj+61A5L+/7JdGtjFaB/pD3Wv6aAAvgP8ggPOVma75958wGQ6GsD7ynn7A2R/c1WsftZUP9iDCuo+3NhrX7nGAh81wP0HBSirLPbDAFX2F9AH+oCaA4SzHHj6YQG7b5Aa4H5Tcag56NPSA7JWOTgrNX0OHf9Qc3M5iAu3+jvXhlCyN2cybvhp3QagCiKDSHnXycCHCqj+RQBVVicBfV7YWSpgPtzz+QuqAsrO+dbttwWqauXZy59XgFk9lyFw1+W2dYCXA0RXtpEQ7BugoQIrqFKo4oOSa8CHfnotGKk4S8qhYgagymD0GRFEFVnlSHQUP7fBRVr9t7qVterooLp9s8zKIoNCHgJZCKTek6viVQc8ZYYsVVUxYrACrnrNyHLKamV90IfTWhnCUkQwCNbIkBBVcaNQfa9szeYVqKOw/r5ZqKqSh4BGjnprHEEJWU5EIC+Ubu7pFoEizym8x2hAgg5ybtHQx5mgfepQREz5WIHnjCGSEjQrghNDZIXEWmJjiIxBQ/ma6Vu5rLLgIbB0syxrhLDZ7ROa1ZAWFnsp85HlxG238Pjdp7nt+BSNxJEbyCUiLzKWep4rcx2uzs5z4/o8c4sdrl6b5+q1G3SXlgg+UBRFeUbBY4wBAYNAUCyK9SUcVgQLxEZoOksrimg6B8Zs7AT7KCtbDO2th778xoMPZlXxbdcWqav4LaiSeY9XWCoKrmc5UyeP8NA9t/LRO29menqKiakmtXqdpNEgGh+ndngCxlsQNwBP6EG3nbG01GN+rsP8jTkW5ju0O226nZSsl9Np9+gs9eh2u/R6Kb2sS9ZeotdZYuH6HOnla5xo1EmsHVjq5lKD7vT1fFNAR2GNoDrYdcBRy6PK67Jj6nnPlW6PxcLTHKtxZGKMm44d4pYTLU6eOMKdtx/n9KljNE9Mo0eOIM0aSAMxERosiAMSlIAWOVqkaCjQPBCK8jHPCtLOIp2F6+TtLt/+znm+/F++xkfGx2nG0cqhv8kI080w0A0hzd0IbLylVQZVut4TBGpSDi1bZR+2EulDUCIjHKvXaOYFC92UP59b5OULl3HOMDGWcPPRJufOTvORW6c5OtWgOdGi3qzjTYRxDeJmi3qzSX2sRdIahyQGJyAGXFHqPQuztK++j81SXvnhBb7yO8/i83wNIIjsIlTaGBe3pXy4ufUPrG8xzzGHp2jPzTNlIxBwVqrsQYiMQQAripWIurM0o4jF3JOFQOjk/PjiAu9eavO/XvwJR8dipqcSbrt5gpNHW9QiS154jHHEzTEmDh9i+sRxxienqI+P4eIISbukly4RLbb5wWvv8aWvfov29QVONptYIwPLChXPykYh2CqvvgaGTRyU2yqa22rY+8qbd4uCsWadsYkGl390kSONOhJK70sVTzpjMKoYKZ1HbAwTsZIFJfWeng/khWd+tsP7V5fILyjm/GUmx5ucPXOUR+46wdnbpmk1amQIvvD0ltoU3QwrStZbgl7KS69c5N/9zje4Md+llSTUI7fiHFSVsCKMWgfYCrSNEVj/925rcbs0/40Caq3406tybXaOv/M3/ipfeeMCzcLjIsHosncd5i4xYFSwKE6U2Ah1G8iD0ik8wXsoPBZlaXaJ5290eOGlCxyerHPmpkk+83MPMn14Gt/LaXcXy89B+OaLP+Y/PfNtFua6RIA3kHpP6j0GsGLK2LbiUrsqU9soHxvVSrcOmwbm3386TNglQNYYBOHGwhInD09w801HaF+ao2ZtaY2UAXo/9rMIIoqoYhQCghAQY3ACsTE0nCULga73XM88S2mGFyG9vEBRQH1sgjip01lokxWesSTiT15+h//we8+zeKNdHqkRjA/YvEApP9eJoWbLz4+MQSu+N+uBOkBRRpZy3Egi5YqcTwYfr1KRu5aBdi/NiQycPX2cb717hfEoIjKCER3IZFIp9kJ5EqGfWqpBKms3KgNKcCJ0fMAaCBqYOHqI3/z1z/H4ubOk7TadhSXipM4rb/+Er/zhC8zPtxEbQfAoSqHQ9QGvBa7icWdgLHJMRBF1WwLrEAy6VisdwnItrGt/47Zdy1onoe4LGLlXEmf5S6eO87VwnsOFp27tiq8ciB1D+bmhtFIjy/ThQ8nPhSq2Um5bx6f57d/6AnfcMg3tNmoNrdY4P/ngOt87/yaTYw2OP3IPYhMcJdXE1mCNEItgbQWc8eSh4I3X3+RwN6cVR/iKVe0GYsy6VrrOsHd7FcyDUgRPM7b8zJmTlWV4PIpVRYeGlVTPh/N+kZJTgyhGy6Y3o9AtCtp5zrHj0/yb3/wV7rj5MCwtkmceK5axsXFOn6nz+X94M8lUi7jRJKjFK2hl6WL6bGMxPifvpmSdgq9+9Vme+72vU3cWFYOYkprMOny5sZVuOeRHF8Z0RfgEIobEClOHDnPo0DjZfI8ilE5Hh0BFlmlj2MOqMOBUFSVDyLwnHh/j83/7SU5NNrj06o/xqkRxjI0cUexwScL01ATSqEFUppk4Wx1gqAqClSCSC+TQy7qQ9phNM1rW0YojrAq66vy3Zs+Vf+F2YZ4rkPWqaAhkacbR+DD3/8wZXv7eK6QhEBnBK6Xliawrs8mwSoUOkoOatfREufjOe7xtclwtRuOIepIQxQkustQbddJOl7hRw7oYE0fY2IKxhIpacCV/5p0uvRs9unOLtOfbLBWBTlEwFkV4VZzqiuPZbu7otsWfG2DaD/BF4Ppim2M4nnzoXr4/8xqdwlO3pULUV402EimGpTiD4IwwmcS0Ox3+2x+8wMzp43z8npu459Yj1FtNityRRwl52sYt1TFRjEgMxiL9cY6U3xkUrwENig+BLPUsdjM8UFRKlg4imPX5cqNwdJhH3c4Tz2VQqyweEeHqfJfgA3ffepLxVpOFuQXGnSUxliBlY6XdoixSCsuKM4aatUzXakgv5ZW3PuD1965z2/EWD995nMfvPc2R8QL1CVleYJIGIh4Ri7IMaNAq/67kQUXIck8RysjBBy2z0cGA000LdZvh4nbHn8sRqTFCZB1z7RQfPM1axB23nOT5q7O08pyGs9gRG1T6gbYFEmNRB7YuJGnObJbz2oWrvHLxGs+9eIHPPHKaj917hlqtXjoiGzBigMpK1YCUoAqlpgCC+jKCCH262kQP3Q6P7phDV0Nvqszj2lybIs8Zi2IeuPM2/vjPzrOU5UwlMc6YkhqGyh0bfXb/dWuEGAPiMGJIrGEuy5nNMt59/wZf/qMOX3/5fZ74yE08evcpDrUmCFFCEFfGo1hEbAVWOfxRLTOxUJVp0OVGlup1dlhA3J3ALOWVEelnS4H5pS5FmmLihAfuuhUXRaWAEsrdig4J5hs3gvfjUyuCGjOwECsRDWc5lMTMphlX04w33rnKm+9d57mZt/nkfaf52H1naI2NQ5QgNsGYAGLQKuNThRAC1grGlvGqjtz1vLm97g5QHVLDKEOeTicj63QJY2OcmJ7kxNEpupdnyYInUYPX0pJDZQnD1U5Z3dVRWb2rvJ9BqjRWBinkROS41su4nmVc/GCW/35tkT/+wTv85btP8fDdt3F4rFSijIsRG4OUaXIRcoxoVQRcGbTsZtt1CUSHcnuL0ksz0m4PHwpqScJj953l2a+/QCf31J0jqqx10FcwBKqtgv5hB9WfwyPGlLqAEWwQcgngYTyKaDjHUZ8w20u5lma8/f4s71ya43++9Daf+MgpnrjvDBNjTXBJ5bAoL6wxqA+YaMTu9BG8tNtpyNQf7gzYCQxK6gNL7R6h8GjkefzeO3num99jPs9x1kAEzgSCQq8ocEZoRKWS3rdIU+Xcy9rMshWHQTW03IsQyvjRCHVrOVRLuNrtcT3NuHJ9gT/47o944Y13eez2kzx812kmG2M4F+Ex4DOMKJEYTKWp7aj5Yih0crul0H4/kBEwAkVQ5pZ6FGlOnMTcfvokU4emeP/SZTrtgmvWYUWIrOHY7bfSLQpmL77P8VoNnMWtmHuwkg60smADGGtLJ1fV+4sQsBIwAkmzwXS9xkKeM5t7rtzo8LU//RHfevVdnrjrNI+dvYWxRgNXZCQijMfRwAnqhrn8gTY6LKtHRQgsZQWdbsZYq8XkWMLtp05y4b338SJ4LahFll/65V/il//u3+Sdt97lnz/1r7ne7nG0UQcjlQgta7Opih7CkNNSKxgVnAiFGJwpwU20jGHH48B8XrBgC7qdjD85/xavX7zMHadO8JPZeaZrNWrWVsax+4kNZoV/0Z0GUDLgxCzL6eXK7FK3PMEo5sE7byeKyrCpbg1//dOf5PO/9iu0mo7bT0/z4P13c6HdYTHPqkA7DJzW6tjUVCmpFcEaU9bijSG2lsRZatZSc46addSspRU5jtcSzjQbnG7WORw5OvMdXnn1LdIrNziSxGWUImVmJjt0zrpXzWKDYV/VydM0JajQ7nmW2iliLI8+cDcTrXES63jkiYf5x//kV4lji0VpxAlPPvYQNkm41OmVbTtDVdSNsilTOaxhgAfAWktszQDghrOMOcehOGI6iTlRr3G8VuNwUiu1UGOIrC09/mYVUd3nIT/cgFHGjJD2MgrKsKjby8l9YGJijEceOIsvAv/yX/wjGo0Eej38Ug/NlHP33sUdZ07z5us/op0XRHEpVBjVTcoTy2lqX8kaKFh9kIdK3P2LlKxKRly/1iV7M0ls1xw6DKoFsiwl9x5sxGI342jhmTo8xa/9/c/RHG/SSiL06hzZQg+fFqhAzVp+8cm/wpfeusilTpeGs4NYdcsa+hbA9mtedtjidfmYXdVRYkb28Lo/gMqaTKf09HmW0csKJIppZzmzC23GMIQisHhlgezKIt32AqFQxlstxscbmMjyicce5Jk/+iavvf02rV6PE40GplLrN1OoRgHWiAzSSl1VOZBV1c/d9qy6tejLqDy8In3sS25ooJvmiHHkecaVq3NcujxPt5OCz4kiQ0Bx1pKmKc5NUzcNxhs1PvnxR/i/773H5W7KkVodK6XUhjHbmvezGtjhcKjfo7o67V2TpW2LOnWtl98hB68QMowRQgh08gIrShK5aigpmEDhU956710uXLlOptBNe8zOzZPmBZn3PPnEQxybPkIQoVMUy0pQtW/fYcrA0ZihCMEM1bIGjkhG9/A6Sti0m9CpBLVKHUXp5Sliyk65whf4oouTlE5vkW/92Q/5Py+9WvKssSx1MxaWOmRFzuHDUzzx2DkS67jSS8sG3aopQXfJ87Iq9Br26DIKcLp1yLSrsEmGuHPAoZVAstjuYnyOkYAPGUXeo91Z5Nnv/5AfvvM+r737Aan3FKZMHTudHp1uRlF4Pv2pjzM2OcFsXjCX5VUFNKxpKd+/TXY1Zs3OBvqwYxqKQ6uO44VuB9SjoeyQ6/ZSfv/587zw2o/p5QWFddRqNYyL8EAnzUizgizLOX7kEA8/dD9iLFfTrAS0H/Yc4MwR3QF/slezQPpt1v2h1On2MCHHqSf4jN9//iX+9/k3yDKPMcJEPaEx1sBFDuNKJ9XNUrpFQeo9f+1Tn2CyNcZiUfY79fVL1T3U2bYjJ+no5mbWfa9un5v69WwBsjSD4CEEnn3hPN85/zq+CERSdmckVoiTGGNMCao15HmO9wVFKLj1luM8+ugDWDGllVKVK/bdQjcTmXVL/tzEQnWb17WfcQgRkHa69PKC5198jW989we4oDSdpWGFCEUM2NhRa9RwVX0dUYqiKBlMPX/r059isjXGpV7KYl6UGc+Bcuko1qmjcOj2EnmpZqNZMdRMmTP7bo/f/fp3+Nq3X6TlIibjmMnI0nS26nwzJEmMiyOSWkStnmAiS5pnpSgiyqmbjvLIow/gg3K5lw7acrzuzyICOrTvxsDMhm/fxlGbahZGYg1H6jVuSmKuvPMBx5KYY406R2sxrcgNZmW4OKJWj3GJJU4ctUZMc6yOOEO31y3VJhP4zGd+nqmJcebTYsClfSVqr6xUNzvVzaxzg4Zbs3XBaDQOdWKIqzr6ZBJzpF6jlSSMRY6mczScI6rksSiKSGKLsWCcYBzY2FJrJKgEQihQ9dx26wke/9lHECNcrzx+0Gqazd6O5nVQ7hd3dFvvNpt+mTLSnPb+rDhbqTZWyhbwxJStgpEtLTM2Bitli2LsFGsUYxSRgLGKseAiQ573CEWO+ozPffpJDh2a5Eo3Y6mouHT/1g5Zd22SUa1zBA7VLRcKGHR6VGC6Sl+MjSGugLSrROE4cRgpSxZiAsYEjHhEClRzfMjJ8h5pr8v0oQYff+J+CgJzaVbV0Hc/5HUTq9Sd2/ZoufxmoPbBlKFmhz6ottqdlD2ag+Ka8RB6CBnGFAgeJwWRFBjK50WW4rOUvOjxsUfP0jrUolN4isrTs5ch1CZAbsc6tyXfVQ0sy22Bw4mark3cdEhsMEZw1fRAUWWp2+Pq7FXqsdBNM9LMk2VlttTplo+IEMUJtUjwEnPm1AnefvVNfBiKFbfd4SEbLDU0Ysv3CN7abXeYrAa1/ztBBq34MnTll8sUpmpr9Fx89wr/6refI9GcXtqjV3h6eQFiMGglAypWDGLLPiX1UFRdKjtTLGXbDmZjCtxDgVk3qbLKOhEAVSkiMmWcOhnHSLfH9dffRjWQB0+hyxODtaKQfqnZUPX1a+BYnAzmO+2lE9I9/Du3/essI9OBDvXSW1HqznJM6jRdGVcWGvDqBmWKMORo+tzrTJmFlTM33KBkIduqn28w23jUgHsbgbnb0SUd0UaGazvGGCQEsIZxccRGS+sMYaj7TVc4N1tRhTNCbCyRkUFoZkR23Hy5nSG83SXe3E6Hyeqz6R/yYPbZKj41QDAGG5bnI3k1eA19uh0ctumvptiXBKFcmMDIaJNfd6VM7AD0XXPoOsN7o9f7a4sMVm6opieGatKXVbsc7Q7Ve2RFN/PKfqY9AVP3kF93a6ED0DY4tbXWWvUkrZoMYKqima6Y/DgsXsua0oVssrDLyHiNwok7rAe5ai3hqe3W+LVcb3jDE5M1B1darKkqkVaWQRzOelZfpjX9o2xcndw0SNJRdc9N58NvBcmiA94AHtnJCo0DUNdZ4GgZGF2uOq3Dr6NYm+zguLZ6onvggFZtAfhzU610HXatcetW0tjyM9Fq30LBGrU1RtfTMzd4ovsDZh/Q864C1O9m3ZFRHBVDFjt4pmvNcFceWTf+xSicukttwPcBfal6sifVmNXDemtg1wF3q/Guo6N6AEAOA/qSqTj05WphZvYK2K2W1tBNB62O9NJmL+rBgllUhvmGeXpmZg74EnB5N1y69jS3XsVWN63l6Aj7qJ+1U91zZO68BPzHp2dm5vt66DPV0uudvRa/t7M8sO5iH+3D9xTI/tapsHtmIDA/PTOTAV+shn66H1WFZWD1YNs/qu/U/SmbpBVmv1VhuKzYV/ey+CLwXWB+r4b/+ha4Clzd6y9YCeI+ABkqjL4LfLF/HxA2uP3PXcA/O+jb//x/dLeavPI3W9/+ZwjUjW5Q5aqM6kCXpv0Q76ekVThUDN2g6kJ1g6r/OtINqlYBe2SDW6jV+OnYehvcQu3aRm/4f8svll3Pt3pVAAAAAElFTkSuQmCC;imageBorder=none;imageBackground=none;" vertex="1" parent="HNUfWQM4cpFcuZbpRHGg-98">
          <mxGeometry x="490" y="160" width="10" height="10" as="geometry" />
        </mxCell>
        <mxCell id="HNUfWQM4cpFcuZbpRHGg-103" value="" style="shape=image;verticalLabelPosition=bottom;labelBackgroundColor=default;verticalAlign=top;aspect=fixed;imageAspect=0;image=data:image/png,iVBORw0KGgoAAAANSUhEUgAAAFQAAABUCAYAAAAcaxDBAAAYAklEQVR42u2de7Bd9XXfP2v9fnuf130JvUCAZGSMEE+BwbFTGPB4TOwx2FMISWaaaSdOpybTzjRpO23+SOv+0ZnWmWmddtoZmrROk3acuvFr4nRSbGPHyK7cxpYlMCAsYx5GoLfu8zz23r/f6h+/fc49EgjQlXSFi37M4d57dB6//d3r+V1r7S1mxunWnQ/tWA/cANwC7Kgfm4EGb481AF4E9tSPHwA/3PnwniOne4O8FqB3PrSjAfwa8AlgC5ABvv6pgLxNADUgAiVQ1T9fAP4j8Ic7H94zeENA73xox3XAPwY+AFxaA3lxLa8KOAg8Cnxq58N7nj4toHc+tON+4DeBm4DJWhovrlevCCwAe4F/u/PhPV98FaB3PrRjG/CfgNvfRjbyXNjYvwL+9s6H9zzDUALvfGhHDvxW7XQugvnmV6PG7DdrDEcqfT9wL9C+iNEZr3aN3f0Acscnbp4B/hz4uYsO6Kwc1XeBexXYVovtRTBXvnwdq2/T+hd3EZOzXg64RYGbLwJ6zgDdMQT0Yrx59kuBm4c2dNUAlfq//08B3aZ1RiSrBeZr/f6mMmp7ywMqwKRfTcl8refsVKQMxtNhs+H/hm8SREBElg/jLebuLwiYrwWiDX8GIwYjVhGL6XnRBKKooF5RFUSXAWYc5DexHztPIu8vKJi1KkezBFxMQJb9isFiSdGtsBBrwRQQUK/kLU/eyXC5oi6BLCqoLr/uQoHqLxSYZoZFsGiEkCQxFIGyH+jNFQwWSwieyclLaLcm6S4u0O0u0Kv69JsFrekGzYmMrOVRr4gYOEVcLc28NrCn2vFzDaq/0GDGYMQy0p0d0D0xIJSRmam13PX+9/LgfQ9yyw23Mj01QywrXjzwUx777jf56s6v8cyPn2L2wBwikdaaBp1LmkntERQFsVeBuhrRhdzxiZuLmolfNTU3q4EMkaqILB3tM/tyl+n2Gj74wQ/y63/z42zfei159mriqwoVg6LPcwde5E+/9CW+9OXPc3T2FSY2NJlc38I3FfWK83qSXT3dns6xhJbnHNA3koKRrYxGKCJHnpunmIvcfdfd/P2/83e59cb3oKLLdvM1pHv4fBUqnnl+P3/0J5/hka8+wqLNs+byFr7pcF5HtvUN93TuQC3d5tsu/afnKvV8w43X4c9Q3YulioWDPT58z738y09+kndtuR6nLnnz03js8edVlXUza/m5d7+HNWs38th3duKahhtFAelz3mhf59AURF0tyTzpNXVoVA4CPlfef8dtrJtaj0g44wheVZloT3DrLdeS5VAVgVDGdNIMxOSc7f/NpkurAuZ4oG6QVL6KiEJ30MM7S56aeObfL0qo+sRQEYqQzAqG2Pk7jvMG6Io2YcvqGw1+9Mx+ROIYmHZGHyZEThw5QjUoR8nBSu3j2YK6+iyT2eiA1QnRhD1PPEmweSCMPU6V1EH9/KkrABVP7dvHoAyjtHTZvPwMpZ5nezbFKRi8cvAQB18+wOWXT9VAOiDw+Ev7ePSpXfz4yAvMh+N0pMEtG67lgbvuZ13z0vq1htFj9+49iBjOJ6dGbVpEVnZcK/X8q1/2GMaFklJFBBaWlnjqR/vYtOkqRBQwjp44yr/789/nxeoVaILLlAOF8cKzh4lN5Tfu+htADgRinGPvUz8CUUQVEUlwXACGSs+ZdI4Ijlql7TQE11joIyqoCFUVeHLf0xi9WrVLFnpznKjmYFqQpiP4iG8aNgGPH91PZKF+bcHhYwc4eOgQFmKt8vVXyRuRMXZa0FeqfWcnoVYbfau9d1y2jzKk2XRZIsfVSARUBZcpsYzsfnIfZl2QJuDIyDBRtAleLB1iMCgqjGpkZ80G/OTH+xkMBjTyPOXxKoyyzrE9jqIMM4jp+fF9ngtK0K9YOsfBrDOfWEZClTIh9ZICbK+IgMkYrynLEuubjlgK+/e/yOLiHFOTHhFoN9o438DpEk6StRRS9tN2Wa1aCdifPPciKjqi94ZmxQyIlv6u6cFYRUIZCSHiXL0/BXWKurHjk5XZUr9y4UxgxmjEKjFFvfmCsmd47zAJZE2Hbzh8rohLpGU6NlvGVtMJOT47z+GXX2Fq2zQgtPKMhjh6GKYg0UY2ctK3Ro7LKDnwykFMxzjVGIlBMYu11KVAvyoCVT9Q9ivKQcR7T9ZWGhMZMQRcpqjTOhSTFUmqX6l0jiSzSgTH4tEB3cMVf/3eB2hPZzz6rUc5fuQoRsQ3Hc3JDN9wIxNgZoQyMlgoKboRGpHDB49y9bYke3mmtJxnzlIIZDWJjHimdKr+I8WuRb+ECNUgfZ46QV2sJROqQWCwWFJ2K0IwOhNt/tqtP88tN97Gf/3sZ1nsH6c17Wu1N8QlyRzWv85ESv1KpdOMmlU3im7F4rGCD7//A/yzf/QPyPMJ7vvQx/jMH/8xjz32GIuHT1D0Shqd/CRpLbolg6UKInTyDnk2jeDAFKeeCZdj0RAMQUdqOJO1IERwgkrG5k3voJ036FtgsFhhGC5zCfLK6C8WFPOBdqvNdduv49d+9W/xC3ffQ7ORsfXKK/jtf/E79E7UJ0LTyRva4dVxSgY2JIXLSPdEn41rZ/h7H3+QyYlpMj/B+258H7d96nb27nucz33hc+zc9S0OHztI4YoknbWZUBW0qdxw3Q6u2X5bbQMAHJOujVpETZIjEcOsoqkeQgnaAGnzgbs/xGPf3ce3d3+fXn+RUFV4HxFVMp9x5caruP1Dt/MrD/wSt974brxmiUKk4M47buPWHdfylzu/h2tIzVK5FfulldvQWkJ78wXdE30+9pHb2XLlZjIndaOvkalw6/Yd3Pjb17PQW+I7u77Nl//nV9j7xB6OHz+Oo2Jqcoprt76LT/7OP2f6kvUQT9S8DXS0gQWrKeNa9dQIMVIsdMlzoJWzees2fvdTv8s3d+7ih088ycLCIq1Wk61XXcVN22/muu3baLdbqOpyuioljsBEw/ML77udxx7bTdkNxClDoyUplTOXUr8i7z7kM6tIf74glrBl/Ubyqk/sHUK1AeIgU1QnyX2TtZM5H73nPj56z30YRre3RKwGNLI2jVarPglLEAsISlVaUmlALfHwYJgKsYLFuS7trCIvS3Sqyfo1m3jwvvt58L77X4fyK4EeVs5SlBVlWVAszXLZ5DRiEKpAqCKapWhiJXbUr9R+UjukaKA+4/J161k89jKD4wcpehX9fkFzaorpTVfRmF5PUXlKhIbP8TSYaE/WLQHjjEnEBhmUgSpU0BBccCCCR4hmKJF+2aOoHMSIaxkaIvhYZ1mnEJRVn1LnEe1TLp5g/sAh5o8fI1RlHQt7GibkmlOFAaGIZI0U+iUxXQWVNxtKqCECnXaLtTPT9BYXWAyw1C3p9gdw/CiX9iN9/1P+9Ilv8Nz8K0y0W8x0pljX2cjlM5exaWYDazoTzLTbNHFQBhYWu8yXS/S1R64eE0MAZ4pqYM6O8NLxl9jQ2UjPC9J7iV75AseW5jjem+NY7yiHeyc4uHiIo0vHaNLnV66+iys6G1iYX6Db66NEvCqNvIGI0swzFhiMtE9rsybn3YYOQyZbjtMnG23azRZzcz26g5KigrKqaDhHGMD8whzPHnqWwWSg0h6zvcP8eH4/2UEHJagomQjecgYYkkGjZSzlJeKTwikpQDeF58pX+NyBrxL6Of3QJxYlJiUxlgQxLAdxRgQqgYXegONHukyXXRaXugyqCmIg844qpjK2VwfIqJqwqpmSDevodUPC9FQbxbGwOGBQVUSDGCO9osIsI1hJ0ajQtiJZRFVxLSVaxDDKWFJQOzMBy2CQRUwMX9cxl9NCpUeXXliCNlgQrJ2yIyWlZIakcMtSedm8MVtFymCUldHvDzAzqioQgxEimEVQW86wVp2+G+bEIdJqZIQYiCGMbI/FmAaaIsR6w04FUQM/llNbYtwT/Zm6QcyAIPjha4fUe0yAJjtu2JAeNUFMsJHzMVSWdVa9o6SgqgJVFQlVrJnUSKWRGE8mSszsAgBan8oIVBYJoQKxUY1jyNZUViLRcJohogix5okFNcWIycFZTKBggCbgAa0JDDMwNYiKARUFIaZMScxjokkiVbGYtkLUpM7UQT6RdBZikmIDsTi2X1smTmyVAD3piyTRb91+iVmSClUhBlARnDoGZZe84WjnDeaLJZrqCRZH5EgwRYLDohJjxGWCSf3vLgXamU8gRQNi8rxZJQyKQBGMgKTMSLX2zIEYQ9KOADrImO50UHEpkQCCRWJ0VNEQ53DeY1UtnXISdXseAbWTuc06Vabb7YMYWe6JVmEiiPd47ynjgExbbJvawuNzz6LBk/ucyUabNa01bMwnWJdP0xFPZjlBK6JGjhc9nhjsY97P4lwEZ8QYiZWwMW7hjkvfQwulWyzSLwtKK4jBKGzAkhbMVYscXZhjrt9lTXOKqU4rsUpeyTKHi+kAvFfEK41mji1cwBKIqKRGLWBpqUco+nQmJwBHDIJ6h/oM9YZScdema7hlwxZydUy3O3RaTTL1uKg4XM0oeUqrcJmjqhocf2GepTiXyhqAaUUYZFxabuRdl22hmQsxDqgokKqkCiWlDQgEsECxNtDt9+mXFV4VseTZtdXE6vJy7gVxbjnlNcYInNUIm4Y5U00gmEG33+f43Cxr10ykA88U0Qx1HnHgJdBseNZqhs+yJMFxgFpJUQSshBCMfjVIKp636bTXJuYnRDJ1iDqiCUaGU+hVcyx0Z1lYPIZZIJeMZiPDeUsW0iLehIlM6DhHJFLFiJeheQGzgFOjiiXdbq8G8+xaTv0Z4jiyLakmlFjugsC+lw5w47YtSDOdbVUHquAqRCJRwaIgmsKlot/HyopBUaIRBkVJMPDNHOcznPPgwQXFO4fiCBIZxAAZiA0Y9GYpuvMQSgZSUYUGueYAZLkjy3LEhAioRLwDVAg12RKjIOoYLC0yt7QEWVxu35ExMyfnUUJlxEsmCc3bjmoQ2b3/JX7xHnAOnAqZA1ydDYtQxMjBI4f59q4n+Nb3nuEnB+aogrB5fZtf/didvPfd2wllQJzSabdpNVuoKQ5Pwzm8Uyo8fSJtlzHRzJEyY6I1hcWSpf4CTz7zHE/sP8SxuT6tzLP96nVcf/VmNqxfh/dZiiiqiBMlWMBMEOc5+PwJFhe7tGaGDL6sjoRaii8SXSCCeiHvZFRF5Af7XuC5nx7i+msuT2dfjcwLRYjsffJZvvDV7/Gd7z3J0YUljMSMi3McefEEL/zRV/iNqse9772ZvNOmMz2Fz3JiUJwqrWaOFygMNEaaPqPZaUJsgnfMnTjCFx75Ln/y9T0cOzFHrBOBxjdgcqLNTVdv5sN33sj7brmWyXabqgopVjbDKNn1+JMgAZdnyS8MC3214Jx3ghllVIfJmo687Zk/0uUzf/Zt/vVvPUDWbNCtIk//6Hn+zX9+hO8/vZ+i6uO9J2/nuNyhziUudb7k8LFFPvvILm5655Vcv2EDrpEh6qgGAd/xtBoeVcNKcBQ0m4prOfLQJmjBcwcO89/+125OzC2i3pHnnqzhgMj8YMA3d+/j27v3s/XKy/jFj7yXD7zvWqY7TRzw0yMn+IvvPklzOqM5laNuDM3VIphlWNV0qV6etRzNtmfn7qf4/Ncu45abruZbu57mD7+yi9nZebKGp91u4xuKy+veTaAqjEHXqPqRgwePc/D4IjvyBprlaOapioCf9DTaHsGIojh1qBiu4fBumigFLx+dY7HXR70jayYz5BuJ+fdZxGdKKCL7X3qZf/UHX+YvvrOVj3/0NjZftoHf/8Iu5gZLdC5pkLd90hxdWQy6Qhs6LBGkor46weeO1kyOSMHv/fdv0v7SLo7Nz+MyZWpjB58rLlOcP7kq6RuKmdGfK7EYmOhMknfWoo0WASUOShq5I29mGEZmJbl3OOfwzuMbnmieQRRCGXENpT3doDGRVHdkqqJRlZGqHxksVex9+sf8w2eeZ6LZohtqMFs+FelW04YO7eiyY0oTGT4f1tmhWKroh4LJ9a0kjVmSSBmzTcMafghC3soIg0CuGe+4YhN5awJ1bQZBqGKJbynaqE9AzPBNQ3zENxvgFfBMzkyBgfOpgpm3fD0hspwCZ9EIrUjecZQ9n0gRLZlotWh0PFkjATry8iqrV0YeSilqieHJdNRg4BsuBcTCWJ2cUQNsnTITQ8RieoQycMn6GTZdsQXJWqjmhFhRVl1aLSH3SrBIVkt5iH3wHsQhBpsu28QwNk+mqA7pXN28YIZEQ52QNR2NTmLJRJLJWj7p9VTJWTQ8rIy+k1pKEVBQD6JpMzGkvHs8zBrFdVpTEHVsJ1VSxVBENm9cz9Ql63HaBDLMSgob4JsdvChOBLNAGQrmi4VUYsEjolx55WYaeY6pjTpSUp99OokWE6CjmHLU8iijsZzReI4sC8NKGsZWzjaNnGACVUQwNdRxcs+QyHL2MdbBMcy2QhHBhK3v3II22qPu9BBKnAyw0hNCA1VHr7vEyy8dYePaK+sPT6Tw2g0bWbd2hqO92VGM7LycZA+1njwZtuXZWIIyHG4Ybx26MPSdLHv8uso7aoE9KbkSGdnOYZFvCGgMhqjj5uu3I9IcXR6q3ehwzdrNPPvUT5h9ZYmiMo78dIFyrsENNw8vjSKAMjU1zdZ3XMHRp+eWtUPlJO0wE9CUaCyf7DGtluXsKJm01W5nlOUeIDNblsDXMj2j1xoWRzpHDAbR8OK4+Yab6vZEByi5m+CBe3+dg4cO8fKJl1jod5nevIZ3XraVNZOX1N+Smm1Vcm599w381b6nU399qEVQx8cWayL6TR7TBZHQUZl1PAi2V+f+oz9NRmI8nFUSgfZkhy2bN4+9IYmZdxNcsWmSKzZtG/uUatRoO/wSM8ett1xP/j++SKgiYQionVJGPnWP8joZ4Wr3h75+1P86mx22PQ5ZcRGuvHwT7YnpU4Aa31411ip+KhIpPrrm6quYnpykKmMaun09yl3O3xTzWQO60rM5KvSZsf2azcRoY4Pxp4q5nnKmxoJ2CxiRS2amuHrrFagum6GV1IbOdgjsnEjoSjaRpoeFGIxLZmbo9hcwGw4rhNeQVk4BPDVGpNmmSDPPuPLyDaiSIg3sjFvCz8VE3TnrsR/a0zcLpghoJrhM+OJXvspkS/nlBz7KZZddhUgTkewUKT0ZSAhJOm3AwaOH+frX/zdf/8b/RRvL4dKZeOpzNZ64urOedYNuyq0rYmH05gbMvrxE1Yusm5nhYx++m19+4D6u3X493k/WNXk35qyMGHssLh1l7569fP7PvsajO7/PXHeebFLpXNKkMZHh85SXpxZFXRUwz8vw7OuCWmcoIdaOozKqQaS/ULB0oqBYKohmzHQmuG7b1fzSfR/hjjt+nvXr1iMoc7PH2LP7cR751l/ygyd+yPMHD9IbFLjc05zM6vn5xDSlbmR5wwHat/w08uuCOhzttjTanUBNrdplP1B0K6pBpOiWlP2IVtBptZiemsY5ZW5xnsWFJcpYoLmSNTPydkZW03W+6Wpmy42B+foj3uca0PM2p/SaNlWGzw+rpom+83lqFXeZUvVTr7vLE7hLVZfF2e4ou9JcyLPEXeZtn0a5M01DEkOSQ8c5YlmRnb/gTunNgjqkxFSF5SxRRjUqdYmxak5maWJjdDGXOkfPFF8DqE4Rz4ge1DHq7Y0Y95/Zi7iMgzpekxpdSMANpSk1dqkK0Q9jVDe6YMEo66mBoya5xdXAjqn3iOh4jTTSzvN43aqMJp5O/YeWzWpeVVSI0ZCwfJUcc6cSLWOt2spJFxpAx1gjkQtyTSdfX0t4zfm+pNRJknGSbbMRYa2WJA5nJ3XnjcrjMv4BNka9nXL9Ji4ImAYseOAZ4D0X5AqNQ0kyRqSJmkDdkTLsTHsVl1GTvyLnjiU6BysC+7S+0nW8oFuRsYsMjne+1a46zb+P/50c2ZDpeguAOQR0r68BDecjFj1jluqU3+W0L3hLrgDs1fp2DIGL61wA+gOtbeiemnS8uFa2qlown9GdD++ZBf49cOiC29KfzRXrW1n8h50P75kb0jBfrC+93r2Izxmvbo3dF0cE886H9xTAp2vVH1zE6E2vQY3Z79UYLjP29b0sPg38H2Duovq/oZrP1Vh9engfEE5z+5/twD+5ePuf01N0tb9549v/jIF6uhtU+VG7xttj2aj4v3yDqufrG1T9lzd1g6pTgF13mluoNd8mgPZPcwu1o6d7w/8DtiO2paB9uTAAAAAASUVORK5CYII=;" vertex="1" parent="HNUfWQM4cpFcuZbpRHGg-98">
          <mxGeometry x="480" y="220" width="10" height="10" as="geometry" />
        </mxCell>
        <mxCell id="HNUfWQM4cpFcuZbpRHGg-104" value="" style="shape=image;verticalLabelPosition=bottom;labelBackgroundColor=default;verticalAlign=top;aspect=fixed;imageAspect=0;image=data:image/png,iVBORw0KGgoAAAANSUhEUgAAAFQAAABUCAYAAAAcaxDBAAAdYklEQVR42uWdaaxk55nXf8/7vuecWu+9vdud7nZ76bbTccbxltg44wQSlBEeRsF8QkSDkICREILMfEACaeBDBmYiZVgCM2KSSBjsWZIMBpQYMyRxFjt2EtuxPbHj2N3trVf3frfazjnvw4f3VNWpulV36dsdQFTrdNWtW/cs//o/+/O8R1jlce8Dj+wAbgVuBz5QbPuAhP8/Hl3gHeDFYnsBeBk4+8xjn5r4BzIFyAT428CvAdcBEeCKZzPt7zb/kNV/pav9rV6NE1LAAymQFc9vA38A/EegOw6sTADzEPCPgY8B1xRAclUBHDzJJq5cx3DVq3XSGXAa+BbwWeDVMqgyBuaDwKeBXwCaBRuvGogrAZRNkmkM4KsHrgcWgZeAfws82gdVSmDeDHwJuPvK68hpIMrYy00CqpMBvorgdoFngb8DvPbMY58KV3DvA4/EwOeBvwk0ri6QZRBl7JObA3QUT10B7lUCdgl4BPhHQK8v0g8CvwzUriiYAiJSgFlsMtzK/xAz8ruNb2Zsf6WtOLYgiMgVkIaRR63A7kEAufeBR+aArwMfujIGSCYzUmSl4RFZU3/Khuy5TmTo0GDpFMZumq0Z8APglx1wc+Ffuish3iJrADkFRFnxuw06V6roCp1cvOzjKaO494mqm1cDrvDVb+6/sFcWzCkASPnEZcxwjFzZZQmkTNamw+9WwzFVxo4lUrBVNgOqBW53wG2bA1TGgBxnokyw4jJy+VfeMZMx0ZYhVVWQPqhT2aqXC+gH+oCazYEpQ9aJrLTapfeUcZau/FmuILTD/wuVIOE4fTWAMMJOEblcUA1wW1+Hmk0zU6TEjUmGR8bAZLouvSpBWQBRRxSrlIk7MFCXCarp69Dmxq+jzMziZFcBcvTE1gOmriOAl3UDOeaAjMUAOgS7dDjZuPgL0HSbE/OS0y5lERuHRtYEREastQ4vRLUksIUUiGFEZtflD5TVUrGvMcaKSgFqoRYuQ6e6K8PMMTBlVH+tPCkp2/biwjyqHvU5qhmqCupRzfE+CyAiiFjEmPAsFpHwGhnX52bEvZDinEYCqD6IJVoOmXp5oLrN6MyJzJRxKw4iiqoUOYU+Cz2iitcCSPUFkB6fd8nSZdLeIllvGdUcFIyNMDYhihu4qIF1CWJcwViDERsiJrGI9GXDjIa4oiUXTUqgMgVUNqRT3cbBlBKYQzGSEddIBo66ogWOHvWKkqM+B/XFex6vGT7v4vMeedai15mn0zpLr3sJ77uIpIDBmAQxMS5qECdbiCtbiOIm1lURcfg+mDYw14gDYwEbzl91oEd1RAVQMliTdOr6DZVbl64te+YjYIbwI0jaKAtQQVUD63xenFeO5jned/F5SpYu0e2cJ+3Ok2dd8qyL1x61SsL+63bxvkN3cdedt3DLwb1Y4LUjx3n+hZ/xwkuvcer0BS5deBejBuMSrKuQVOZIqttxcRNjIlRyxBvEuiLW78f7phDlUaM3AtoEUMN3sLrzL/c+8EivyMSvrTfL1lxKelDsSIzS14veZ3ifoj5FFXzeCaLcXSBLF+l1L9HtnEfzLkkUc821O/jYx+7jk3/1Yxy46T1UYouzJuRNCF9Qlnlaqefom+/y2OPf4RvfeJpjJ07QaS0DhqSyjaS2gySZI65swcUzWOuGkmMtIkFNCGagP9V7xEihZwujWDzrwDjq8HeTH+kagJbBZJCxKfucih8CKoAPVlp9hvqMLFum275Ae/kUWW8ZChGPE+WaXdvYv383d91+kL94/x289+A+rDFrhvQ6kgNRjrz1Lt/7/gs8+czLHDlynLNnL9Dt+gCYpsTJHI2564mTLRibINZhJEZM8BhUQdUP1Zoy9DTKXkfB1FVAXQPQcupNVoIZdHuZoT6Iuc/I8w699gXardMszb9J1rtEtZqwZ99efvHeu/grn/gwt77vRupVizH91NomsqEKufcs9Twv/eQojz3+FM/88EVOHDtOt72MS2apN/ZRqV9DnGzFuCrGRIUhE9T7EakLQDIK6oCxOpZvXRegE0RdzAojFQAtXBSf4zUlz3p0lk9i/Gn279/Otdfu5JaDN3L/R+7g5pu2Eo/F3HKVwqNcldffPsv3f/Ayf/6Twxw9epS33zoJ5jqacwcwroKRCDGCekWMKRmeMSaqX4/op25tQzTuO476e32DJKqFMVfUp7SWTnLzgRn+3t//Wxy4fifbtsbUIoMTKdvXq/ZQwIhwYP9O9u79KJ/4S/dx6swSDz38Fb7xZ89Ra+4LhstaRN1IYBVAHfdBx4zRFANlVs/YTBH1SfF7PxPeP4YKL7/yM06+e4ZKI8aLoYOQFdnYvHj2V6F61q/3doFWDu2uQa1jfmmep575PnkW9LviS+c+VlUYT6+swEHW6zbJGtGcjPiaOh7WFQe1LmFpPuOJbz3J/R++A2vCN5664bcoRc5Lp+QPl1I4fRrOn1d6uWfHFth9jWWmNpmRKdAD8sLd8R66KaQ5dFLhu997jjMnz9Oo7w3+KnY0I1WwboR3wjR9OZGlbmPslOnVC+1nc4JKMC4hqc7x0vMv8+ZbJ7nl5r1ILzDIuACgK4Ds7yoHllM48rbnuddSjrzTYX5J8HlwaZwRqlXlhn0Vbr8h56Z9NeaaEJcA7Shk3bAvVcjysO+LSy2e+PYPcKZaBAJ2QsJbJoh+4bLBMACQkls6JvJuQ0mckbByPHHsBwkLBaxNcFGd5cVLPPuj57jxhj3kPaG9BL0MIqcYI2jqabWFE2eVoyd6vHM6Z34ph0xwJkJQLIJ6IffC/ILn+Z+kvPSKUq9c4JrtCft3O96zy9JoCBIZVDPEOCqJkNhwPj977TBnTp0jiupYmxSIFW4fbhhBFe+PXreunvTSqYDKunTnysxcKRlWJDQQgxhDnqa89upPUf9Jogi6HlrLsLCc8sobXd46kdNqCaouyCqK4DDOYEQQzYt4PEQvRi157lEVlhYdry70+PPDHcRFNGvC9dcpN+y27NyiVLbFWAOZhyOvH6bbbRO7JmJscIU0R9QMQtKBMpJBsFRiaRGuTmTpEIP1J0fKSrvEUOk7vKqo9yg5Pu+R9ubpdeeBHPXClobgLOR50GlIzMUlZf5Sm7TdI4ohihzGmKAypJ/IGMsPoFgT3DV1glOH4OmlnsUlw4kTwr4dVbodxWfgamA85L0uPs/JpEuWtsjzTpFYsajkId43jCZKVjBx7eSI2XDOdqRUNAQzz3vkRYze61xkaeFNOq13MQL33X07WxKII+jk0OlBM4Hrtyb4XshECYoxYEQxoohoEHcRTLEJxfNYTd+ICR1smafZMGytGxBLppDE0KjAPbffQq0S0Vk6w9KlN+m2z5FnbfK8i2oWwNJp17n+MqxZn7iPNgsMGFqk4VRz1KfkvRad5dP0WieQvEW9GvOJv3w3D/7KRwZqYrEL1SrsmoNb9niceJw4jLFYYzDGYEwZuHG5KFIcYgaf6Se5RZTrtmZsaULiIE3DJVRj+Oj9d/J3f/UBZpoVsmyZ5cW36bTPkGct8qyLaoqqL5X0Vrn2qfisV+Qnfls61Jk+w/uMXuci25rnufG2A7joVu65+yCf/GsfY7ZiUYXzLej1IDIhNKvYDCOCqscai5W+pio9j3XmaYkJimDUB8/BCJmHmZolKtTxYgcutaAxC7WK4R/+xq9y+53v478+9gw+z3jn+FmOn74wTFQbV4BlJjjx62mpLAMqG2C2lPx39fi8R5Yu014+zgN/45f4lb/+S3g8u7dGVKwhAy7k8M670FqCWgQXM+WlwzleLcbkhfvUz1cGlojoBDWmqDAokvg+1N6Ddxw7lbF9Ww7G0urB0QxcBLtq4Azc99E7eP8d76e1JDz11I/4rc8+jHN1jI0xPgvulNEphmcNcHSK2yQrqpiM1dNlJNvjfUq3dYZu+yymMoetOuoxeCu0gfOLcPQYnD8HaTfDt7ocO5PxzrEc8UJs+zpymCE34+X9QfZ82AVLwUyrBm89muW8fDRjfnmJHTuEamKIL0W0WwkH98E1OyC2QrUe40XpekO7dZo42Y6LG4TgWVZtABq19roi+nQr9Of4DkUmH2SQ4grli7S3RJq2ubiQsTiv2BmhlcP5BXj9KFw81yHtKkvtnHdOLrKwqEge4+JgXQ06aI0OBmllbpuSl2YkXJiK4lGMgDE5Weo5drLFmYuWa3bEbN9i6PZ6LFyy7N9n2f0eqMWQqnBhKSPzPdLeQqggqIY0nppVOwmH1l5WaIUNuE3TE5OhghjKGSdPn6bVDsxZasGxYxmXLnXJU8hzw2JbmG+FRLFzwRd0YjEmWHZTbporZ9ML/gZWDPWpFl6BNeBFQXN63Zw88yxXI+o1j2oXn0UceUNpdR27d4H3yukz50NG1/cN0toifYWrniX9WUQPfV1joypiHCePvUm3G3TQhYvQXs7QXNHcIx4c4aJD3jQF4zBiA8Ok7zoN3bJyv5KM9dNpkXM3ongJEY1qTp5nKAbxOYkanIJPU7rqWZx3tJqQ5cqJE6dADcbGRVW1n6YLNSS5jHYntxmCggw62lzUxEU1TrzzBouLKdGcBc8gG67kiPHMNT1Vm9LKwt8lkUVM0JnWlADtQ1a4RaE+RShT9OtVKGoEVUFzHwoa6vF5jothW9MQ25w8L5hswr68h8WWcuLto1iJiOImYqIgB2byTMZ6cd1ED/1QtxosNqrgogYXz57m7aOvg0CSQBRJKDUYg3OG2UbE9lmD5r1QxxGwohijWFGcUezI5rHiR95z1of3jeKK3xsTmNoHda4pbJsziNUB+M5ZkiQkZ86cvsT5k8dwUR0Xz0wOvy/jYdbPynH3epjJFxPEJorr5KnnhR9+GzXgEogrgnWCix0mirCRZeeuJpXEDQyQtWANAVSjODvczEBHhp8DixXnwFkGoAdAgwsgxrPnmhqVmh2qBjFUKo56NTD05ZeeZ3lxkTiZw7lqWc9Mveb1eJib71guHGJjYqJ4FhHHT378I5YWuzSbCc1GTLuV0ssEK0FFzMxUaTTbLMz3sBaMlQJMCT/LMF+tk6x88SIXxagv/hbEKJnPqFQcO+aqYKX4soUocdSbETaGdld58ZknyBWieDYU7ora0uDAl/kwm+luDTHFsEXGxQ2MiTh//ixvHn0ZIyHMbDRiXGQx1mKMoRI7dmxJijYawZiixd6AtULkhDgS4siQxIYkFpJISCJI4vC+iwzOCdYK1gSn3XtPmuXs2FqlVo1CGcQaXGyp1GMqjXCME++c4+iRl0A9LqphjB229mwGTekDerk9r/1hgSJ0s7ZCXNlKq9Xm+9/9Nh7FxdBoRlQSNwDVRYZ9e2aoVQ2ZV6QwRgEYwTkhigxxLAHMOLyOYzsA00Y2gGmHCZUsS4njiOv3zmBiQUUwzhAnluaMo1YLx3jqO0+weHGeKJ7BRQ0o9Ukhl68/0StglMTYsBUnVWvuBZvwkxde5NzZ8xgDlRrUG5Y4Eox1YA27dkTs3VMnSz1p7gt2hsTIANDIFs/hdRxZImeIXEgFOitYAVGPoHRTZdeuBtu3V0EMisVaR6VqmJkVkgQuzef8+OlvYlyd+sz+IntvBk1nsslZN7NW5XD0p/LGMIHW74gzjriylWpzL+dOHecH3/0mzkAUQaMBcRxajYw1RLFy4PomlYrQTTO8L4JmCa6Ss4J1wTMYfS5+Z8CYQX2TpZYSWeHmA7NElRBBGSe4xNFsVKhVghF76nvf49Tx46G7pLZzkBMd6NA1rnktgd7E16GldieDSIQxDjGBpd73ePqb3+DS4jLWQrUCzZoQx+HCEMO2bRF791aC7ks9eb8HqnCzrDNYZ3HOhtc26ExXiLl6j/dCmhmW2ynX7K6za1sUGiesEEWWWt3RmIHIQWtZefJrD5Nl3dADFdUKMkzSn3rlGcpau5dhX6UxbmAt42QOG83x1ttv8J3/9WdEcUgu1+pQTQqmGnCRcvNNDWZmLZlXsjw47yoh6SBFGSX4sVIywqFzL/MawtmOkiSOQwdniJJQFzLWUokts02hUgmAPv29J3jz6BuITajUdxXeiQ3NDjLar7Wu678iDB2ZlZIiaxl0qTERIg5jI+pzB+mlPZ547HHOnVvARUGXNuoh4RtFQSy3zlkO3VTDxkIvgzT3+FxDNm6492F8r0W7jyp5ZlhYMqTdHofe32DXDhcSKwZiJzRnoNkMX+Dysuexr/4RaZ5Ra+7BxTOI2BB2miIfWp4DuMyZMMOmKMqIZRRjsTZCjKM2swcbz3Hi+DG+9uWv4kxgab0OSazEEcTOYK2yf2+Ffe9xqPF0M8hS8LkPHXuqeA3JDK8B6CyDtGtZXI5od7pcd32FQzdUMM7jDcROaTSgMROCC2Ph6489zptH3sa6BrWZ6wr22yKp3PfbNn79UwAt97XrhBE/XXV4oD9DKSZ840YirKsyu+1WOq1zfPvxx3njyJtEESQVaM4EixvHhZ6rWm47WGHnViXNPUtt6HQ8PvfkqmTek+WQpkovh3YacWHRsdxJ2bk74s7b60SRkGFwBmoNZWYW4iTUlE6evsTX/+Q/0e0s0Nh6gKjPThMNcv+sGW6WWxxXGq0+fma6SOuEMr5O3IYjfwLGYl0VgyWp7SKp7+bM6WN88d9/gV4amBmc/SCKLgLjhJm5hLs/0GD7NqHd81xcgoXFjKyXk2VKmippCt2u5dwlWGz32LoN7r67Tq3h6AlYlEpiqDcMcQKxC1XWP/zC53n3+HHiyjYq9WuL6Ckpskylzj/Vqdc4VvgZdueN8czuPfjgb4YGjvFuu1IRavz9CZ8ZdOgV9WyvOWiKi2fotN/l1ImTREnCnXfdih3E4QU3TCBKrerYtUNYWM65uAi9XmhwMFbJcqHbhbMXPe1uys5dhg9+sM5M3ZBrSFDHsaFWD0bIFPv/H197nD/9z19GM2Vu1+3Ela2DvEPQ+TLQodP0p65fJXqzIf2pTPfT+l14EvxSa+MwYJDM0txyM7nP+MojX+a553+K2GDlK0mw+lEUrLBxsG1Lwi/ek3D9fkOG4cKScnFeWW4r757zLLfb7N0fcd+9NbbMGUxkSCJDvWKpVyXsz4XtrbdO8od/8DBZL6e+5SYqtZ2BnSYuelpl6C6NTCrrOq9/5aPE0Ant9Ewe3SwPKEzqLlEtlQqKhty0t0Rr6Tyv/fR1PvLxj9OciTBAEoGTIkltArPqVcfuHZB5z8UF6HYCY3Np88G7KnzorjqVJISWzoaSceyCvowicDG0FlP+5W9+hreOvIW1VWa2HcLFDayr4qJqIe52rPNOS7NLusK2rOhq1vHP4EcBXY/YT/wMwy6SUqENFPV5EefH9LrzXDh3htMnTnH/x++nkoTQMY7BWhAbnm0E1Yrl2p1CpWpY6oJYw1+4p8kH3puQJIIaIbKQ2ABmHAUwbWhT4t/97n/gu998EvEwu/M24spWrIlxUQ1r4qGPO23ibwOsLH1mA4CyyqDxpJGbQb4tFPGMq2BNTLdzgbePvkHaaXPPh+/EupCtjyOIB3nRAEy1Yrh2u+XGfRG3HYrYu1twkQTgTfh8NRqC6aLw/h8/9Ch/9NCfkPdSZne8n0pjN8ZGWFcpjFE0Odws99aPb7ouTToO6Gpivx6WDl/3J220cMZDmaQGCN32BV55+RXiaoU77nofRgQnEElIwzkT1IATiCw0qzBTDcBZFxolqhYqBTNdgYsz8N/+9Jt8/nO/T6fVpbHlRuqz+7E2xrpqAWhcSuYwYSJ6xVTkBOs+UdynALoqS4VpCzOs1KtF/z1S9LDngOLiBiKWTmueF5/9MdVGndtue2/oGtEC1OKETPFsS825kUBiAqiunyAp6lD//b98h89+5l+xvNyiMXs9zbkbca6CcdWQ97RJKSoqperKOE5ynXTdDv9kQFc3TpNYygr1IIxOoQW6hqpdFDcAod26xLM/eI5KtcptHziEk5A8s8UxTWmTMYDtWIfMV7/yLX77M/+a5eU29ZnraG65ERcFVlpXwRZ5BjFF57KYCbpTJ4/urGqM1gR0/bp0CLysBH6sKai/Dx2Ifx0RS3v5Ej965lk6vZS777md2IRpNiejgFICtQxBpvDQQ1/jd3/791hcWKAxdwPNrTcNGBkAjUMmbKA3zWQp1wlR42q6c6VnPx3Q9enSsoGasO5IqVlBBtl9KUZxBBfVQYRue54XnnuRd46f4kMf/iDN2A1OyJSex4PDxY7yO7/zJb74+w+zvLRMc8sBmlsOBDE3UTCELgkO/EBvTnGRdHJ4ubruZL0MnTanNN5jL6XRaSZ8TlaqiyIzHibXDFFUR8SQ9pZ49aeH+eHTz/ILd97Krm1zK2rhZYYePn6OT//6Z3j8a0/Q7XSY3X6IxpYbignlqDBCSXDi+3pTzIRlDsYALIVLo7NIuhY71wJ03OLLyiYymTzCOAJqeQ0nGWaoRIat2IGphjxtc+LUKb7xP79LvdnklvfeVLQ4jrL1sW8/y6f/wT/nlVfeQD0BzNn9WBvYOBHMsTHvSZPFqlNEXcfmPacni9YAdMWs52RrPlH0R3Rt6bMD1TAOaph/91mHhcVFnvzO0/zs1de57a47maklqMKFVpd/9lu/x+c+90UuXmrhJGF2+yHqzT0BTBtjoxrOVQswXQlMBhZdV/hGOhIdjaqCCQBOV6t+k9PIk3zTCSs9lGLS0JbjQX2YVs575FkntGb7Ht3WOZYXj5H2FtCszU037eHXf+PX6PZ6fOFLf8yrP30DiIiTJo3Z60mq20PK0MQYG3TmsKxhhgMPU8DUcf1ZZuqVn0ZmbOm1CfPya45/j4m89ltjRkHVQY9+j7S3SK9zgV7nEmlnnth5PErqDdbViZNZqvVrcVE9REA2wdoqYoe1/uAemdLIxlgyUseHYMfAXPEZXc/SbqlbV6Cqo8vJ6GD5o7GpTdXhe+VzH1nZq7T+BwZjXNF0ZtHcFLPsDmsrRPEsaWWRPOuE9JyJiZImUTKLtYUltw5xlWJc2xRGzwxWcBhdZEBLq11tDMxVDNHltOIUnW8lsMqgBjdo1EpKPzFaljAp5/iLTLmEWrwWzr96OwDV2BgXNweha1j+ou9TusEaJMaUF3MxhSCMFdxK4E1a9nItMNcQ9cvpbSqDWhxUSutJ6XgPkhSpO1kZI5eNlQ7tdwC26JWyEd4ngwVcBp/vM7CoWI6uziClQtvKgFxXMG0tMNkQmJfRLKZDqe6P1ciImioAkuGYopbdqPEUeL+/tFg/VIfsVeswxq3oLO6vgDMAUYJ3qoNlhiYxckI8uS4wdUNg9gFdBLasv6FnOqiDVXAY1bHllRdHLnqkX6IAtVADqA89R6WoxBSGUUvV1oFXPLbiok5ZS3QUPK4kmAosOuA14IMbW6GxDGrJbulw2Z7yQjLlAEBLn5EJM9DlgKBf+5dJPWrl2R5k8nXrhEzxBCDHXaONinnfBwV+ZoqVri9jHYD+NzhaBVzxLfdPTlmRsFUdL18P9y06XWBEGfETx8u5qhN+p0Vb+QRWXgEw+4C+5ApA89V90fVb/z5ZymyFaYxlzNkejbxkjZkhXdE7wCqivUp0pGwWTAoMX3LF7RjyzTSNjWBXXkUWXbHm34g+ndTsu6J0qxtQYeOlDCa6TrqqK3XZC8TmwAum0KEvFkt1XH4nnk5ILgxEavjzJPGcKKIb3XS4L51UD1rlXEZV0mU9soKYr9njhx/t7D34YAu4r1jDfvOL1ayyqI5MnYr4f3aVcA+cAv4F8Hw/I/ZosfR6a9NgTjM4YywZYcoq7Jz0bzWWrnqcqYZrU49Wgd2j9F2l44cfzfcefPBw4T7tunI3VJHpjGX8zhW66S/y/8CdFrrAj4F/Cpx55rFPDX3P44cfPb/34IPzwB5gjrDYjPxcgOVKHOnnei8QDywAzwP/Bniqf3OVEWf++OFHX9178MEfAtuBHcVtGa7CHWvWXh7qslvUrx6IgxRdcfufx4F/Ajw59fY//ccqN6gaX2rpijGX/zvvp6SlRdD6C5a9Vdyg6qF13aBqDNjtU26hVuFq0Xa1X/387/jVmXILtXPTbqH2vwEnlz/cnMda+wAAAABJRU5ErkJggg==;" vertex="1" parent="HNUfWQM4cpFcuZbpRHGg-98">
          <mxGeometry x="480" y="100" width="10" height="10" as="geometry" />
        </mxCell>
        <mxCell id="HNUfWQM4cpFcuZbpRHGg-105" value="" style="shape=image;verticalLabelPosition=bottom;labelBackgroundColor=default;verticalAlign=top;aspect=fixed;imageAspect=0;image=data:image/png,iVBORw0KGgoAAAANSUhEUgAAAFQAAABUCAYAAAAcaxDBAAAdYklEQVR42uWdaaxk55nXf8/7vuecWu+9vdud7nZ76bbTccbxltg44wQSlBEeRsF8QkSDkICREILMfEACaeBDBmYiZVgCM2KSSBjsWZIMBpQYMyRxFjt2EtuxPbHj2N3trVf3frfazjnvw4f3VNWpulV36dsdQFTrdNWtW/cs//o/+/O8R1jlce8Dj+wAbgVuBz5QbPuAhP8/Hl3gHeDFYnsBeBk4+8xjn5r4BzIFyAT428CvAdcBEeCKZzPt7zb/kNV/pav9rV6NE1LAAymQFc9vA38A/EegOw6sTADzEPCPgY8B1xRAclUBHDzJJq5cx3DVq3XSGXAa+BbwWeDVMqgyBuaDwKeBXwCaBRuvGogrAZRNkmkM4KsHrgcWgZeAfws82gdVSmDeDHwJuPvK68hpIMrYy00CqpMBvorgdoFngb8DvPbMY58KV3DvA4/EwOeBvwk0ri6QZRBl7JObA3QUT10B7lUCdgl4BPhHQK8v0g8CvwzUriiYAiJSgFlsMtzK/xAz8ruNb2Zsf6WtOLYgiMgVkIaRR63A7kEAufeBR+aArwMfujIGSCYzUmSl4RFZU3/Khuy5TmTo0GDpFMZumq0Z8APglx1wc+Ffuish3iJrADkFRFnxuw06V6roCp1cvOzjKaO494mqm1cDrvDVb+6/sFcWzCkASPnEZcxwjFzZZQmkTNamw+9WwzFVxo4lUrBVNgOqBW53wG2bA1TGgBxnokyw4jJy+VfeMZMx0ZYhVVWQPqhT2aqXC+gH+oCazYEpQ9aJrLTapfeUcZau/FmuILTD/wuVIOE4fTWAMMJOEblcUA1wW1+Hmk0zU6TEjUmGR8bAZLouvSpBWQBRRxSrlIk7MFCXCarp69Dmxq+jzMziZFcBcvTE1gOmriOAl3UDOeaAjMUAOgS7dDjZuPgL0HSbE/OS0y5lERuHRtYEREastQ4vRLUksIUUiGFEZtflD5TVUrGvMcaKSgFqoRYuQ6e6K8PMMTBlVH+tPCkp2/biwjyqHvU5qhmqCupRzfE+CyAiiFjEmPAsFpHwGhnX52bEvZDinEYCqD6IJVoOmXp5oLrN6MyJzJRxKw4iiqoUOYU+Cz2iitcCSPUFkB6fd8nSZdLeIllvGdUcFIyNMDYhihu4qIF1CWJcwViDERsiJrGI9GXDjIa4oiUXTUqgMgVUNqRT3cbBlBKYQzGSEddIBo66ogWOHvWKkqM+B/XFex6vGT7v4vMeedai15mn0zpLr3sJ77uIpIDBmAQxMS5qECdbiCtbiOIm1lURcfg+mDYw14gDYwEbzl91oEd1RAVQMliTdOr6DZVbl64te+YjYIbwI0jaKAtQQVUD63xenFeO5jned/F5SpYu0e2cJ+3Ok2dd8qyL1x61SsL+63bxvkN3cdedt3DLwb1Y4LUjx3n+hZ/xwkuvcer0BS5deBejBuMSrKuQVOZIqttxcRNjIlRyxBvEuiLW78f7phDlUaM3AtoEUMN3sLrzL/c+8EivyMSvrTfL1lxKelDsSIzS14veZ3ifoj5FFXzeCaLcXSBLF+l1L9HtnEfzLkkUc821O/jYx+7jk3/1Yxy46T1UYouzJuRNCF9Qlnlaqefom+/y2OPf4RvfeJpjJ07QaS0DhqSyjaS2gySZI65swcUzWOuGkmMtIkFNCGagP9V7xEihZwujWDzrwDjq8HeTH+kagJbBZJCxKfucih8CKoAPVlp9hvqMLFum275Ae/kUWW8ZChGPE+WaXdvYv383d91+kL94/x289+A+rDFrhvQ6kgNRjrz1Lt/7/gs8+czLHDlynLNnL9Dt+gCYpsTJHI2564mTLRibINZhJEZM8BhUQdUP1Zoy9DTKXkfB1FVAXQPQcupNVoIZdHuZoT6Iuc/I8w699gXardMszb9J1rtEtZqwZ99efvHeu/grn/gwt77vRupVizH91NomsqEKufcs9Twv/eQojz3+FM/88EVOHDtOt72MS2apN/ZRqV9DnGzFuCrGRIUhE9T7EakLQDIK6oCxOpZvXRegE0RdzAojFQAtXBSf4zUlz3p0lk9i/Gn279/Otdfu5JaDN3L/R+7g5pu2Eo/F3HKVwqNcldffPsv3f/Ayf/6Twxw9epS33zoJ5jqacwcwroKRCDGCekWMKRmeMSaqX4/op25tQzTuO476e32DJKqFMVfUp7SWTnLzgRn+3t//Wxy4fifbtsbUIoMTKdvXq/ZQwIhwYP9O9u79KJ/4S/dx6swSDz38Fb7xZ89Ra+4LhstaRN1IYBVAHfdBx4zRFANlVs/YTBH1SfF7PxPeP4YKL7/yM06+e4ZKI8aLoYOQFdnYvHj2V6F61q/3doFWDu2uQa1jfmmep575PnkW9LviS+c+VlUYT6+swEHW6zbJGtGcjPiaOh7WFQe1LmFpPuOJbz3J/R++A2vCN5664bcoRc5Lp+QPl1I4fRrOn1d6uWfHFth9jWWmNpmRKdAD8sLd8R66KaQ5dFLhu997jjMnz9Oo7w3+KnY0I1WwboR3wjR9OZGlbmPslOnVC+1nc4JKMC4hqc7x0vMv8+ZbJ7nl5r1ILzDIuACgK4Ds7yoHllM48rbnuddSjrzTYX5J8HlwaZwRqlXlhn0Vbr8h56Z9NeaaEJcA7Shk3bAvVcjysO+LSy2e+PYPcKZaBAJ2QsJbJoh+4bLBMACQkls6JvJuQ0mckbByPHHsBwkLBaxNcFGd5cVLPPuj57jxhj3kPaG9BL0MIqcYI2jqabWFE2eVoyd6vHM6Z34ph0xwJkJQLIJ6IffC/ILn+Z+kvPSKUq9c4JrtCft3O96zy9JoCBIZVDPEOCqJkNhwPj977TBnTp0jiupYmxSIFW4fbhhBFe+PXreunvTSqYDKunTnysxcKRlWJDQQgxhDnqa89upPUf9Jogi6HlrLsLCc8sobXd46kdNqCaouyCqK4DDOYEQQzYt4PEQvRi157lEVlhYdry70+PPDHcRFNGvC9dcpN+y27NyiVLbFWAOZhyOvH6bbbRO7JmJscIU0R9QMQtKBMpJBsFRiaRGuTmTpEIP1J0fKSrvEUOk7vKqo9yg5Pu+R9ubpdeeBHPXClobgLOR50GlIzMUlZf5Sm7TdI4ohihzGmKAypJ/IGMsPoFgT3DV1glOH4OmlnsUlw4kTwr4dVbodxWfgamA85L0uPs/JpEuWtsjzTpFYsajkId43jCZKVjBx7eSI2XDOdqRUNAQzz3vkRYze61xkaeFNOq13MQL33X07WxKII+jk0OlBM4Hrtyb4XshECYoxYEQxoohoEHcRTLEJxfNYTd+ICR1smafZMGytGxBLppDE0KjAPbffQq0S0Vk6w9KlN+m2z5FnbfK8i2oWwNJp17n+MqxZn7iPNgsMGFqk4VRz1KfkvRad5dP0WieQvEW9GvOJv3w3D/7KRwZqYrEL1SrsmoNb9niceJw4jLFYYzDGYEwZuHG5KFIcYgaf6Se5RZTrtmZsaULiIE3DJVRj+Oj9d/J3f/UBZpoVsmyZ5cW36bTPkGct8qyLaoqqL5X0Vrn2qfisV+Qnfls61Jk+w/uMXuci25rnufG2A7joVu65+yCf/GsfY7ZiUYXzLej1IDIhNKvYDCOCqscai5W+pio9j3XmaYkJimDUB8/BCJmHmZolKtTxYgcutaAxC7WK4R/+xq9y+53v478+9gw+z3jn+FmOn74wTFQbV4BlJjjx62mpLAMqG2C2lPx39fi8R5Yu014+zgN/45f4lb/+S3g8u7dGVKwhAy7k8M670FqCWgQXM+WlwzleLcbkhfvUz1cGlojoBDWmqDAokvg+1N6Ddxw7lbF9Ww7G0urB0QxcBLtq4Azc99E7eP8d76e1JDz11I/4rc8+jHN1jI0xPgvulNEphmcNcHSK2yQrqpiM1dNlJNvjfUq3dYZu+yymMoetOuoxeCu0gfOLcPQYnD8HaTfDt7ocO5PxzrEc8UJs+zpymCE34+X9QfZ82AVLwUyrBm89muW8fDRjfnmJHTuEamKIL0W0WwkH98E1OyC2QrUe40XpekO7dZo42Y6LG4TgWVZtABq19roi+nQr9Of4DkUmH2SQ4grli7S3RJq2ubiQsTiv2BmhlcP5BXj9KFw81yHtKkvtnHdOLrKwqEge4+JgXQ06aI0OBmllbpuSl2YkXJiK4lGMgDE5Weo5drLFmYuWa3bEbN9i6PZ6LFyy7N9n2f0eqMWQqnBhKSPzPdLeQqggqIY0nppVOwmH1l5WaIUNuE3TE5OhghjKGSdPn6bVDsxZasGxYxmXLnXJU8hzw2JbmG+FRLFzwRd0YjEmWHZTbporZ9ML/gZWDPWpFl6BNeBFQXN63Zw88yxXI+o1j2oXn0UceUNpdR27d4H3yukz50NG1/cN0toifYWrniX9WUQPfV1joypiHCePvUm3G3TQhYvQXs7QXNHcIx4c4aJD3jQF4zBiA8Ok7zoN3bJyv5KM9dNpkXM3ongJEY1qTp5nKAbxOYkanIJPU7rqWZx3tJqQ5cqJE6dADcbGRVW1n6YLNSS5jHYntxmCggw62lzUxEU1TrzzBouLKdGcBc8gG67kiPHMNT1Vm9LKwt8lkUVM0JnWlADtQ1a4RaE+RShT9OtVKGoEVUFzHwoa6vF5jothW9MQ25w8L5hswr68h8WWcuLto1iJiOImYqIgB2byTMZ6cd1ED/1QtxosNqrgogYXz57m7aOvg0CSQBRJKDUYg3OG2UbE9lmD5r1QxxGwohijWFGcUezI5rHiR95z1of3jeKK3xsTmNoHda4pbJsziNUB+M5ZkiQkZ86cvsT5k8dwUR0Xz0wOvy/jYdbPynH3epjJFxPEJorr5KnnhR9+GzXgEogrgnWCix0mirCRZeeuJpXEDQyQtWANAVSjODvczEBHhp8DixXnwFkGoAdAgwsgxrPnmhqVmh2qBjFUKo56NTD05ZeeZ3lxkTiZw7lqWc9Mveb1eJib71guHGJjYqJ4FhHHT378I5YWuzSbCc1GTLuV0ssEK0FFzMxUaTTbLMz3sBaMlQJMCT/LMF+tk6x88SIXxagv/hbEKJnPqFQcO+aqYKX4soUocdSbETaGdld58ZknyBWieDYU7ora0uDAl/kwm+luDTHFsEXGxQ2MiTh//ixvHn0ZIyHMbDRiXGQx1mKMoRI7dmxJijYawZiixd6AtULkhDgS4siQxIYkFpJISCJI4vC+iwzOCdYK1gSn3XtPmuXs2FqlVo1CGcQaXGyp1GMqjXCME++c4+iRl0A9LqphjB229mwGTekDerk9r/1hgSJ0s7ZCXNlKq9Xm+9/9Nh7FxdBoRlQSNwDVRYZ9e2aoVQ2ZV6QwRgEYwTkhigxxLAHMOLyOYzsA00Y2gGmHCZUsS4njiOv3zmBiQUUwzhAnluaMo1YLx3jqO0+weHGeKJ7BRQ0o9Ukhl68/0StglMTYsBUnVWvuBZvwkxde5NzZ8xgDlRrUG5Y4Eox1YA27dkTs3VMnSz1p7gt2hsTIANDIFs/hdRxZImeIXEgFOitYAVGPoHRTZdeuBtu3V0EMisVaR6VqmJkVkgQuzef8+OlvYlyd+sz+IntvBk1nsslZN7NW5XD0p/LGMIHW74gzjriylWpzL+dOHecH3/0mzkAUQaMBcRxajYw1RLFy4PomlYrQTTO8L4JmCa6Ss4J1wTMYfS5+Z8CYQX2TpZYSWeHmA7NElRBBGSe4xNFsVKhVghF76nvf49Tx46G7pLZzkBMd6NA1rnktgd7E16GldieDSIQxDjGBpd73ePqb3+DS4jLWQrUCzZoQx+HCEMO2bRF791aC7ks9eb8HqnCzrDNYZ3HOhtc26ExXiLl6j/dCmhmW2ynX7K6za1sUGiesEEWWWt3RmIHIQWtZefJrD5Nl3dADFdUKMkzSn3rlGcpau5dhX6UxbmAt42QOG83x1ttv8J3/9WdEcUgu1+pQTQqmGnCRcvNNDWZmLZlXsjw47yoh6SBFGSX4sVIywqFzL/MawtmOkiSOQwdniJJQFzLWUokts02hUgmAPv29J3jz6BuITajUdxXeiQ3NDjLar7Wu678iDB2ZlZIiaxl0qTERIg5jI+pzB+mlPZ547HHOnVvARUGXNuoh4RtFQSy3zlkO3VTDxkIvgzT3+FxDNm6492F8r0W7jyp5ZlhYMqTdHofe32DXDhcSKwZiJzRnoNkMX+Dysuexr/4RaZ5Ra+7BxTOI2BB2miIfWp4DuMyZMMOmKMqIZRRjsTZCjKM2swcbz3Hi+DG+9uWv4kxgab0OSazEEcTOYK2yf2+Ffe9xqPF0M8hS8LkPHXuqeA3JDK8B6CyDtGtZXI5od7pcd32FQzdUMM7jDcROaTSgMROCC2Ph6489zptH3sa6BrWZ6wr22yKp3PfbNn79UwAt97XrhBE/XXV4oD9DKSZ840YirKsyu+1WOq1zfPvxx3njyJtEESQVaM4EixvHhZ6rWm47WGHnViXNPUtt6HQ8PvfkqmTek+WQpkovh3YacWHRsdxJ2bk74s7b60SRkGFwBmoNZWYW4iTUlE6evsTX/+Q/0e0s0Nh6gKjPThMNcv+sGW6WWxxXGq0+fma6SOuEMr5O3IYjfwLGYl0VgyWp7SKp7+bM6WN88d9/gV4amBmc/SCKLgLjhJm5hLs/0GD7NqHd81xcgoXFjKyXk2VKmippCt2u5dwlWGz32LoN7r67Tq3h6AlYlEpiqDcMcQKxC1XWP/zC53n3+HHiyjYq9WuL6Ckpskylzj/Vqdc4VvgZdueN8czuPfjgb4YGjvFuu1IRavz9CZ8ZdOgV9WyvOWiKi2fotN/l1ImTREnCnXfdih3E4QU3TCBKrerYtUNYWM65uAi9XmhwMFbJcqHbhbMXPe1uys5dhg9+sM5M3ZBrSFDHsaFWD0bIFPv/H197nD/9z19GM2Vu1+3Ela2DvEPQ+TLQodP0p65fJXqzIf2pTPfT+l14EvxSa+MwYJDM0txyM7nP+MojX+a553+K2GDlK0mw+lEUrLBxsG1Lwi/ek3D9fkOG4cKScnFeWW4r757zLLfb7N0fcd+9NbbMGUxkSCJDvWKpVyXsz4XtrbdO8od/8DBZL6e+5SYqtZ2BnSYuelpl6C6NTCrrOq9/5aPE0Ant9Ewe3SwPKEzqLlEtlQqKhty0t0Rr6Tyv/fR1PvLxj9OciTBAEoGTIkltArPqVcfuHZB5z8UF6HYCY3Np88G7KnzorjqVJISWzoaSceyCvowicDG0FlP+5W9+hreOvIW1VWa2HcLFDayr4qJqIe52rPNOS7NLusK2rOhq1vHP4EcBXY/YT/wMwy6SUqENFPV5EefH9LrzXDh3htMnTnH/x++nkoTQMY7BWhAbnm0E1Yrl2p1CpWpY6oJYw1+4p8kH3puQJIIaIbKQ2ABmHAUwbWhT4t/97n/gu998EvEwu/M24spWrIlxUQ1r4qGPO23ibwOsLH1mA4CyyqDxpJGbQb4tFPGMq2BNTLdzgbePvkHaaXPPh+/EupCtjyOIB3nRAEy1Yrh2u+XGfRG3HYrYu1twkQTgTfh8NRqC6aLw/h8/9Ch/9NCfkPdSZne8n0pjN8ZGWFcpjFE0Odws99aPb7ouTToO6Gpivx6WDl/3J220cMZDmaQGCN32BV55+RXiaoU77nofRgQnEElIwzkT1IATiCw0qzBTDcBZFxolqhYqBTNdgYsz8N/+9Jt8/nO/T6fVpbHlRuqz+7E2xrpqAWhcSuYwYSJ6xVTkBOs+UdynALoqS4VpCzOs1KtF/z1S9LDngOLiBiKWTmueF5/9MdVGndtue2/oGtEC1OKETPFsS825kUBiAqiunyAp6lD//b98h89+5l+xvNyiMXs9zbkbca6CcdWQ97RJKSoqperKOE5ynXTdDv9kQFc3TpNYygr1IIxOoQW6hqpdFDcAod26xLM/eI5KtcptHziEk5A8s8UxTWmTMYDtWIfMV7/yLX77M/+a5eU29ZnraG65ERcFVlpXwRZ5BjFF57KYCbpTJ4/urGqM1gR0/bp0CLysBH6sKai/Dx2Ifx0RS3v5Ej965lk6vZS777md2IRpNiejgFICtQxBpvDQQ1/jd3/791hcWKAxdwPNrTcNGBkAjUMmbKA3zWQp1wlR42q6c6VnPx3Q9enSsoGasO5IqVlBBtl9KUZxBBfVQYRue54XnnuRd46f4kMf/iDN2A1OyJSex4PDxY7yO7/zJb74+w+zvLRMc8sBmlsOBDE3UTCELgkO/EBvTnGRdHJ4ubruZL0MnTanNN5jL6XRaSZ8TlaqiyIzHibXDFFUR8SQ9pZ49aeH+eHTz/ILd97Krm1zK2rhZYYePn6OT//6Z3j8a0/Q7XSY3X6IxpYbignlqDBCSXDi+3pTzIRlDsYALIVLo7NIuhY71wJ03OLLyiYymTzCOAJqeQ0nGWaoRIat2IGphjxtc+LUKb7xP79LvdnklvfeVLQ4jrL1sW8/y6f/wT/nlVfeQD0BzNn9WBvYOBHMsTHvSZPFqlNEXcfmPacni9YAdMWs52RrPlH0R3Rt6bMD1TAOaph/91mHhcVFnvzO0/zs1de57a47maklqMKFVpd/9lu/x+c+90UuXmrhJGF2+yHqzT0BTBtjoxrOVQswXQlMBhZdV/hGOhIdjaqCCQBOV6t+k9PIk3zTCSs9lGLS0JbjQX2YVs575FkntGb7Ht3WOZYXj5H2FtCszU037eHXf+PX6PZ6fOFLf8yrP30DiIiTJo3Z60mq20PK0MQYG3TmsKxhhgMPU8DUcf1ZZuqVn0ZmbOm1CfPya45/j4m89ltjRkHVQY9+j7S3SK9zgV7nEmlnnth5PErqDdbViZNZqvVrcVE9REA2wdoqYoe1/uAemdLIxlgyUseHYMfAXPEZXc/SbqlbV6Cqo8vJ6GD5o7GpTdXhe+VzH1nZq7T+BwZjXNF0ZtHcFLPsDmsrRPEsaWWRPOuE9JyJiZImUTKLtYUltw5xlWJc2xRGzwxWcBhdZEBLq11tDMxVDNHltOIUnW8lsMqgBjdo1EpKPzFaljAp5/iLTLmEWrwWzr96OwDV2BgXNweha1j+ou9TusEaJMaUF3MxhSCMFdxK4E1a9nItMNcQ9cvpbSqDWhxUSutJ6XgPkhSpO1kZI5eNlQ7tdwC26JWyEd4ngwVcBp/vM7CoWI6uziClQtvKgFxXMG0tMNkQmJfRLKZDqe6P1ciImioAkuGYopbdqPEUeL+/tFg/VIfsVeswxq3oLO6vgDMAUYJ3qoNlhiYxckI8uS4wdUNg9gFdBLasv6FnOqiDVXAY1bHllRdHLnqkX6IAtVADqA89R6WoxBSGUUvV1oFXPLbiok5ZS3QUPK4kmAosOuA14IMbW6GxDGrJbulw2Z7yQjLlAEBLn5EJM9DlgKBf+5dJPWrl2R5k8nXrhEzxBCDHXaONinnfBwV+ZoqVri9jHYD+NzhaBVzxLfdPTlmRsFUdL18P9y06XWBEGfETx8u5qhN+p0Vb+QRWXgEw+4C+5ApA89V90fVb/z5ZymyFaYxlzNkejbxkjZkhXdE7wCqivUp0pGwWTAoMX3LF7RjyzTSNjWBXXkUWXbHm34g+ndTsu6J0qxtQYeOlDCa6TrqqK3XZC8TmwAum0KEvFkt1XH4nnk5ILgxEavjzJPGcKKIb3XS4L51UD1rlXEZV0mU9soKYr9njhx/t7D34YAu4r1jDfvOL1ayyqI5MnYr4f3aVcA+cAv4F8Hw/I/ZosfR6a9NgTjM4YywZYcoq7Jz0bzWWrnqcqYZrU49Wgd2j9F2l44cfzfcefPBw4T7tunI3VJHpjGX8zhW66S/y/8CdFrrAj4F/Cpx55rFPDX3P44cfPb/34IPzwB5gjrDYjPxcgOVKHOnnei8QDywAzwP/Bniqf3OVEWf++OFHX9178MEfAtuBHcVtGa7CHWvWXh7qslvUrx6IgxRdcfufx4F/Ajw59fY//ccqN6gaX2rpijGX/zvvp6SlRdD6C5a9Vdyg6qF13aBqDNjtU26hVuFq0Xa1X/387/jVmXILtXPTbqH2vwEnlz/cnMda+wAAAABJRU5ErkJggg==;" vertex="1" parent="HNUfWQM4cpFcuZbpRHGg-98">
          <mxGeometry x="480" y="40" width="10" height="10" as="geometry" />
        </mxCell>
        <mxCell id="HNUfWQM4cpFcuZbpRHGg-106" value="" style="shape=image;verticalLabelPosition=bottom;labelBackgroundColor=default;verticalAlign=top;aspect=fixed;imageAspect=0;image=data:image/png,iVBORw0KGgoAAAANSUhEUgAAAFQAAABUCAYAAAAcaxDBAAAYa0lEQVR42uWdeZRkVZ3nP/e+Ldbcs1agWARaaGitErV7sEWwUVppVBzQFhdaQZg5UrSFjMs0djf2tB7LDbqVYWlKRAc32sFRGbEP4oCiTgrYHAWZBgssaq/MrMyIt91l/njvRUZm5RK5li1xTpyXEZGZ8eIT3/vb7u/eJ6y1zHS7atOmQeD3gRcCL8jvRwEBz41bDDwNPJzfHwIe3To0tHemPxDTAb1q06YAuBh4N7AB8AA3P0pAPEeAWsAAKaDy43bgvwO3bh0aiucEetWmTScBVwNnAWtykIf1JqZ8wsN8U8Au4F+Aj20dGvrljECv2rTpDcCVwKlAPVfjCkMTCyBqVxq2AcaAR4DPbB0auvMQoFdt2nQicDNw2krYyEMAiiUaoCsLOAZ+Crxr69DQ4y2gV23a5APXAW8BaisCUayQBVx+uOPA7cDmrUNDSQH0TcBWYO1yDHOxkhDngGuXZ/g/C7xv69DQHWLLxo09wP8CXrLUDmi+IMVSjPbDA1YBDwKvFVs2bnxJ7rGqK2M3D5NSl0+hxa0BnCm2bNx4GfApoLQy3vwwDn27rEgj4EqxZePGzwHvzIN2fqdVCmCXDWkK3CK2bNz4Q+DFgLPywfphALt8KtXAT8SWjRv3A72HI51cCahiOoe1PCq1wLDYsnFjslLDfVqgQvxWDH2xNLFq+twF2oIqslNoJQFiMcnA4QWa8RT5Z5lQjJ1if0T+eysaYokF2dvDrFAhsNZiipTD2tbjAp8UAoFAisMAdv72duWBWsBa21KmtTYDCShjiI0h0QYhwBUCT0pcKXGEQOb3AqxYqRPuXKcrCzRTn2idnrY2g6g1oVIcjBNUEOB4Lmq8icDiSUnZcaj7Hr7j4LaBdYRYNNiOnFHnUFcGqM0VaKzFWEitQeVKTI2mkSoOJgn7o5hzL7qQC956AXd9/X9y3z33sXvHTmrAQCmg2/coOS6uI3EQuFLgSDkvxU4K1WxmLDtC1Zk9XX6ghU001qItRDpT4niaEBqD1prAcQHJvjTlH//HTbz09DMQImJ87AD33n0vX9/2NZ5+4gnCZkggJQPlMr1BQODk5kDKbF5mDvs6Y1TRaZlvbnu6PEBtO0xr0TnMUCkOxBEHkoSuo9bzqgteRxwlPPS9+9n11DNU1w1yx7dvo1rtwdoQEBjtEjfGefQnD3PXN+/m+//yA0b27ueIaoV11Qolx8GTDq7MzMCiQrS5hvbcQ3/pgbY7GmPBYFHGMpok7G1GxEYjA58rP3oNrzv/vGzIWcHPH3qIDesq9K47Iq8zKLAyK8+KAHDQSrHvmR3c9Olb2Hb7nRxXr3JUvYYvHTxnwnEtKt6da2jP/vrsQOebPRS2UluLNpbUGFJjORBH7GqGKG0JPJcjTziaG792E119vXlNoZhxOQi2CQdGIAzBdcEvQakCTl4MC1zCvQf5z+/8ED/94U95weAAVd9rRQSFTV1U8tA2tOeZus4FVHQcMEyCaS2x1owmiv1JitvfTb1eh0gz0N/FO6++lNP++I8zgOk4NEJQClQCxkAagTZZMVw64LlQ6YKgBNKC43HvXffzgfd+lF4pObJexRNykkrFRLC7qFBpeqAzqnRmoMU3O1sjxMR7tzsem4dAKbvikBNO/0PefcXFrF3Vg0DTP1ilXB/MhnW0H/YMQ5Tmbyrb3twWZ54dpYRaDaplcD3iRsLbztvMY49v55SBXuq+h9sGdS5ldjKRmiWmM/zO9CqdDehEaGHnsJe2DeZIHLM/jImMoYlly0c/wOvPPwfpREgpcmYpqBh2DmfqFPk72CIdKkIa2zp5hADPgVodqlXwXD7xweu48ba7WV/yeF5PF56UWSIgBFLKWSHO5kzboRUa7VCl0wOd9O3ayW9lp3E+KreZY0nCzmZIqLO36l43wLZvfJY16wfBNiCOQGlIFYxHMJ7kZUQ7/bhqf1KQqbQUZECDgMeGfsnF77qW5ug4L1zVR8V1cYXM4tQ2WyrmGZ0c+oTtVKUdAD3kP+W5d16pUUaTWMveMGR3HOH6ZbpqPfT093DRe97E2ee9AuwYNMZgNARlMqCJzuxl62RtyxYXdkvkSm2dipSZo6qWoVQCK7js0mv58f0/57juGoPlEo4j8fNUdSFZ1GxQFwF0lqKvnVCnJvPk42nKTqP5k9f/CWed8QL6Vw0wuLaPyupVQAIHRmHPwUydWRUEjMGKiRO11rSAtn+zrSxI5IG7IyHwM6V6Pt/71g/58DWfJUBwXD7sfdfBz4HONwm1szipabQ19S8OBdpJmNGymcbQVIrRJCUuB/z9tZdxwqYTkV01hOchdJo5nL3jEMX5GdiWqQCLNRZL9lzLu7YzFYDMgUqB40iE5+ThVEBjPOHtb/sQv3ryWU7q76bb9ym5Dr6UC87zF6HSBQLNvXpqDGNpykickHgemy99PS9+6e9RqVfwgxLCdSDWECmMUpkDK4CaDK4xBVhaUAstZKrMQAoBwhFIR+B4LrJUgsADL+Cz19/BP9x6F+vLJY7pquFLSeA4rSIKSwZ1OpXOCXTuOR7T5owOJgmjiWIMy4XnvZzXnrGRcs0nKFXwPD8b2gasKdRpMMZicoDW5HebP247cYFFSIGU5McMqHQkfrWMqJTA93nqqZ1c9K6/IR0POaW/l8DJgLpSLhropGL+3MN+cUBTYziYpIwpxbDSvPBFJ3PlBWcRBD6u51Py/XzIylx9GcgMaJ7n60ySpqXOHKa1mQ0VAkdmIarrZFAd18ELAvx6GcoBVrhcvuUTPHD/zzipr5veUoDXptKFlvfsIUCnGfazAe00TbN5zJkYQ0MpxtIsI+o9Yj0fffe51GpVHMfDc51suCJyBbb8EboA2qbO4nSLsFTkpyNlVrF3ZeHoHTzfI6hXcCoBMihxz70/5YN/+znqQvC8ni4cISgtWKVi+kzJzmlHZwc6Uy5vAW0MaQ50PFXsjROSWhf/cOV/pL+nGyEcPM9rfRhjRaZsk0EtgBpjW1HDVAcg8gm0zBZmDt6V4LoCx5WUqmXK3TWkH9BMFO/4T3/L409s59SBPiqeS8lx8BepUqYBOosdnQp08nCfF9Ao5oB0ue69b2Ftfy8Iied6+bxRG0RTJASTw7Dp9CFa0x3tUAWem0H1A4+u7i7cehXh+dxwy9f5xK13cmy1zFH1KoHjEDjOjFWoBaT3c9nRhQM11pLqLGwaS1N2hxE7U8Mn//KtrO/pxghB4AdIKbGIFkDbdrRz2K32iTraoHquxHMtgedQrVcpddVwymW2P7Obt1xxLdHoGH8w0EfZzRTq5cNe/LYDVcYQKs3BNGF3M+LpMOaaS87n+FWDIASlUhnH8/MAW2CFmPQPW6UHW5Qh7LRhS/sUh5DgSoHnCjxXUqsE1LprOJUKrh+w5a8/w733D/F7PV30+D6eM5HfL2bGtEPHtDCgtGqehkhnc0K7woinmyFvfNUf8cqTT8RxHcqVKo7nI6WT22eZZ+hichVnilrtlMJEK/7I41JHClwng1ryXer1CuXuOm6pxP0PPsyH/v4GyhaO7qoRSJmr9LccaKZQS2I0kdLsiyKeDSMq/X28+5z/wDGr+5FeCS8oIV03/99FKUm0BvQhQG17Xt/2KQrPLwVS2BZU35dUAp/uvh7cWoU4NVz63r/jF7/ezkldXfT6PoHj4DtyUXZ0Vk8/HdDpQqZOgKZGZ/FomrIzjBlJNevXrOIdr3wRG9avxvMzhyFFFvOIKUN/EtDixNrqBYeko6JwUllc6jmCUuDS3V2nVK/ilkrcdPud3PDVb7PG8zm2XsWTkpLjHFLNXzKgE55+4UBtnimlOvP2TaV4thlyQFm01qwaqHPZ687k2CPWId0ywnEzqG0qbY+UWllSDrVIBGzb43bFSpFlUJ5T2NIS9Z46pUqZJ5/eyaXXfAIdRpzc3dXK7Zcic1o+oHnolORAI63Z0QhplAJGx0Ncrenq72bL+Wdy/IYNGDxwHKSQuS2TbY4pD6PaCidZOpoXUdpqAC2o1iIkeBIcRxB4mS31Sz7SWK6+/jb+9dHHOLpWZVW5lNVJ5URzxLIDna8NbQeaGE2oDc80Qs549RmYNOKb9zyI0Ybevirvu/Acjj3iSLRwEUIipDPFphZZlMUaM9HjZEwr97etdNVgrUagkdLiSpspD0spCAh8By8ocd/Pn+DGL/4zrjYcXatSzovPjhQLCqHmbUMXDNQYEq0ZSxVPjTf4wOaLOf1lL+W73/8x/7jt64TjTbr6unn/hWdz9JFHoI0E6WSeP1erLeLSXJnGGowxaGOw+dHorClC6QQdjzE6sp+xsXG0jkm1JokUnispeT5uUMPp6uG2u77Hnr37WFetsqZSbtlRR4iOGiNW1MsXNrRQ6N4w5ukw5K82v4NXnHU65WqdHz34Mz788ZtpHBynr7+X91/0Go5YvQpjJdLxkFIicrtqbXsWZTBao0x21NqQpilJEqF0kzhp8N0fDTH0xA72HgxJohQhHSquwBfgOg7dtTK1aoXf7D6A1Zo1lRJrqhUqrpspVIhWn9RvGVBNrA3PNps83Yz5q8vezKvOeQW13h68SpX/c9+Pufq/3UBzdJwNR63lPee9nA3rViOdUu6oRBaf5gothrXWOr8blFJEUYRKxlE25ZsP/F9+8NCvcPJ5EtdzEYGPG5To6anSNzjIhqPWMNjTzc9+8nN+9cijuMYQOA7rqhVqXlZcc6XA7bA3alkzpalAC4f0TByz5c//jHNe/XJ616ymVKtireSeex9ky8dugUaDI1f3cMUbzuT5zzse4XitYW/ahrw2BqU1WilSpVBpSrM5jjYx9z78KF/5wUM4qcEruVx2xV9w4VvOoaurglOq5GvXZL4Gw5CMjnPzDV/grtu+StJo0khS1lfLrKlU8gqW7AjqAoF2Vm2aGjaFWrGjEfJsknLFm/6Ul208mVWDA1QGe5GlCjgB13/hG9y47WuUMJx6wjH817eeT62nO3sXK7BiMlCtFGmqSNKEJImJ43Ee+MX/Y9s9D6DCmHK5xNaPvIezLzgXZJJBtE4G1LFZjmpNNqmK4Cf3D3HrZ7/ILx55lF3DIxxbzdp4PDnRcTKTXV1EtanzTotiHj7NndLOZsSOOOaNrzmD1246iUrgUqmUqQyuprZ6Lc/uOcDbrvwbRg6MUql3c8v7L2fNmkFUqnLPnjkicqBpmpImKVESEUdNHnni37jxOw/QHB7B+D4fv/YKzn3Dq2nu2cO+Z/cxvHuMME7xHQffd6lWy3T31uk7bhV01TLQieWRHz3MF754J9/5/oOsl4Jj6pVJdVPZAdCO66HMY6VbS6F5GW8kTng6jCj19fL2V76E045ejVcK8MtV+o45Fq+nh63X3843/vf36V27nts+vJmeegWVpKgkQiuNyb250ToDmqaE4Ti/2L6D6776XUZGDqKs4SNXX8IFbzqPaHiYXb/exejIGFGUoJRBCrBC5IsRBF2VChuOX0t5VR2CMhaX0T37+fyX7uJrX7mL48o+vb4/oVIxuc6wqIr9vIC2hU0qD+x3hxHbGxFdvT1cfvYm/uiUE5GuT7mvj/7jjuLJnSN8/ivf4fdPOZk3v+p0VByTjI2Thk2szhySVgqjNEmaoJKIZ3bt4SO3f4vtz+xESckHN7+dS/7iAkQYMrxzHwcOHCSKUpIoQSmdxamtGSmQ0iEIXMq1AD/w0RiMsDz55A4+/umbqSrF6nJA1XXz1nM5qcdjCeaUOpwGKWqiOdBYa0KteWa8ye4wYWCwmy3nvoyNJx6DU6riD9QpD6yiGY5T7xqg6gfEB4eJxhuoVGO1AANaKbTWGJMyPNbg2lv/mUcef4pEaz64+WIuufTNEEc09hykcXCcZpSQxAlxnGQhlpkoXhdgkXnfsjQkcYRWKY3xkE/905cRzQZrSiW6fC/v53cylS/drOf8gBZQU22I8/buHY0me+OUo9YMcNk5L+XFp5yAXwpwukpEqcV1fWqlAJvEpEmap5MuwmbxqLCG4UbIR7Z9gx898ktibbn8kou4evPbcdKEeGyUxmiDZjMlTTVKKdI0C7G0acusrGktiMjCMo1KFcZowkaDT267Az02zuogoCfwCRy3lZ7apZqXn8+wN20dymlbGppBDdmXpgz29/COs17ES045DukK4jDCaIPnuUjHQRuNQCKli0DSjFOe3DvMV37wMI/9ajtxFHH2mX/I9R+/hsC1JM0mKo4Jx2OSVKNSjdI2z6ImMipjMidn8hTWWLAmC8W0MYRhxHW3fZnm/mFW+T59QUDJzZzTIeHTYjpHFqpSbcxEoG8MkVLsCuOsRlor87x1/fT0VAljRRwnNKKIME5oRtmHt9oQp5nZQFtcIdHWcvzRR3Lzx65m/VEbUCrEqpg0Vqgki1WVKkKtDJxSEwlBcTT5a9oYtFZopWiGMZ/5/B009h1g0PPoLwWUHBfPmQJ0aXqb5hc+mbYW8NQalM6cVWQyRzUcJUgJvuu0TrIogFhj29puRCu3D7UB1+WdF/wpl73tDZjCDlqNLeb2W7Dy9nMzoVStDTqHm6qJn5VSaJ0y3gi5btuXaew/QL/r0VcKKLvuofNPdgm675jnRgFToWqygD8xGmUtkcqK0KktqkVMnrFr2xlHIEht1oCWWDjttFN437veyNr1a7BCIEzRCNzWumOzKRmTl/d0AVTrPOMypKkmTRVpEqOUYmR0jE/f8iXCkTH6XY+B8jRAZ1XnPPpDJ6nUzt1gOVEgntzJrIxFWZN92OJnYzFtcx5CTJ4FFUKQmKx61VSaoF7hrRe+mgtfcwY2t7NCyjzWzJVjzESLpRX58LYtJ6WVRqkMaNhsopVi1+4DbL3hdkQY0e/79OcKzUqBE83wS9bB3FJp8W87WZEyxa4WYIsj1rZ9ATN8MXmL5GiScjBVxBhOP+M0PnzFn4NwAQchZZ6xitb0yKSlPEUTRUuphjRVaKWJwog0SfjlE7/hupu+RNVYBkuFl3dwhSyirFkWLSygx55D5sdnh9q+dtO2dejZNriTJuCmX3zRWobTVIqDScqwSjn21OP53F9fnuXnogAqJn1a2zY4W3a1cFK5QpUyxHGMTlLuvm+IL995N6t9n4FSQNX18POVee02dElXgRzanz491KkFhalgbdtzk23n5GzEkjmW1GaJwliq2B1GlNev4o5P/iWe52IsCGFBOK3RkH1TAkseg1qDUQZtTe7lDVplryVJQmMs5FNf+DaP/+sTHFMr0+P7HS8gW9Q6pU6gzgbaTvkmW/Dy1cjT/W7RkRJpTUMp9jRDxupVbr72Etb2VxmPQ6Tj4DheXlEq1jfkBiN3TEZrbNYQmVX044TGWMSeAyM88th2vvStH7IawfpaharjErhZh8msbTvLsZJuvlCn6wKZbbFV+9KcUGlGkpgdccLxL3w+px4zQNW39NRr9PZ0UatX8T0X13Em2tRTTao1aZIw1ojYuXs/T/1mL/+2Yz+79x1ktBERxyn9QrKhVqXqOQTSmQjqi9afORaELRnQ6Yb4TEDFtI/snJ3RJl84luRdKSNpyqhSaEBjEE5WP5WuRMqi3TGr/GuVe3iVBf1KaYS1SANOHrVUPIfV5TI1L5u4CxzZ6tKbca5puVYjzxSfzmpjZ3xk58y8IpXNCIQ6m1ktYltlTGuZuMibyIqqvxQSTwokmYNxhcAR4OcLw8p5V54vs99rr4VOOyO6nOvlZ8qiOooEOpj1b4VceXmwaPdJ2noAlLVomx1VHv+K9tYeyCHmMKXEE6LVOObkr3lisleftsC83Ds6zAVu/mCnH/aTl4ZnitRtj81Uh5dHDsVwFW1de+3qk2RD35Uy2/lrrm03VmLPkcVCnXOJ4NQYdkply9gpXc/TJiST93pt3wwm214ja46ggDmd7VzJXXE6KaAsFKyd4vXb41jdWuM0YSJmtPZiyu46hdPJU8t2NTNDyW6eezeli9qqbTao7XOntu3J+ay/nC6OnTTUZ1GQoEhNc/XZdnNgW6+LhYVHM+lgeNGbCS7Iu4vOh//kBtzONkSYWgSe+OLt7NPji9tjVAM/XpLtLuc3tGenKTqCdKhyD/nbKdnEnFHw4jdsTYGbl2xD1oWFTcxPqvOSJjP27C8DTNo3ZF3SLYMXFjbNM8aynVNdAZDFrbVl8JJvat3pvqBiEa/OmcZ22E63RDAnNrVezm3XnyO7hE/edn0lLgzwO76P/aEXBmCFLl3xO3ilhekvXVHc8ourbAb+YLkvrvLv/Fogc19cpQ3q84H/stKX//l3dLWaFNjd0eV/2qDOdIEqN8+oVtQaHsbrKdk8A1JtF6j6dX6Bqm0dXaBqCtiBGS6hVuK5cYtmuITavpn+4P8D7pIyc8pXnaoAAAAASUVORK5CYII=;" vertex="1" parent="HNUfWQM4cpFcuZbpRHGg-98">
          <mxGeometry x="490" y="40" width="10" height="10" as="geometry" />
        </mxCell>
        <object label="Pair Stack AoEs" id="HNUfWQM4cpFcuZbpRHGg-108">
          <mxCell parent="0" />
        </object>
        <mxCell id="HNUfWQM4cpFcuZbpRHGg-111" value="" style="ellipse;whiteSpace=wrap;html=1;aspect=fixed;fillColor=none;fillStyle=zigzag-line;gradientColor=none;strokeColor=#FF8000;shadow=0;" vertex="1" parent="HNUfWQM4cpFcuZbpRHGg-108">
          <mxGeometry x="450" y="10" width="77.5" height="77.5" as="geometry" />
        </mxCell>
        <mxCell id="HNUfWQM4cpFcuZbpRHGg-112" value="" style="ellipse;whiteSpace=wrap;html=1;aspect=fixed;fillColor=none;fillStyle=zigzag-line;gradientColor=none;strokeColor=#FF8000;shadow=0;" vertex="1" parent="HNUfWQM4cpFcuZbpRHGg-108">
          <mxGeometry x="450" y="70" width="77.5" height="77.5" as="geometry" />
        </mxCell>
        <mxCell id="HNUfWQM4cpFcuZbpRHGg-114" value="" style="ellipse;whiteSpace=wrap;html=1;aspect=fixed;fillColor=none;fillStyle=zigzag-line;gradientColor=none;strokeColor=#FF8000;shadow=0;" vertex="1" parent="HNUfWQM4cpFcuZbpRHGg-108">
          <mxGeometry x="450" y="120" width="77.5" height="77.5" as="geometry" />
        </mxCell>
        <mxCell id="HNUfWQM4cpFcuZbpRHGg-115" value="" style="ellipse;whiteSpace=wrap;html=1;aspect=fixed;fillColor=none;fillStyle=zigzag-line;gradientColor=none;strokeColor=#FF8000;shadow=0;" vertex="1" parent="HNUfWQM4cpFcuZbpRHGg-108">
          <mxGeometry x="450" y="180" width="77.5" height="77.5" as="geometry" />
        </mxCell>
      </root>
    </mxGraphModel>
  </diagram>
</mxfile>
